<mxfile host="app.diagrams.net" modified="2023-09-24T07:23:18.172Z" agent="Mozilla/5.0 (Windows NT 10.0; Win64; x64) AppleWebKit/537.36 (KHTML, like Gecko) Chrome/116.0.0.0 Safari/537.36" etag="r_9NswHoYEFPZnacf3DR" version="21.7.5" type="github">
  <diagram name="第 1 页" id="cnBMpmwu3O2mLDWDtyyw">
    <mxGraphModel dx="1250" dy="1721" grid="1" gridSize="10" guides="1" tooltips="1" connect="1" arrows="1" fold="1" page="1" pageScale="1" pageWidth="827" pageHeight="1169" math="0" shadow="0">
      <root>
        <mxCell id="0" />
        <mxCell id="1" parent="0" />
        <mxCell id="d8EzzS2z0Zi32wdxlMhy-1" style="edgeStyle=orthogonalEdgeStyle;rounded=0;orthogonalLoop=1;jettySize=auto;html=1;exitX=1;exitY=0.5;exitDx=0;exitDy=0;entryX=0;entryY=0.5;entryDx=0;entryDy=0;" parent="1" source="d8EzzS2z0Zi32wdxlMhy-12" target="d8EzzS2z0Zi32wdxlMhy-16" edge="1">
          <mxGeometry relative="1" as="geometry" />
        </mxCell>
        <mxCell id="d8EzzS2z0Zi32wdxlMhy-2" style="edgeStyle=orthogonalEdgeStyle;rounded=0;orthogonalLoop=1;jettySize=auto;html=1;exitX=1;exitY=0.5;exitDx=0;exitDy=0;entryX=0;entryY=0.5;entryDx=0;entryDy=0;" parent="1" source="d8EzzS2z0Zi32wdxlMhy-12" target="d8EzzS2z0Zi32wdxlMhy-15" edge="1">
          <mxGeometry relative="1" as="geometry" />
        </mxCell>
        <mxCell id="d8EzzS2z0Zi32wdxlMhy-3" style="edgeStyle=orthogonalEdgeStyle;rounded=0;orthogonalLoop=1;jettySize=auto;html=1;exitX=1;exitY=0.5;exitDx=0;exitDy=0;entryX=0;entryY=0.5;entryDx=0;entryDy=0;" parent="1" source="d8EzzS2z0Zi32wdxlMhy-12" target="d8EzzS2z0Zi32wdxlMhy-19" edge="1">
          <mxGeometry relative="1" as="geometry" />
        </mxCell>
        <mxCell id="d8EzzS2z0Zi32wdxlMhy-4" style="edgeStyle=orthogonalEdgeStyle;rounded=0;orthogonalLoop=1;jettySize=auto;html=1;exitX=1;exitY=0.5;exitDx=0;exitDy=0;entryX=0;entryY=0.5;entryDx=0;entryDy=0;" parent="1" source="d8EzzS2z0Zi32wdxlMhy-12" target="d8EzzS2z0Zi32wdxlMhy-22" edge="1">
          <mxGeometry relative="1" as="geometry">
            <mxPoint x="230" y="-690" as="targetPoint" />
          </mxGeometry>
        </mxCell>
        <mxCell id="d8EzzS2z0Zi32wdxlMhy-6" style="edgeStyle=orthogonalEdgeStyle;rounded=0;orthogonalLoop=1;jettySize=auto;html=1;exitX=1;exitY=0.5;exitDx=0;exitDy=0;entryX=0;entryY=0.5;entryDx=0;entryDy=0;" parent="1" source="d8EzzS2z0Zi32wdxlMhy-12" target="d8EzzS2z0Zi32wdxlMhy-28" edge="1">
          <mxGeometry relative="1" as="geometry" />
        </mxCell>
        <mxCell id="d8EzzS2z0Zi32wdxlMhy-7" style="edgeStyle=orthogonalEdgeStyle;rounded=0;orthogonalLoop=1;jettySize=auto;html=1;exitX=1;exitY=0.5;exitDx=0;exitDy=0;entryX=0;entryY=0.5;entryDx=0;entryDy=0;" parent="1" source="d8EzzS2z0Zi32wdxlMhy-38" target="d8EzzS2z0Zi32wdxlMhy-32" edge="1">
          <mxGeometry relative="1" as="geometry">
            <mxPoint x="420" y="-510" as="sourcePoint" />
          </mxGeometry>
        </mxCell>
        <mxCell id="d8EzzS2z0Zi32wdxlMhy-9" style="edgeStyle=orthogonalEdgeStyle;rounded=0;orthogonalLoop=1;jettySize=auto;html=1;exitX=1;exitY=0.5;exitDx=0;exitDy=0;entryX=0;entryY=0.5;entryDx=0;entryDy=0;fontSize=20;" parent="1" source="d8EzzS2z0Zi32wdxlMhy-12" target="d8EzzS2z0Zi32wdxlMhy-38" edge="1">
          <mxGeometry relative="1" as="geometry" />
        </mxCell>
        <mxCell id="d8EzzS2z0Zi32wdxlMhy-10" style="edgeStyle=orthogonalEdgeStyle;rounded=0;orthogonalLoop=1;jettySize=auto;html=1;exitX=1;exitY=0.5;exitDx=0;exitDy=0;entryX=0;entryY=0.5;entryDx=0;entryDy=0;" parent="1" source="d8EzzS2z0Zi32wdxlMhy-12" target="d8EzzS2z0Zi32wdxlMhy-42" edge="1">
          <mxGeometry relative="1" as="geometry" />
        </mxCell>
        <mxCell id="d8EzzS2z0Zi32wdxlMhy-11" style="edgeStyle=orthogonalEdgeStyle;rounded=0;orthogonalLoop=1;jettySize=auto;html=1;exitX=1;exitY=0.5;exitDx=0;exitDy=0;entryX=0;entryY=0.5;entryDx=0;entryDy=0;fontSize=17;" parent="1" source="d8EzzS2z0Zi32wdxlMhy-12" target="d8EzzS2z0Zi32wdxlMhy-46" edge="1">
          <mxGeometry relative="1" as="geometry" />
        </mxCell>
        <mxCell id="d8EzzS2z0Zi32wdxlMhy-57" style="edgeStyle=orthogonalEdgeStyle;rounded=0;orthogonalLoop=1;jettySize=auto;html=1;exitX=1;exitY=0.5;exitDx=0;exitDy=0;entryX=0;entryY=0.5;entryDx=0;entryDy=0;" parent="1" source="d8EzzS2z0Zi32wdxlMhy-12" target="d8EzzS2z0Zi32wdxlMhy-53" edge="1">
          <mxGeometry relative="1" as="geometry" />
        </mxCell>
        <mxCell id="d8EzzS2z0Zi32wdxlMhy-60" style="edgeStyle=orthogonalEdgeStyle;rounded=0;orthogonalLoop=1;jettySize=auto;html=1;exitX=1;exitY=0.5;exitDx=0;exitDy=0;entryX=0;entryY=0.5;entryDx=0;entryDy=0;" parent="1" source="d8EzzS2z0Zi32wdxlMhy-12" target="d8EzzS2z0Zi32wdxlMhy-59" edge="1">
          <mxGeometry relative="1" as="geometry" />
        </mxCell>
        <mxCell id="d8EzzS2z0Zi32wdxlMhy-12" value="中医中药方剂&lt;br&gt;养生医案&lt;br&gt;大数据平台" style="rounded=1;whiteSpace=wrap;html=1;fontSize=15;fillColor=#008a00;strokeColor=#005700;fontColor=#ffffff;" parent="1" vertex="1">
          <mxGeometry x="100" y="-840" width="120" height="80" as="geometry" />
        </mxCell>
        <mxCell id="d8EzzS2z0Zi32wdxlMhy-13" style="edgeStyle=orthogonalEdgeStyle;rounded=0;orthogonalLoop=1;jettySize=auto;html=1;exitX=1;exitY=0.5;exitDx=0;exitDy=0;entryX=0;entryY=0.5;entryDx=0;entryDy=0;" parent="1" source="d8EzzS2z0Zi32wdxlMhy-15" target="d8EzzS2z0Zi32wdxlMhy-20" edge="1">
          <mxGeometry relative="1" as="geometry" />
        </mxCell>
        <mxCell id="d8EzzS2z0Zi32wdxlMhy-14" style="edgeStyle=orthogonalEdgeStyle;rounded=0;orthogonalLoop=1;jettySize=auto;html=1;exitX=1;exitY=0.5;exitDx=0;exitDy=0;entryX=0;entryY=0.5;entryDx=0;entryDy=0;fontSize=17;" parent="1" source="d8EzzS2z0Zi32wdxlMhy-15" target="d8EzzS2z0Zi32wdxlMhy-44" edge="1">
          <mxGeometry relative="1" as="geometry" />
        </mxCell>
        <mxCell id="d8EzzS2z0Zi32wdxlMhy-15" value="首页" style="rounded=1;whiteSpace=wrap;html=1;fontSize=15;fillColor=#d5e8d4;strokeColor=#82b366;" parent="1" vertex="1">
          <mxGeometry x="270" y="-1040" width="120" height="40" as="geometry" />
        </mxCell>
        <mxCell id="d8EzzS2z0Zi32wdxlMhy-16" value="登录与注册" style="rounded=1;whiteSpace=wrap;html=1;fontSize=15;fillColor=#d5e8d4;strokeColor=#82b366;" parent="1" vertex="1">
          <mxGeometry x="270" y="-1100" width="120" height="40" as="geometry" />
        </mxCell>
        <mxCell id="d8EzzS2z0Zi32wdxlMhy-17" style="edgeStyle=orthogonalEdgeStyle;rounded=0;orthogonalLoop=1;jettySize=auto;html=1;exitX=1;exitY=0.5;exitDx=0;exitDy=0;entryX=0;entryY=0.5;entryDx=0;entryDy=0;" parent="1" source="d8EzzS2z0Zi32wdxlMhy-19" target="d8EzzS2z0Zi32wdxlMhy-26" edge="1">
          <mxGeometry relative="1" as="geometry" />
        </mxCell>
        <mxCell id="d8EzzS2z0Zi32wdxlMhy-18" style="edgeStyle=orthogonalEdgeStyle;rounded=0;orthogonalLoop=1;jettySize=auto;html=1;exitX=1;exitY=0.5;exitDx=0;exitDy=0;entryX=0;entryY=0.5;entryDx=0;entryDy=0;fontSize=15;" parent="1" source="d8EzzS2z0Zi32wdxlMhy-19" target="d8EzzS2z0Zi32wdxlMhy-43" edge="1">
          <mxGeometry relative="1" as="geometry" />
        </mxCell>
        <mxCell id="d8EzzS2z0Zi32wdxlMhy-19" value="可视化" style="rounded=1;whiteSpace=wrap;html=1;fontSize=15;fillColor=#d5e8d4;strokeColor=#82b366;" parent="1" vertex="1">
          <mxGeometry x="270" y="-737.5" width="120" height="40" as="geometry" />
        </mxCell>
        <mxCell id="d8EzzS2z0Zi32wdxlMhy-20" value="方剂卡片" style="rounded=1;whiteSpace=wrap;html=1;fontSize=15;fillColor=#d5e8d4;strokeColor=#82b366;" parent="1" vertex="1">
          <mxGeometry x="507.5" y="-1040" width="120" height="40" as="geometry" />
        </mxCell>
        <mxCell id="d8EzzS2z0Zi32wdxlMhy-21" style="edgeStyle=orthogonalEdgeStyle;rounded=0;orthogonalLoop=1;jettySize=auto;html=1;exitX=1;exitY=0.5;exitDx=0;exitDy=0;entryX=0;entryY=0.5;entryDx=0;entryDy=0;" parent="1" source="d8EzzS2z0Zi32wdxlMhy-22" target="d8EzzS2z0Zi32wdxlMhy-24" edge="1">
          <mxGeometry relative="1" as="geometry" />
        </mxCell>
        <mxCell id="d8EzzS2z0Zi32wdxlMhy-22" value="词云" style="rounded=1;whiteSpace=wrap;html=1;fontSize=15;fillColor=#d5e8d4;strokeColor=#82b366;" parent="1" vertex="1">
          <mxGeometry x="270" y="-650" width="120" height="40" as="geometry" />
        </mxCell>
        <mxCell id="d8EzzS2z0Zi32wdxlMhy-24" value="[主治症候] 词云" style="rounded=1;whiteSpace=wrap;html=1;fontSize=15;fillColor=#d5e8d4;strokeColor=#82b366;" parent="1" vertex="1">
          <mxGeometry x="450" y="-650" width="145" height="40" as="geometry" />
        </mxCell>
        <mxCell id="d8EzzS2z0Zi32wdxlMhy-25" style="edgeStyle=orthogonalEdgeStyle;rounded=0;orthogonalLoop=1;jettySize=auto;html=1;exitX=1;exitY=0.5;exitDx=0;exitDy=0;entryX=0;entryY=0.5;entryDx=0;entryDy=0;" parent="1" source="d8EzzS2z0Zi32wdxlMhy-26" target="d8EzzS2z0Zi32wdxlMhy-33" edge="1">
          <mxGeometry relative="1" as="geometry" />
        </mxCell>
        <mxCell id="d8EzzS2z0Zi32wdxlMhy-63" style="edgeStyle=orthogonalEdgeStyle;rounded=0;orthogonalLoop=1;jettySize=auto;html=1;exitX=1;exitY=0.5;exitDx=0;exitDy=0;entryX=0;entryY=0.5;entryDx=0;entryDy=0;" parent="1" source="d8EzzS2z0Zi32wdxlMhy-26" target="d8EzzS2z0Zi32wdxlMhy-62" edge="1">
          <mxGeometry relative="1" as="geometry" />
        </mxCell>
        <mxCell id="d8EzzS2z0Zi32wdxlMhy-26" value="Echarts分析大屏" style="rounded=1;whiteSpace=wrap;html=1;fontSize=15;fillColor=#d5e8d4;strokeColor=#82b366;" parent="1" vertex="1">
          <mxGeometry x="455" y="-777.5" width="120" height="40" as="geometry" />
        </mxCell>
        <mxCell id="d8EzzS2z0Zi32wdxlMhy-27" value="" style="edgeStyle=orthogonalEdgeStyle;rounded=0;orthogonalLoop=1;jettySize=auto;html=1;entryX=0.5;entryY=1;entryDx=0;entryDy=0;" parent="1" source="d8EzzS2z0Zi32wdxlMhy-28" target="d8EzzS2z0Zi32wdxlMhy-20" edge="1">
          <mxGeometry relative="1" as="geometry">
            <mxPoint x="460" y="-980" as="targetPoint" />
          </mxGeometry>
        </mxCell>
        <mxCell id="d8EzzS2z0Zi32wdxlMhy-28" value="方剂搜索" style="rounded=1;whiteSpace=wrap;html=1;fontSize=15;fillColor=#d5e8d4;strokeColor=#82b366;" parent="1" vertex="1">
          <mxGeometry x="270" y="-980" width="120" height="40" as="geometry" />
        </mxCell>
        <mxCell id="d8EzzS2z0Zi32wdxlMhy-31" style="edgeStyle=orthogonalEdgeStyle;rounded=0;orthogonalLoop=1;jettySize=auto;html=1;exitX=1;exitY=0.5;exitDx=0;exitDy=0;entryX=0;entryY=0.5;entryDx=0;entryDy=0;" parent="1" source="d8EzzS2z0Zi32wdxlMhy-32" target="d8EzzS2z0Zi32wdxlMhy-34" edge="1">
          <mxGeometry relative="1" as="geometry" />
        </mxCell>
        <mxCell id="d8EzzS2z0Zi32wdxlMhy-32" value="修改个人信息" style="rounded=1;whiteSpace=wrap;html=1;fontSize=15;fillColor=#d5e8d4;strokeColor=#82b366;" parent="1" vertex="1">
          <mxGeometry x="462.5" y="-510" width="120" height="40" as="geometry" />
        </mxCell>
        <mxCell id="d8EzzS2z0Zi32wdxlMhy-33" value="环形图、柱状图、饼图、折线图等" style="rounded=1;whiteSpace=wrap;html=1;fontSize=15;fillColor=#d5e8d4;strokeColor=#82b366;" parent="1" vertex="1">
          <mxGeometry x="617.5" y="-780" width="145" height="45" as="geometry" />
        </mxCell>
        <mxCell id="d8EzzS2z0Zi32wdxlMhy-34" value="阿里短信验证码修改密码" style="rounded=1;whiteSpace=wrap;html=1;fontSize=15;fillColor=#fff2cc;strokeColor=#d6b656;" parent="1" vertex="1">
          <mxGeometry x="630" y="-510" width="120" height="40" as="geometry" />
        </mxCell>
        <mxCell id="d8EzzS2z0Zi32wdxlMhy-38" value="设置" style="rounded=1;whiteSpace=wrap;html=1;fontSize=15;fillColor=#d5e8d4;strokeColor=#82b366;" parent="1" vertex="1">
          <mxGeometry x="270" y="-510" width="120" height="40" as="geometry" />
        </mxCell>
        <mxCell id="d8EzzS2z0Zi32wdxlMhy-39" style="edgeStyle=orthogonalEdgeStyle;rounded=0;orthogonalLoop=1;jettySize=auto;html=1;exitX=1;exitY=0.5;exitDx=0;exitDy=0;entryX=0;entryY=0.5;entryDx=0;entryDy=0;fontSize=17;" parent="1" source="d8EzzS2z0Zi32wdxlMhy-40" target="d8EzzS2z0Zi32wdxlMhy-51" edge="1">
          <mxGeometry relative="1" as="geometry" />
        </mxCell>
        <mxCell id="d8EzzS2z0Zi32wdxlMhy-40" value="交互式的知识图谱" style="rounded=1;whiteSpace=wrap;html=1;fontSize=15;fillColor=#d5e8d4;strokeColor=#82b366;" parent="1" vertex="1">
          <mxGeometry x="450" y="-586.5" width="140" height="40" as="geometry" />
        </mxCell>
        <mxCell id="d8EzzS2z0Zi32wdxlMhy-41" style="edgeStyle=orthogonalEdgeStyle;rounded=0;orthogonalLoop=1;jettySize=auto;html=1;exitX=1;exitY=0.5;exitDx=0;exitDy=0;entryX=0;entryY=0.5;entryDx=0;entryDy=0;" parent="1" source="d8EzzS2z0Zi32wdxlMhy-42" target="d8EzzS2z0Zi32wdxlMhy-40" edge="1">
          <mxGeometry relative="1" as="geometry" />
        </mxCell>
        <mxCell id="d8EzzS2z0Zi32wdxlMhy-42" value="&amp;nbsp;neo4j知识图谱" style="rounded=1;whiteSpace=wrap;html=1;fontSize=15;fillColor=#d5e8d4;strokeColor=#82b366;" parent="1" vertex="1">
          <mxGeometry x="270" y="-586.5" width="120" height="40" as="geometry" />
        </mxCell>
        <mxCell id="d8EzzS2z0Zi32wdxlMhy-43" value="中药关键词提取、临床关键词分析、&lt;br&gt;中医养生关键词频分析" style="rounded=1;whiteSpace=wrap;html=1;fontSize=15;fillColor=#d5e8d4;strokeColor=#82b366;" parent="1" vertex="1">
          <mxGeometry x="455" y="-707.5" width="315" height="40" as="geometry" />
        </mxCell>
        <mxCell id="d8EzzS2z0Zi32wdxlMhy-44" value="轮播图" style="rounded=1;whiteSpace=wrap;html=1;fontSize=15;fillColor=#f5f5f5;strokeColor=#666666;fontColor=#333333;" parent="1" vertex="1">
          <mxGeometry x="507.5" y="-1110" width="120" height="40" as="geometry" />
        </mxCell>
        <mxCell id="d8EzzS2z0Zi32wdxlMhy-45" style="edgeStyle=orthogonalEdgeStyle;rounded=0;orthogonalLoop=1;jettySize=auto;html=1;exitX=1;exitY=0.5;exitDx=0;exitDy=0;entryX=0;entryY=0.5;entryDx=0;entryDy=0;fontSize=17;" parent="1" source="d8EzzS2z0Zi32wdxlMhy-46" target="d8EzzS2z0Zi32wdxlMhy-48" edge="1">
          <mxGeometry relative="1" as="geometry" />
        </mxCell>
        <mxCell id="d8EzzS2z0Zi32wdxlMhy-46" value="药材搜索" style="rounded=1;whiteSpace=wrap;html=1;fontSize=15;fillColor=#d5e8d4;strokeColor=#82b366;" parent="1" vertex="1">
          <mxGeometry x="270" y="-920" width="120" height="40" as="geometry" />
        </mxCell>
        <mxCell id="d8EzzS2z0Zi32wdxlMhy-47" style="edgeStyle=orthogonalEdgeStyle;rounded=0;orthogonalLoop=1;jettySize=auto;html=1;exitX=1;exitY=0.5;exitDx=0;exitDy=0;entryX=0;entryY=0.5;entryDx=0;entryDy=0;fontSize=17;" parent="1" source="d8EzzS2z0Zi32wdxlMhy-48" target="d8EzzS2z0Zi32wdxlMhy-49" edge="1">
          <mxGeometry relative="1" as="geometry" />
        </mxCell>
        <mxCell id="d8EzzS2z0Zi32wdxlMhy-48" value="药材卡片" style="rounded=1;whiteSpace=wrap;html=1;fontSize=15;fillColor=#d5e8d4;strokeColor=#82b366;" parent="1" vertex="1">
          <mxGeometry x="431.5" y="-920" width="120" height="40" as="geometry" />
        </mxCell>
        <mxCell id="d8EzzS2z0Zi32wdxlMhy-49" value="详情" style="rounded=1;whiteSpace=wrap;html=1;fontSize=15;fillColor=#d5e8d4;strokeColor=#82b366;" parent="1" vertex="1">
          <mxGeometry x="590" y="-920" width="120" height="40" as="geometry" />
        </mxCell>
        <mxCell id="d8EzzS2z0Zi32wdxlMhy-51" value="升级版" style="rounded=1;whiteSpace=wrap;html=1;fontSize=15;fillColor=#1ba1e2;strokeColor=#006EAF;fontColor=#ffffff;" parent="1" vertex="1">
          <mxGeometry x="630" y="-586.5" width="110" height="40" as="geometry" />
        </mxCell>
        <mxCell id="d8EzzS2z0Zi32wdxlMhy-52" style="edgeStyle=orthogonalEdgeStyle;rounded=0;orthogonalLoop=1;jettySize=auto;html=1;exitX=1;exitY=0.5;exitDx=0;exitDy=0;entryX=0;entryY=0.5;entryDx=0;entryDy=0;fontSize=17;" parent="1" source="d8EzzS2z0Zi32wdxlMhy-53" edge="1">
          <mxGeometry relative="1" as="geometry">
            <mxPoint x="433" y="-830" as="targetPoint" />
          </mxGeometry>
        </mxCell>
        <mxCell id="d8EzzS2z0Zi32wdxlMhy-53" value="养生知识" style="rounded=1;whiteSpace=wrap;html=1;fontSize=15;fillColor=#d5e8d4;strokeColor=#82b366;" parent="1" vertex="1">
          <mxGeometry x="270" y="-850" width="120" height="40" as="geometry" />
        </mxCell>
        <mxCell id="d8EzzS2z0Zi32wdxlMhy-56" value="详情" style="rounded=1;whiteSpace=wrap;html=1;fontSize=15;fillColor=#d5e8d4;strokeColor=#82b366;" parent="1" vertex="1">
          <mxGeometry x="431.5" y="-850" width="120" height="40" as="geometry" />
        </mxCell>
        <mxCell id="d8EzzS2z0Zi32wdxlMhy-59" value="医案精选" style="rounded=1;whiteSpace=wrap;html=1;fontSize=15;fillColor=#d5e8d4;strokeColor=#82b366;" parent="1" vertex="1">
          <mxGeometry x="270" y="-790" width="120" height="40" as="geometry" />
        </mxCell>
        <mxCell id="d8EzzS2z0Zi32wdxlMhy-62" value="百度中医高校热力图" style="rounded=1;whiteSpace=wrap;html=1;fontSize=15;fillColor=#d5e8d4;strokeColor=#82b366;" parent="1" vertex="1">
          <mxGeometry x="617.5" y="-840" width="145" height="45" as="geometry" />
        </mxCell>
        <mxCell id="D8rwGO-gOKSLSICI7qhx-1" style="edgeStyle=orthogonalEdgeStyle;rounded=0;orthogonalLoop=1;jettySize=auto;html=1;exitX=1;exitY=0.5;exitDx=0;exitDy=0;entryX=0;entryY=0.5;entryDx=0;entryDy=0;" parent="1" source="D8rwGO-gOKSLSICI7qhx-12" target="D8rwGO-gOKSLSICI7qhx-16" edge="1">
          <mxGeometry relative="1" as="geometry" />
        </mxCell>
        <mxCell id="D8rwGO-gOKSLSICI7qhx-2" style="edgeStyle=orthogonalEdgeStyle;rounded=0;orthogonalLoop=1;jettySize=auto;html=1;exitX=1;exitY=0.5;exitDx=0;exitDy=0;entryX=0;entryY=0.5;entryDx=0;entryDy=0;" parent="1" source="D8rwGO-gOKSLSICI7qhx-12" target="D8rwGO-gOKSLSICI7qhx-15" edge="1">
          <mxGeometry relative="1" as="geometry" />
        </mxCell>
        <mxCell id="D8rwGO-gOKSLSICI7qhx-3" style="edgeStyle=orthogonalEdgeStyle;rounded=0;orthogonalLoop=1;jettySize=auto;html=1;exitX=1;exitY=0.5;exitDx=0;exitDy=0;entryX=0;entryY=0.5;entryDx=0;entryDy=0;" parent="1" source="D8rwGO-gOKSLSICI7qhx-12" target="D8rwGO-gOKSLSICI7qhx-19" edge="1">
          <mxGeometry relative="1" as="geometry" />
        </mxCell>
        <mxCell id="D8rwGO-gOKSLSICI7qhx-5" style="edgeStyle=orthogonalEdgeStyle;rounded=0;orthogonalLoop=1;jettySize=auto;html=1;exitX=1;exitY=0.5;exitDx=0;exitDy=0;entryX=0;entryY=0.5;entryDx=0;entryDy=0;" parent="1" source="D8rwGO-gOKSLSICI7qhx-12" target="D8rwGO-gOKSLSICI7qhx-28" edge="1">
          <mxGeometry relative="1" as="geometry" />
        </mxCell>
        <mxCell id="D8rwGO-gOKSLSICI7qhx-6" style="edgeStyle=orthogonalEdgeStyle;rounded=0;orthogonalLoop=1;jettySize=auto;html=1;exitX=1;exitY=0.5;exitDx=0;exitDy=0;entryX=0;entryY=0.5;entryDx=0;entryDy=0;" parent="1" source="D8rwGO-gOKSLSICI7qhx-33" target="D8rwGO-gOKSLSICI7qhx-30" edge="1">
          <mxGeometry relative="1" as="geometry">
            <mxPoint x="1220" y="-626" as="sourcePoint" />
          </mxGeometry>
        </mxCell>
        <mxCell id="D8rwGO-gOKSLSICI7qhx-7" style="edgeStyle=orthogonalEdgeStyle;rounded=0;orthogonalLoop=1;jettySize=auto;html=1;exitX=1;exitY=0.5;exitDx=0;exitDy=0;entryX=0;entryY=0.5;entryDx=0;entryDy=0;fontSize=20;" parent="1" source="D8rwGO-gOKSLSICI7qhx-12" target="D8rwGO-gOKSLSICI7qhx-33" edge="1">
          <mxGeometry relative="1" as="geometry" />
        </mxCell>
        <mxCell id="D8rwGO-gOKSLSICI7qhx-8" style="edgeStyle=orthogonalEdgeStyle;rounded=0;orthogonalLoop=1;jettySize=auto;html=1;exitX=1;exitY=0.5;exitDx=0;exitDy=0;entryX=0;entryY=0.5;entryDx=0;entryDy=0;" parent="1" source="D8rwGO-gOKSLSICI7qhx-12" target="D8rwGO-gOKSLSICI7qhx-37" edge="1">
          <mxGeometry relative="1" as="geometry" />
        </mxCell>
        <mxCell id="D8rwGO-gOKSLSICI7qhx-9" style="edgeStyle=orthogonalEdgeStyle;rounded=0;orthogonalLoop=1;jettySize=auto;html=1;exitX=1;exitY=0.5;exitDx=0;exitDy=0;entryX=0;entryY=0.5;entryDx=0;entryDy=0;fontSize=17;" parent="1" source="D8rwGO-gOKSLSICI7qhx-12" target="D8rwGO-gOKSLSICI7qhx-41" edge="1">
          <mxGeometry relative="1" as="geometry" />
        </mxCell>
        <mxCell id="D8rwGO-gOKSLSICI7qhx-12" value="交通道路&lt;br&gt;知识图谱可视化&lt;br&gt;大数据平台" style="rounded=1;whiteSpace=wrap;html=1;fontSize=15;fillColor=#FFE599;strokeColor=#005700;fontColor=#000000;fillStyle=auto;" parent="1" vertex="1">
          <mxGeometry x="900" y="-840" width="120" height="80" as="geometry" />
        </mxCell>
        <mxCell id="D8rwGO-gOKSLSICI7qhx-13" style="edgeStyle=orthogonalEdgeStyle;rounded=0;orthogonalLoop=1;jettySize=auto;html=1;exitX=1;exitY=0.5;exitDx=0;exitDy=0;entryX=0;entryY=0.5;entryDx=0;entryDy=0;" parent="1" source="D8rwGO-gOKSLSICI7qhx-15" target="D8rwGO-gOKSLSICI7qhx-20" edge="1">
          <mxGeometry relative="1" as="geometry" />
        </mxCell>
        <mxCell id="D8rwGO-gOKSLSICI7qhx-15" value="首页" style="rounded=1;whiteSpace=wrap;html=1;fontSize=15;fillColor=#d5e8d4;strokeColor=#82b366;" parent="1" vertex="1">
          <mxGeometry x="1070" y="-1040" width="120" height="40" as="geometry" />
        </mxCell>
        <mxCell id="D8rwGO-gOKSLSICI7qhx-16" value="登录与注册" style="rounded=1;whiteSpace=wrap;html=1;fontSize=15;fillColor=#d5e8d4;strokeColor=#82b366;" parent="1" vertex="1">
          <mxGeometry x="1070" y="-1100" width="120" height="40" as="geometry" />
        </mxCell>
        <mxCell id="D8rwGO-gOKSLSICI7qhx-17" style="edgeStyle=orthogonalEdgeStyle;rounded=0;orthogonalLoop=1;jettySize=auto;html=1;exitX=1;exitY=0.5;exitDx=0;exitDy=0;entryX=0;entryY=0.5;entryDx=0;entryDy=0;" parent="1" source="D8rwGO-gOKSLSICI7qhx-19" target="D8rwGO-gOKSLSICI7qhx-26" edge="1">
          <mxGeometry relative="1" as="geometry" />
        </mxCell>
        <mxCell id="D8rwGO-gOKSLSICI7qhx-18" style="edgeStyle=orthogonalEdgeStyle;rounded=0;orthogonalLoop=1;jettySize=auto;html=1;exitX=1;exitY=0.5;exitDx=0;exitDy=0;entryX=0;entryY=0.5;entryDx=0;entryDy=0;fontSize=15;" parent="1" source="D8rwGO-gOKSLSICI7qhx-19" target="D8rwGO-gOKSLSICI7qhx-38" edge="1">
          <mxGeometry relative="1" as="geometry" />
        </mxCell>
        <mxCell id="D8rwGO-gOKSLSICI7qhx-19" value="可视化" style="rounded=1;whiteSpace=wrap;html=1;fontSize=15;fillColor=#d5e8d4;strokeColor=#82b366;" parent="1" vertex="1">
          <mxGeometry x="1070" y="-820" width="120" height="40" as="geometry" />
        </mxCell>
        <mxCell id="D8rwGO-gOKSLSICI7qhx-20" value="方剂卡片" style="rounded=1;whiteSpace=wrap;html=1;fontSize=15;fillColor=#d5e8d4;strokeColor=#82b366;" parent="1" vertex="1">
          <mxGeometry x="1307.5" y="-1040" width="120" height="40" as="geometry" />
        </mxCell>
        <mxCell id="D8rwGO-gOKSLSICI7qhx-24" style="edgeStyle=orthogonalEdgeStyle;rounded=0;orthogonalLoop=1;jettySize=auto;html=1;exitX=1;exitY=0.5;exitDx=0;exitDy=0;entryX=0;entryY=0.5;entryDx=0;entryDy=0;" parent="1" source="D8rwGO-gOKSLSICI7qhx-26" target="D8rwGO-gOKSLSICI7qhx-31" edge="1">
          <mxGeometry relative="1" as="geometry" />
        </mxCell>
        <mxCell id="D8rwGO-gOKSLSICI7qhx-26" value="Echarts分析大屏" style="rounded=1;whiteSpace=wrap;html=1;fontSize=15;fillColor=#d5e8d4;strokeColor=#82b366;" parent="1" vertex="1">
          <mxGeometry x="1255" y="-860" width="120" height="40" as="geometry" />
        </mxCell>
        <mxCell id="D8rwGO-gOKSLSICI7qhx-27" value="" style="edgeStyle=orthogonalEdgeStyle;rounded=0;orthogonalLoop=1;jettySize=auto;html=1;entryX=0.5;entryY=1;entryDx=0;entryDy=0;" parent="1" source="D8rwGO-gOKSLSICI7qhx-28" target="D8rwGO-gOKSLSICI7qhx-20" edge="1">
          <mxGeometry relative="1" as="geometry">
            <mxPoint x="1260" y="-980" as="targetPoint" />
          </mxGeometry>
        </mxCell>
        <mxCell id="D8rwGO-gOKSLSICI7qhx-28" value="方剂搜索" style="rounded=1;whiteSpace=wrap;html=1;fontSize=15;fillColor=#d5e8d4;strokeColor=#82b366;" parent="1" vertex="1">
          <mxGeometry x="1070" y="-980" width="120" height="40" as="geometry" />
        </mxCell>
        <mxCell id="5hxXH1iy_aXLQU6aHfeA-16" style="edgeStyle=orthogonalEdgeStyle;rounded=0;orthogonalLoop=1;jettySize=auto;html=1;exitX=1;exitY=0.5;exitDx=0;exitDy=0;entryX=0;entryY=0.5;entryDx=0;entryDy=0;" parent="1" source="D8rwGO-gOKSLSICI7qhx-30" target="5hxXH1iy_aXLQU6aHfeA-15" edge="1">
          <mxGeometry relative="1" as="geometry" />
        </mxCell>
        <mxCell id="D8rwGO-gOKSLSICI7qhx-30" value="修改个人信息" style="rounded=1;whiteSpace=wrap;html=1;fontSize=15;fillColor=#d5e8d4;strokeColor=#82b366;" parent="1" vertex="1">
          <mxGeometry x="1250" y="-626" width="120" height="40" as="geometry" />
        </mxCell>
        <mxCell id="D8rwGO-gOKSLSICI7qhx-31" value="&amp;nbsp; &amp;nbsp; &amp;nbsp; &amp;nbsp; &amp;nbsp; &amp;nbsp;环形图、柱状图、饼图、折线图等" style="rounded=1;whiteSpace=wrap;html=1;fontSize=15;fillColor=#d5e8d4;strokeColor=#82b366;" parent="1" vertex="1">
          <mxGeometry x="1417.5" y="-862.5" width="192.5" height="42.5" as="geometry" />
        </mxCell>
        <mxCell id="5hxXH1iy_aXLQU6aHfeA-18" style="edgeStyle=orthogonalEdgeStyle;rounded=0;orthogonalLoop=1;jettySize=auto;html=1;exitX=1;exitY=0.5;exitDx=0;exitDy=0;entryX=0;entryY=0.5;entryDx=0;entryDy=0;" parent="1" source="D8rwGO-gOKSLSICI7qhx-33" target="5hxXH1iy_aXLQU6aHfeA-12" edge="1">
          <mxGeometry relative="1" as="geometry" />
        </mxCell>
        <mxCell id="D8rwGO-gOKSLSICI7qhx-33" value="设置" style="rounded=1;whiteSpace=wrap;html=1;fontSize=15;fillColor=#d5e8d4;strokeColor=#82b366;" parent="1" vertex="1">
          <mxGeometry x="1070" y="-626" width="120" height="40" as="geometry" />
        </mxCell>
        <mxCell id="D8rwGO-gOKSLSICI7qhx-35" value="&amp;nbsp; &amp;nbsp; &amp;nbsp; &amp;nbsp; &amp;nbsp;交互式的知识图谱" style="rounded=1;whiteSpace=wrap;html=1;fontSize=15;fillColor=#d5e8d4;strokeColor=#82b366;" parent="1" vertex="1">
          <mxGeometry x="1250" y="-707.5" width="180" height="40" as="geometry" />
        </mxCell>
        <mxCell id="D8rwGO-gOKSLSICI7qhx-36" style="edgeStyle=orthogonalEdgeStyle;rounded=0;orthogonalLoop=1;jettySize=auto;html=1;exitX=1;exitY=0.5;exitDx=0;exitDy=0;entryX=0;entryY=0.5;entryDx=0;entryDy=0;" parent="1" source="D8rwGO-gOKSLSICI7qhx-37" target="D8rwGO-gOKSLSICI7qhx-35" edge="1">
          <mxGeometry relative="1" as="geometry" />
        </mxCell>
        <mxCell id="D8rwGO-gOKSLSICI7qhx-37" value="&amp;nbsp;neo4j知识图谱" style="rounded=1;whiteSpace=wrap;html=1;fontSize=15;fillColor=#d5e8d4;strokeColor=#82b366;" parent="1" vertex="1">
          <mxGeometry x="1070" y="-707.5" width="120" height="40" as="geometry" />
        </mxCell>
        <mxCell id="D8rwGO-gOKSLSICI7qhx-38" value="&amp;nbsp; &amp;nbsp; &amp;nbsp; &amp;nbsp; &amp;nbsp; &amp;nbsp; &amp;nbsp; 中药关键词提取、临床关键词分析、中医养生关键词频分析" style="rounded=1;whiteSpace=wrap;html=1;fontSize=15;fillColor=#d5e8d4;strokeColor=#82b366;" parent="1" vertex="1">
          <mxGeometry x="1255" y="-790" width="315" height="40" as="geometry" />
        </mxCell>
        <mxCell id="D8rwGO-gOKSLSICI7qhx-40" style="edgeStyle=orthogonalEdgeStyle;rounded=0;orthogonalLoop=1;jettySize=auto;html=1;exitX=1;exitY=0.5;exitDx=0;exitDy=0;entryX=0;entryY=0.5;entryDx=0;entryDy=0;fontSize=17;" parent="1" source="D8rwGO-gOKSLSICI7qhx-41" target="D8rwGO-gOKSLSICI7qhx-43" edge="1">
          <mxGeometry relative="1" as="geometry" />
        </mxCell>
        <mxCell id="D8rwGO-gOKSLSICI7qhx-41" value="药材搜索" style="rounded=1;whiteSpace=wrap;html=1;fontSize=15;fillColor=#d5e8d4;strokeColor=#82b366;" parent="1" vertex="1">
          <mxGeometry x="1070" y="-920" width="120" height="40" as="geometry" />
        </mxCell>
        <mxCell id="D8rwGO-gOKSLSICI7qhx-42" style="edgeStyle=orthogonalEdgeStyle;rounded=0;orthogonalLoop=1;jettySize=auto;html=1;exitX=1;exitY=0.5;exitDx=0;exitDy=0;entryX=0;entryY=0.5;entryDx=0;entryDy=0;fontSize=17;" parent="1" source="D8rwGO-gOKSLSICI7qhx-43" target="D8rwGO-gOKSLSICI7qhx-44" edge="1">
          <mxGeometry relative="1" as="geometry" />
        </mxCell>
        <mxCell id="D8rwGO-gOKSLSICI7qhx-43" value="药材卡片" style="rounded=1;whiteSpace=wrap;html=1;fontSize=15;fillColor=#d5e8d4;strokeColor=#82b366;" parent="1" vertex="1">
          <mxGeometry x="1231.5" y="-920" width="120" height="40" as="geometry" />
        </mxCell>
        <mxCell id="D8rwGO-gOKSLSICI7qhx-44" value="详情" style="rounded=1;whiteSpace=wrap;html=1;fontSize=15;fillColor=#d5e8d4;strokeColor=#82b366;" parent="1" vertex="1">
          <mxGeometry x="1390" y="-920" width="120" height="40" as="geometry" />
        </mxCell>
        <mxCell id="5hxXH1iy_aXLQU6aHfeA-3" value="" style="shape=image;verticalLabelPosition=bottom;labelBackgroundColor=default;verticalAlign=top;aspect=fixed;imageAspect=0;image=data:image/png,iVBORw0KGgoAAAANSUhEUgAAAGQAAABkCAYAAABw4pVUAAABdWlDQ1BrQ0dDb2xvclNwYWNlRGlzcGxheVAzAAAokXWQvUvDUBTFT6tS0DqIDh0cMolD1NIKdnFoKxRFMFQFq1OafgltfCQpUnETVyn4H1jBWXCwiFRwcXAQRAcR3Zw6KbhoeN6XVNoi3sfl/Ticc7lcwBtQGSv2AijplpFMxKS11Lrke4OHnlOqZrKooiwK/v276/PR9d5PiFlNu3YQ2U9cl84ul3aeAlN//V3Vn8maGv3f1EGNGRbgkYmVbYsJ3iUeMWgp4qrgvMvHgtMunzuelWSc+JZY0gpqhrhJLKc79HwHl4plrbWD2N6f1VeXxRzqUcxhEyYYilBRgQQF4X/8044/ji1yV2BQLo8CLMpESRETssTz0KFhEjJxCEHqkLhz634PrfvJbW3vFZhtcM4v2tpCAzidoZPV29p4BBgaAG7qTDVUR+qh9uZywPsJMJgChu8os2HmwiF3e38M6Hvh/GMM8B0CdpXzryPO7RqFn4Er/QcXKWq8UwZBywAAADhlWElmTU0AKgAAAAgAAYdpAAQAAAABAAAAGgAAAAAAAqACAAQAAAABAAAAZKADAAQAAAABAAAAZAAAAAAMc/x7AAAZ5UlEQVR4Ae1dCXSURba+BJKwhCyEIDsMBJF9ibIJyCDzOCAoIIuCiKO+cWOOy3NURmZAERHccN+GJ4twkGeQ0bCMgqIIgUDYkSUEA8gmISRhTUKS933dXX//S3fn7043YebknlNd+3qrbt26df9qkUqoHIHKEagcgcoRqByByhGoHIHKEQj+CFQJfpHXRon5+fnxaMkQmNuqVKnSoqSkpAHcdWGyw8LCTsCfCfdyxC2Pjo4+A/c1Af9xCMnLy0vEyE6HuRODXbWsUS4tLb2CNMkwk2NiYg6WlT7U8f8xCMHARpw7d+4V2BOBiHB/Bw75ipDvndq1a0+CXehv/mClDxpCKpJEABEJIEHJGMg+5R2YK1eurK9WrdowkLHs8pYVSP5yI6SiSQSRgdmdis63DGQAPOW5fPnyUUywGxMTE3/zFB/KsIARci2QCLYBA7fa28rIPp0na7/bIVvS9svJ4zmSf+6iREfXkgYN6khSt+ulX/9OUjchxuP4njlzZucHH3zQe9asWec8JghRYEAIuVZIBJDxBsblSfPYFBYWyYK5q2XFV5ukqIh7tmeIiAiX227vLuMm3Cp0m2HHjh3L+vTpcxfCC8xxofL7jZBrhUS4SOXPWB2Gkcw9e15emvqZHNj3q+0xa31DE5n8wjiJiY0y5CkuLr7y2GOP3b9o0aKFiCgxRIbI4xdCriUSAYR8DmSM1o9LQUGR/PUvcyRjvxsZdX9XLK16FUkC7IhapVJ4oYqcPlRNMlKrSfYvbq6YSJn+6v2WlbJ///7Um2666THUs01fV6jcfiHkWiERaEc8JsdJIKSafmDmfLxS/pm83hEUhrHucsdladnDO8nKTA2Xrf+MlFLX3B8xuo/c98BAfZEC7q24d+/eD+3evftzRJw3RIbA454iZRSem5vbAknmYRAMeUgipjw/Tzas28PG+yyluLhE9v18RHZsOyTde94g1atHGNInJCS0OnbsWObOnTt3IaLUEKnzTJo0aQzaMUIXJKd/y5U3ZyVrbeg6rEBa9vSODOat06REImuWyol9TrxmZpyQ3w/oIrVqVdeKRj1hkZGRx5YvX06O66gWESJHmN1y0bAZMIYRJImYNsVIr0kieo67LLdPviAjZ5x32D3HFgjDFezfd1RemrJQuPnqoSrg8ccffxhhnfThZjdWxyBz2No1O7QNnOSpZU9j2eb0yp8Icqbaxvb8uHaHitLs7t27d4GnCYyh/1qCIDpsIYQkAnUaZiTb8Nm81Rq9JolIGnFZ+j9ySZp0uiLVo0uFYbSbdC5yhCcNL5AqrhqJlEULvrN0pVWrVt07d+6chIjalkhXAGRRiea49C0HtKDEMlaGltDlSNQhb8smdzkqXb169YgMkveGKixUti2EoPKhWB0Gek0SQbZSQZfbQSJ80Gum46xlOgUpyzaC1OQpr8PGYIf96U9/6gpPR0OEzgPSSEGhAXjOUJDQwjepUumUzRWl4MQJdzkqrGbNmnVc7kYqLFS2LYRUIImI9NJxrlgD8NCnIKKmctmzI6Pc29W5fHc5KjfmiCJVsSosVLYthFQgibCsBNdAnDUPCE/gCgqtY6qiPNoF593MZnSMFZuFhYWKu6rhsYAgBtpCyLVGIkA+T5nHgOIQBb/pzhcqzJd9+pCbcWzQ0LL45NKlS4quuhP6KrAccbYQgvItraxIEgES+rO5z5RNKchYFyGlbiqkgr3aB1MVRRK5UVeOypCdnX3U5Q65WN4uQiyi6FCSiIKCgnOuAfBIIrBCvlGDpWwKCpU86syRMDm00SBRUcksdsb6cMnOcg4D8/ftZ+Ultm7dutuV8bKlgCAH2EII9pAT5npDSSIuXryY66rPI4nAcWUVVomBlaLUloJCBTyBH9zgHSlcQUTG9q/dfMPtw3tapL+QZxXPnTtXHU4U6VLVBN22hRDsIZnmmkNJIs6ePXvcVZ+bR9Y1oFatWiewShbrghxOSm0pkyJQHLJ1WaR8935NObK9mlzKC5OSK1VgV5Ej26rJ9+/XkG06sckNbZvK3eP7O/LqfzIyMjYA1AQ5qY8LhdtwtvBRwXLEjdbHk0Qs/ux7x2lbkQg7p2M7JGLTpk1qRnolEUDIy5goY2Frk4okh1JbSgF48CSQHJ3Oqu441enbr3cTGc9PHSfh4cbhQPnFb731VoorLeVCFkqhLycYbq0zvgpDp5cHm0Rwz/VEItgOiLsVzc731i7cfe9Fm14zx1OE/vJrD8jwUb01JLiZWmNqInDkmL4yfdb9EhPjZptVqtTU1JSFCxeqDf0Iwi+puFDZ3tpqqQ/i7sVAzBh9BGU/z//lf7XZyLi6zUsksVchxN0Q3EHcXXBBIO6u6qDn2YfdW0JsbC35ZP7TEhlppfMHDx5M69ev3zsQ2fyEIrNYricAQsJB3lJxB55kjt++NVP+PulTR3C1alUlGgOen3/BcWPYsFG8JN3USm75vfcbQ3BWv3Tt2nUKhKrcqzh/VsKEfA/xByGJaJDlQigvFxdCOhKBNLZhwMAkmfjEMAkLszaDSHn99df/gBmqrRIgoAqQdBMmRl9U0hOmJUwLGIvc663Xl8qab7YiSuSOEb3kgYcGO9x2foDkY8OHD58G7krVvQf5dtrJW9401pHwUSIG43VEP2VOwmvShfPXCGVTZgmuPi1JROOmdeXQQTcpHvBfXWXik8M9IuX48eM/HDp0aGDfvn3jQM//jLLGwTTTl+nJzTbce9dMuXjBuQW98e4jktjKnhjq1KlTGRMmTHhTt5FTuPUtDPeQkINfCMEMjcDs+Q4k4mZPLaOgkOLrLWkH5ASVCjyQiPi60fLhu1/LypQ0rQhfSMGVcUZUVFQTrAr3JYWW07Nj/brdMvMlJxPWoGEd+ehTyxyyZOQGvmXLllUjRoxYjImnpI0kUWtgPHJ7lkKCEOAXQlgf79QhSkivXr26k78MoBFArF9I8beKGS8uktT1zsM8Wdm77+nvtQggogSs7aZXXnnli+TkZPfSBYOGTNzDQr6R6xtn5PP0MV7c4G5Og77feOHChW/j4+Otx1ov+fTBmO3y8MShjiC1Ula76L038qXP78t96WKBpG/O0JJ4OnkzEgpxhV999dWC2bNnp23fvl1JBhjFDXw/DFnvq0KmUI8GfiOEOalA9swzz/QeOnTo/Pbt2w/BydnvcgJFCia07N1zRDam7pWDB44Jr5Czs53MT0JCLK5wociAPYTQ6vpG0qhxXYfb/AOyG9GhQ4f2WVlZP7jiiAiyuLtg1GbuinJbmIgNgcyRCOmFPnSGXQ8rPhr2KUo00L5MuANW4vabZKEyPUSOHTt29JNPPvkIbvq6oUFuvlafyofbLvnidfHXy1JlWfJPkp9nT77OO/sx4/rJkDt6emSv2SwgZDOUGMZh3+A5w+tegb2zCybei2jvICCizH4iHdnlZBi/lLjLixDUJ2EwnbBSuj766KNJUJnpXL9+/Wa4ZYsNDw+vibsETKoLueDrD9eoUSOqcePGFjJXFlJ++mGXUKPkTLbXict2eAXKuR54aJDc3Ke9xzTnz5+f3bBhwyc9RYLTqwlRDQ+gDwMRfo8X+uaXErffFXhqtCssCjYHuymMx3KhwFx17dq1fwbJ6+bKo1mekHLrH7pKbFyUJC/5UUtHR3hMnMS26yDRrdtJRFwdCY92XuQV5edK4dkcydu3W/L37pLCXCWCQoMwljyVj5swwCOLjWKHo33L9BVByNm4qKhoFfK204cH4rarxO1x4AKpUJeHlwtUBmgEw5GiCJ3Hcd4lXIKqz/kff/xxWqNGjXi4MwDp/7uzl8nqf6UbwpUnPCZW6g8YLPFdb8IIc2H6AEgXc9LT5MTqFVKU79xjmLr3LR3k6edGW5CCCXEcg9YGjIpjGYJENQOJWosszWGCAnaUuEOBkDIbv2LFisgWLVr8C2TiFnNiTyuFaWLbdZSmo+6RsIhIcxaf/uKCAjmyZIHkYcUoGHX3LTL+vj8or95+E6vkKReZWo+V0VkfqdyhVOKuEISwY76Qsm7tTnl1xhLVf0m4uZ80HDQMiyKw5pZi5R1fsVROb3CSPpKvZyffJb16GykRwi9iQjSDPQX2RK0BLge5t1ArcZfJLZgbFSw/ZFTF06ZNawnOzEC6yE1Nf2EhxB5OhiembQdpMmJswMhge4mA2olt5NKJX6Ug+zdHF/ZCg3LwkG5SFYJHHZC0tgQyxiOPgSYGWUMz8ejRowd37dpFqTbZbQ0MrdFCr4IDnQ4DBzYXHTd8oLEMurmpPzlP2dwzEh+cKGHV/D7mWHpApETf0F5ytqZJSWGB8ABZs2Z1adOumTltWzMyOEmm/HWephTIDNR27HRboXS9o0A6DCoUKtvVaVwql6HBcjHXiUtyhT/vPiz9bu0k2I+0ejAJw3BMqP/JJ59wszRcehlmgZbjKjjA9yeh4wbxCw99SlmaTeAG7u+e4avpVSMjpcGAQVqSL4F81lkWXE0NzQpDCJAxwDwQPIHn5eECBUDW1sFNmROV0x9/Y3eUTeYPlxu4Otj381GfJV5tDc0KQwhGoat5JDZucJIqhse0xZHGSMbNyQPzo8yYNh20vJsggvEFV0mJW2MdKwwh2EPamAciU3dPEt3aEm1OHrA/unVbLW9mhtKn0IIMjhArcatDdANVafl3S1WSnzZIltYIlTXnjFs0EhmfoIKDbkfGuwWOO3ccktsHTrZVRwiUuONcFfMQnUV3Ra4QiloMkHPGLQUPr13bEBdMT3i0gbGzXfTVUOKuMIRgFCzsDTjTqwP+6JnqWhRsJW5PGpoVRrLQT2qwG8hWXHy0XPo12zEERfn5Elk3NGSrUCfbatwkQd7/x+O6YTc6J/3PP2TP7ixHIJW4m+JjJLtQlhK3Jw3NClsh2NSdI6/rXXy8m0wV5FiidSnL5yw8e0YroE4dd51aoM5xtTU0KwwhOLlSbGCAlokUEjvh3AE3C6zCgmXn792jFZXYmvupdwilEjc0NHe6atY0NCsMITghbzYPQ/deblY372e0VX2vbE5YDn8pTua8L1HQvccNyunRDpUSN/pfPH/+fIUQjb0M2h4CUUg8ejQERv9g2HVgb3n0prxmJ9xrIcb5EreJp3BL1wJkC8FuaAMdW6p08rTOyyXeZ9S5sYc7QRBcOel4biMv11ESL79at+FRwDdQiZsyKeoLKyXuI9vDbWloelPiPnDgwIaNGzc6G6LTGS43QlxPXEzH4GoPhnGgMfiql1QAoLke4SNxCTQbqkSH6FcJlA1kyZBhPWUhvu4lqni5FNOhi1AGFQwoKbgsJ1GmguEje1suqlSc3vamxJ0NJW5f4EOJu2TmzJnLXHkdXVXlBEyyMLh8iecNFET10tEwbnGmKt2DjXScBBZkMCkvfja5xCdEJ2/6Di+eGxTSxTuRw7ioKjrnpA4J9WIN35Owfl+glLj52gMR5AvKUuLGykjR6YAdRlnaHqJNY18VmONc5OkLhPczxwXq5xNKb8z8Qs6ft+qlJfTqKw0Hjwj4ToTIOLY8WbJT1zmax9X73N/ulp43u0Uo/rTbjoamj2efMrt06fKCTombS1bbQ/xGCDUXsTpSUUhLfzrhLS3J29L/WyfzP/0W9Nm5p/A7jXYdmsv2rQe1bNFt2kuz0ff6Tb5IprI+ny/5+9yc1ai7cIX7R49XuFp9oXDgnv7omDFjZuj2DrKSO/R1+bWHuMgUn9LziAx/75r5TfhrryyRbenugefM4vVqq+sbO+KoAkTI37tb9r4x3XGfQRF6WZJgclM56RuxZ6zUyJTqOG8LqYhdU/emiYoLlY0H0TKhUT9LpyWZg7qcndNV6tcKce0ZFv2lQO6afz2SLTOmLZJTJ3lgd0LHTi3k6UmjHao/DKEWysL5q+WLxT/iq1o3RxYRG4vbP6oBtZWIOvES4brfKAT3xEMfzxlkbRU35SidPXUXIc2aXycvvDxB6kA6EEogewtN+q+gUPili0yxOqrBfAej7R0MJNhGiIubsnwfEsiDYQ0axMuZM3lQ+XSKIUjTR4zqAzJCnSkrn7Hhpz0y56MVlmc4nF0o+5er7r8fuQ2KdnnyyYcrNNJ4Xf04eXHGH4Ua8sEGPn4G1jb13XffTVmwYMFRXflcGWthnEoDugg6/UFI0B4M40RVFUdF1ZCnnh2J78Nbm5pm9HIV8vuTZUvXO/R5jbGefTxnDLvzZqiS9tA4I77B+DY+5rlypdiRKQ6ikykv3SstWhrEap4LLCOUWpqZmZlb8bbW3jlz5mzXfWPCnOw29wyeSi2CVYQ5QI2L8nu0yVWBZAT9wbAYfNb26uyHpL7uFQaPDdAF8g6c16686TuYcUzO5kDZGuwygSshrk6UY//he1w89Hn6Omvzpv0yc/piKYTyAoHvY01+8R5p1765wx/oD9pWsnnz5lXjx49fcvLkSSoGEjj4h2H2waiDIJyewS5C7kP2T/VF8K754ftna29U8eklO1/h8tvxdHyuzIrJr38w5wlJqBfY/YS+Pf66+SbjC3+bL+qxGXJ2Tz83SnqadLX8LZfpwU1lPfvss48vXryYrB2vJK28PBN6ACvB9pAIq8OtquGKL89ds3oOiWTI04Nh/Kzs448/fhPiadLbkMD1NzSWGa89KPyii8DP8mZO/1y+XZVe7vri4uKav/322+/hvUZu2raRwYqr2qn9+eeffw7p3KJYeBbM/VbbZDsNLpKY+l7JoqWKqjjo/rrLyXFfKSqWAQO7GtJgQ7w8aNCguUuXLv2+W7dukXhArBk2e1ttNRRUhockk9qLWzYfcKwUcnIkZ5FYuUpfi+RwBT6/m//pN/IZnp6dj36vTNkMicJeyYXWSr3rYj2yz/j+JBoU7HY0YSHOHbaRYotkgcM6Bk7IgJD77p4pOTnnHF3mc358Oc4u8DWFr6c7vwsn2zl30TOGrNA4vwil5wcRyEuRfUDK7/HO4uAePXoMwKcBFGLaBnwKkYNvB7/Hqjt75513ToDY3yL3IKc4Fe9GHso8oZU7eGh3qRZeVVZ+naaRZS1S5yDZtfH2793IYmFxdcVoTrsIKQBCIrRccIwYMkU4uwkjX74A7UL7CClBti8mRTnyknYnp0x1uNUPZlZxbGzsePgpUlgOw0HsGBER0Qon3aYDBw5s26ZNm9YgDfUgOY7GI5W8ZQoDIi/j+0d+i3Ls8OHDWSkpKbvmzZuXhRXnaBxWevunAPhuxSIV5EHxpakLZffOX1CU/+Dt7V/0pRST6VG8kv0JSnUOmI/i7SLEukLGzhKlJVKeFUIa/ulCywq5jBVyP9pNNogyMwUU+1JK0Aqmpgq0aRO5h9asWdOgY8eOS4FECyfBfeTVl5eIXj+MZVNttDxv//KbezxC8DCK2sbyfIGtTR30272WXaWF+DWgM65qzKIdHqbIy38FsxKGO/ARGG7+F2E4A2lIHigC4HRnmhQYrrS9t95663dQcr4Z9zG8ozEAV2u9+rFaGHetYDzsiU8vkkBuu6Ngd+FaLUaHLYRg2WUas6Ghuoe+gv1gGHh4DjLBm0YBSRB5+gMw62H+BfNPmCUu8yXsVTAbYZjGudnBQejfv/8e9Ok1p8/9S1aee4aCID7sWXXixIlESHtVtjfbFkKQmbPLAKG8awZXopa2be7E0DgbHvybTpI5WXlY+bLe/sWexzugxjCW/UvfDlsIwYYe9NeA2AhPrwFxQ//www+3uxrJVRASQD1dzAWHWG20Oerjnt3EXK/ebwsh+MyLND1Zn5HuED0YlrZnz57zrrqOmesMlh+TLMFcVijf/sUXyM4TqIilXn07zJumPs7snoyD0wh0hCyoA8iDe3owLNC7ZkpIp06dyn2AwH2CYoeQAPpSG30xlB3Khz1xUKzhqizOUKnJY2uFMA//wQwdeMeU3/GfG3wwLBh3zenp6avw6P0pVx1HYBea6wuiP9tcVigf9sRkc0oyy9hD/FkhgndOnsvJybkRB6u++s6QXeTfPNw2tEeZrwF5u2sGZ7V/5MiRanVQDrNTX0ew3WTlsUoM0gey8upsFQK1UZJ9gkZhnF7jr18IwQopwp36SG+vAVFqe+fovg5jrMa3D+L9U6NHj35Dd6NGVlXtI74zBxhLVh79MXBaZOWVHi9Z+SYdr0CdyV4FZb39a4OVd1Rkm2SpZvE1IMi2kk6fPq04IRUVkA0Z04Fhw4ZN0d01n0ZBOwIqzL9M1yQr7zdC2Gd8QXr6o48+6ss/zeJG7N84OFMzX1paWkpSUtI0CP8o1iDwALcOxr7omLkCAKyOa5KVt7kgvfY4cty4caOeeOKJR+2+BsRzRkZGRhq5Kd0Gzgq4Mn6CsSUVZYbyAlZ6UB/2pKYiXzjlnqoH1/9YKYYoFXFZ+ni9u7wIYVlcZV5fA6Iond9BgIYexvXm9vfee2+b7pzB/FwN3DNIpkK+MlCHBt4UNwJ52FOpjZqfmyUluOeee/7imnxk5ZfCeOUeg4EQ1cEoODrCNIWxUy4bR9aW3FRIN3CU7xXAULyOyKfMCfx52JMSBz4laF4ZLJNkecCAAYtc5R+GvcHl9mjZGTiPGX0ERiCO7GQjmFgYHojI6pEPp2yK4hCewHno8zpTEHdVAKxvOFj51WZWXlVeHrVRsvK4XJvu4h65+slI+Jx8oUCI6su/jR2Mhz3NnSUrP2TIkL/ruMd9SKOEpubkmj8gLkvL/R/iuJZY+aArDvy74uidd965iKdvF0FE1AaPrCXiJO/3ZOUGDhZ+BS7B3v/ll18Ut0hW/nsYW8eDSpJlnUEVyspXIsSKEIZUGCtfiRDPCFGhV52Vr0SIGnrf9r8VK++7K5WxlSNQOQKVI1A5ApUjUDkClSNQOQKVI1DhI/D/kNHoCzKRygEAAAAASUVORK5CYII=;" parent="1" vertex="1">
          <mxGeometry x="1262.5" y="-703.25" width="31.5" height="31.5" as="geometry" />
        </mxCell>
        <mxCell id="5hxXH1iy_aXLQU6aHfeA-7" value="" style="shape=image;verticalLabelPosition=bottom;labelBackgroundColor=default;verticalAlign=top;aspect=fixed;imageAspect=0;image=data:image/png,iVBORw0KGgoAAAANSUhEUgAAAGQAAABkCAYAAABw4pVUAAABdWlDQ1BrQ0dDb2xvclNwYWNlRGlzcGxheVAzAAAokXWQvUvDUBTFT6tS0DqIDh0cMolD1NIKdnFoKxRFMFQFq1OafgltfCQpUnETVyn4H1jBWXCwiFRwcXAQRAcR3Zw6KbhoeN6XVNoi3sfl/Ticc7lcwBtQGSv2AijplpFMxKS11Lrke4OHnlOqZrKooiwK/v276/PR9d5PiFlNu3YQ2U9cl84ul3aeAlN//V3Vn8maGv3f1EGNGRbgkYmVbYsJ3iUeMWgp4qrgvMvHgtMunzuelWSc+JZY0gpqhrhJLKc79HwHl4plrbWD2N6f1VeXxRzqUcxhEyYYilBRgQQF4X/8044/ji1yV2BQLo8CLMpESRETssTz0KFhEjJxCEHqkLhz634PrfvJbW3vFZhtcM4v2tpCAzidoZPV29p4BBgaAG7qTDVUR+qh9uZywPsJMJgChu8os2HmwiF3e38M6Hvh/GMM8B0CdpXzryPO7RqFn4Er/QcXKWq8UwZBywAAADhlWElmTU0AKgAAAAgAAYdpAAQAAAABAAAAGgAAAAAAAqACAAQAAAABAAAAZKADAAQAAAABAAAAZAAAAAAMc/x7AAAPo0lEQVR4Ae1dCXgURRZ+SUhCXMglhkvOAOuCIHKjIIqCyCUgt1ziCgl3UHTjEtlwiYIKbLgFF4JGUbkFjVyeIHJEVO4jIAk3JgEC5Nz/zUz39DUznUmHDLHr+zpdx6tXr99f9ep1VaeGyAymBkwNmBowNWBqwNSAqQFTA6YGSrwGvEryE16/fv2h3Nzcnl5eXu3y8/Or4lnL4bqK9Bnct3p7e39cpkyZXzxJByUSkPT09FoA4G0ovLszZYMmH+B8AdBGh4SEJDujvVNlJQ4QgPEMlJwABQbpVSJwyUCdAYGBgRv01ikqOu+iYlwcfBkMtMtK1Q0GywkwAvPy8j4/duxYT04XZ/ApzsaNbJvNFBSbiCvAHb6o5+Pv7985ODh4K0KKOzyMqFNiTFZaWtpqrTkjPf0Gfbh8K+3ZfYTS/rxOIaFlqFGTOtSzz2NUvkKISoenT5/eW79+/WdRUCyglIgRwt4U5oHZ6OWyDnYg6QRNfO0D+v3XU5SZeZvy8vIp88ZtOnEslbZ8tZdq16lMFSqGykAJCgqqeP78+dSkpKQDKMiWFd6BhCFzCCsEJmNKRkbGLtxTcWXhOof0blzTuLwon8Xm2srAyEjPpFkzPqX0tOuaTd+8mYXyVapyBrVPHwwfosaaFYs4s1CAQOm12FRgQkzCc0yErM1xr4jLF1cFpJvieh0K2w9g1oG2RlE8D9pqp+S7cvkWi4ni/PIhXjQ70pu+fsuH5o70pgq2QcGgJazcrqxKdevWbQSPi99bglWFRZzhNiAAg93LPVp2Wykz6Lj3dsWNgemiLC9sGuaKlScLe38+Iqaj+3rRQ+FeVAoGun4NL3q1j/2xd+86LNIJEbyTVNmxY8foSpUq1RTy7tTdLlkBWmQwQO6OexnE7uWhQ4d6FKA5PaT3KYn+xAQuhHrVZNaMHqxuT1+9cs0ytwi0wr1WrVrNEhMT527atMlfyLsT9wIDwmYKPT0Bl1sOAUaUb1hY2MqpU6c2M+IBbSNOJUtISBmR/cEz+WKcI7+dsqfRQShu9lpNUKpWrfpozZo1v7qToNi7ikxkxwmD3Us2X+cct+a8BLI0AsDfgupvSsoxEXGUfOq8JTsI2Ewa6G0ZGQzGjI/z6GKavMZTTzemUeO6kbe3WiWpqanfnDx58umOHTveltdSp65du9YGJnQkrlYoLYeOewHXt0gvxLz0nbqGPEfdurxclrIt1u1HA7J67F7OfFPbowkI8KPoN/pTw0a1ZLwgYH5kZGTURx99tAQFmbJCHYnMzMwq2dnZuyBKJSX5pg0/0cI416sg/v6+dPu23bN9qn0jGhXV3S1Q8DilAcZcyPKSUh5O8/PiNh+gjIHMeVo0nFcgk2W0ezlo0KC2kKGJI+Ec5V+5ciUwJydnoxYY+/YcoyULvhCr+vqqrJmlLBgmLWbyQHqms91ybkncR3HvrdE0X5jg2zgyX+gc9wMMHqmaYHCDkJXDyJSUlPctAjj4UyBAwNBQ9zI8PPwByFUZV6AD+VTZ6Gil/Pz8VqGggbLwdPIFenv6J5Sba+2A4bUr0cKl46ljl+ZU7r4gKgVw+M7puEVjqEHDmhQxqkuBQGncuPEpzKMpuHIwf13FtRsjdS9kYRffZShbtuyQuXPnMnAyKyNU1MwUCpV3CJEKUCpK818cOJMuXUy3ZLGvz+6lEPafyKfxC6zKYUUsWzlBKLLcMaHmbt68OQEj5R08VJKs0EECCliEomHK4qtXMmjCuEWiLGHlg2nWnAjikeAqsDVhE7d5426R1Jn5EoncjBw5cmRn06ZNx6D6HiWLAo0QVHbbvUxPu6FsG7ba26dTp04DDh48uAhDPkxFoMgAGIyoCoxbt7Jocky8CEbAPf40MXaALjC4CXSyAo0UhViqZFZWNs2bs456doml+A++VpVXqVLl78isjUulT92AQBnsEanope7loT/s7iRLIXUvfXy8iRWnFcqXL98sKyvrd3hNKpMo0AOwnujJM4S0cGe3lZdATp6wOmul8PYXHdOPqtfghQL9wShQLl9Kp+iX36evNv1MDMz6tT+qhIDJLWvLrKMsVClYScBp7plQxloIraJ/uBEDbQ2vL8sjNlPZuUT7j1vdS6GMwRg3Yp5lYU/Ik959fX3ZRfzy0qVL76AtX2kZTGULOBQrtNrnCXz3Tvvb9rARnVQenZSXs3hhQfn912QaP3oBHTuaIjbTsXNzMS5E0Pmu2eKqEWI3+AK15A7F+KBnLkbWUEm2GOWl7ckT4yHAWTHPVYQn1sEvtKeuPR6xmAoteswnhwAQC81oh0AO3mpVybr28x9o2eLNIos+/Z+g5wc/KabdjaA5zTll4ND2lBC/TXMpP2nfcVo0fyPlcG9EYIswYMhT9Fzvx1Ri2OaQ/6KAidlBEYPqIcUSRNAzF0APEdI8Ic4ezdRJK+nC+T+FLM07T6rsWq5f/SPduHFLpOH3knETnqPQUGH0ikW6Ij//dISm/edDuKhWp6FVm/o0Ibq3Q5B1MZUQ8VI9v8HzMr0QlO8tQj6byZwcKxCcx8/82r/7Ur361QUS8c6dKzY2dvK7777Li203ca0VCxHRdtJRgJHxGOrGafVM9vVjJ64QV1O58/bo1ZpqhFckXkPKys6h0HsD6fEnG0KwftSkWR1q80QDOnrkLLGN5XD+3FXavvUXqlY9jCpVvteSp/cP72fExqwQe2PdB6vh5bMfsWKMCvxMTZs/QJcvZ4jzk+BOK9tg8ITAeyxT3xpKjuYw7LMkDh8+fKuNPhX3P4S6fHc4QjA6PoFQvaXEHN+wdictXbRZ7JmlS/vRy//qRc1b/kNJqkrzA61K2EEff7id8m0PwQ/eqWsLGvpSB8t7gqqSIuPihTR6ZexCsTPwrt+suREUFKRaPVHUdC/Jyh4bOY9OJ1uXYXgpn1eP62GB8hDWyKYn5NH5q1beVaqF0XtxkeTnJ5sCxYYPHDiwrW3btksxhwgIbkHhJZEAEdUkLSnktRhZYHvNk6hgJlgZM+cM1wUGM2K72m9AW5ry5hDLCOI8ttcb1+2kV6MWU2rKFc5yGG5i14/NJG/FcigbeA/FThtcZGBwG7y2lZnJlsUanC3ls3xaYMAhyV2/fv3/WrVq9b4EjKPgKAODWyhlbUbzr8qObP7C/uJU78Hq9C+YCXd6ZoOG4TRnwUiaM2u1ZYLk1o8fS6GokfMoYnRX7HnXVu2DN4Q3l3L2krhgyM7BaxP7UqX7y8mEZ79/9affiW/rskIHCe4obHIHvtBOk0LvUr7WuxY6b/706dOnzZw50+4KEp1AQ/u0GnNmslJgTmQLd/yw6zA5t233MA2L7KTLxGg1KuTx6ODJfvkHieJ8wGX+/n5Y9NN+Z+FyNnNsJh97XLV6Qj06T5LxYno9gQFevTFWk1S6GsE7jrzJJQR278cvtDoW94UF09L4V4Qiy/3mzZvpeM+KtGUy4X5cPDo0gzOT9Z2yBvegzzZMohFjuhYaDObNin32uUdp5nvDZRO7MzC4Xs/erTXB4DLB7eR4QYKzevyVihB4znD0rtW0Ob+AywOcI8Es8byxHZdDMLimQ5MFZc1DD+6Nu707cI0iCLwIOHv+SIoatYBS/rDKr5w8+aXzus2U34Ct1hO2t/J3SfbE96558SdD327/hfjDCJ7AhfU5KXN2dfsPfFKaZYkfPXr0N1smN3RRRaDIcDhCbJsp8xX0RZZkby1LYqaUk+fkIXZRtfbBi0wwMGbnJfqN5ykoWHuhksGYEN2HAoPukYmBDp2fkJCw05Zp9URkFOqE/SnVZcSbKXB/lzJjjWLDswozeRoujIJhw0bhNG/xGIdL+fUfqqGoQZScnLw3Pj5eeM+4oCLQyHBospgW1oonoX9is/9iixYtojXqG5rFC5XCUj4vVEonT+lCJffI4gg8Anj/hC9XAe5tZlRU1AoJ3RlJ3GHU6QgRagEMmbcl5Bt9L8zkabQsheWH7e7L2MwSfPKz4KfYxdduwekIkVRpLYlbop8mfEPr1vxAebn6rZm3D7yq7o9Sr35tlOws6cJMnpoMizEzNDS0akxMzBvdunVLxBc2vbARp0saXSMEU0gVJTde/uAv/67D9dF7MT3XcxTcnTwd8fOEfHy43X7JkiVz9MqiCxDMJarFmWwsILoTXNVzZ/J0R447WQfO0ZC4uLhhaNPlK4Rek+VU/vVTXOPaNcb6NuuUka2wIJOnHn6eQNOyZcsXIAcvl6j20aXyGQJI2QCXwEvbvGviRq6LVa5cmb+w4Q23M7gcviC67tp3jfqMF3TN598XaJGSJeAtBq6nDKVLlw605TEoDoMJiEPVGLsuhi9sBF2r9tGlIhhisqQMS2q84XTXjlLS62P1PH5pZ0QCas5ozDJjNeB0wjUBMVbZheZmAlJoFRrLwATEWH0WmpsJSKFVaCwDExBj9Vlobh7h9i5fmkhrPvte/LxIz1OxW9+9Zysa/GJ7PeR3DY1HjBDLMr7tk1C9muNvw7heSQseAYizLz6cKdzdes54FneZR5gsqRJ6v+36W4BVrxbPFq5UzqKKe8QIKaqHuxv5moB4GGomICYgHqYBDxPHHCEmIB6mAQ8TxxwhJiAepgEPE8ccISYgHqYBDxPHHCEmIB6mAQ8TxxwhJiAepgEPE8ccISYgHqYBDxPHHCEmIB6mAQ8TxxwhJiAepgEPE8fpCME5HW343CwPk/muFSciIqKmK+E1AcF/3Zbi83Fx34F/+FQdYuaKqVmurYEZM2ZM2bZt2yDo1eG/JGgCAjD4gEb+r1EzGKgBfG3p1aRJkw443D/OEVsVIGymMCo0D750xMTML5gG8OuikdOmTeuvVUsFCIbTSC1CM884DaDDe3Xo0IH1/LCSq8qWYRI/B3rZsdDu/HuwsqG/atrR8YH4RYW0ChUqjIBevsQlnrWrGiEotP1kll2FfFy2oyNS7VRmTEsDrDet48bxI5bC97Cy41y1ALmsZNy12yOWE0WV+WbatQZ4hLD+lOHWrVsZtjzZjxBomSz+fam+SgZm2lgNHD58+IdmzZrNA1c+c0R819MaIXMwses/c8lYOf8y3PBTT8LvWNySPrQKEPz06C4QLJASmXFjNbBv377E2bNnC6eTys49UQHCTeM4obF4H1lmrBgmN9YAg4EfsYmXaOO4JO78/Cag+GLr1q2H4gexHggICAiWnNch5WHGnWgA/3qXh8OU0/BjYIdWrFjxNX5/ShgZXIvj9p9fQEI1qTOVJHB5Y1xOT7CR0JtR/RpgMPj8LNl87QoQgT2fYMOg8D0Al956IDWDTQOseD4Kmk+KZjBUrxfIM4OpAVMDpgZMDZgaMDVgasDUgKmBv4IG/g+7FFWgg5nEzgAAAABJRU5ErkJggg==;" parent="1" vertex="1">
          <mxGeometry x="1427.5" y="-860" width="30" height="30" as="geometry" />
        </mxCell>
        <mxCell id="5hxXH1iy_aXLQU6aHfeA-11" value="" style="shape=image;verticalLabelPosition=bottom;labelBackgroundColor=default;verticalAlign=top;aspect=fixed;imageAspect=0;image=data:image/png,iVBORw0KGgoAAAANSUhEUgAAAGQAAABkCAYAAABw4pVUAAABdWlDQ1BrQ0dDb2xvclNwYWNlRGlzcGxheVAzAAAokXWQvUvDUBTFT6tS0DqIDh0cMolD1NIKdnFoKxRFMFQFq1OafgltfCQpUnETVyn4H1jBWXCwiFRwcXAQRAcR3Zw6KbhoeN6XVNoi3sfl/Ticc7lcwBtQGSv2AijplpFMxKS11Lrke4OHnlOqZrKooiwK/v276/PR9d5PiFlNu3YQ2U9cl84ul3aeAlN//V3Vn8maGv3f1EGNGRbgkYmVbYsJ3iUeMWgp4qrgvMvHgtMunzuelWSc+JZY0gpqhrhJLKc79HwHl4plrbWD2N6f1VeXxRzqUcxhEyYYilBRgQQF4X/8044/ji1yV2BQLo8CLMpESRETssTz0KFhEjJxCEHqkLhz634PrfvJbW3vFZhtcM4v2tpCAzidoZPV29p4BBgaAG7qTDVUR+qh9uZywPsJMJgChu8os2HmwiF3e38M6Hvh/GMM8B0CdpXzryPO7RqFn4Er/QcXKWq8UwZBywAAADhlWElmTU0AKgAAAAgAAYdpAAQAAAABAAAAGgAAAAAAAqACAAQAAAABAAAAZKADAAQAAAABAAAAZAAAAAAMc/x7AAAPo0lEQVR4Ae1dCXgURRZ+SUhCXMglhkvOAOuCIHKjIIqCyCUgt1ziCgl3UHTjEtlwiYIKbLgFF4JGUbkFjVyeIHJEVO4jIAk3JgEC5Nz/zUz39DUznUmHDLHr+zpdx6tXr99f9ep1VaeGyAymBkwNmBowNWBqwNSAqQFTA6YGSrwGvEryE16/fv2h3Nzcnl5eXu3y8/Or4lnL4bqK9Bnct3p7e39cpkyZXzxJByUSkPT09FoA4G0ovLszZYMmH+B8AdBGh4SEJDujvVNlJQ4QgPEMlJwABQbpVSJwyUCdAYGBgRv01ikqOu+iYlwcfBkMtMtK1Q0GywkwAvPy8j4/duxYT04XZ/ApzsaNbJvNFBSbiCvAHb6o5+Pv7985ODh4K0KKOzyMqFNiTFZaWtpqrTkjPf0Gfbh8K+3ZfYTS/rxOIaFlqFGTOtSzz2NUvkKISoenT5/eW79+/WdRUCyglIgRwt4U5oHZ6OWyDnYg6QRNfO0D+v3XU5SZeZvy8vIp88ZtOnEslbZ8tZdq16lMFSqGykAJCgqqeP78+dSkpKQDKMiWFd6BhCFzCCsEJmNKRkbGLtxTcWXhOof0blzTuLwon8Xm2srAyEjPpFkzPqX0tOuaTd+8mYXyVapyBrVPHwwfosaaFYs4s1CAQOm12FRgQkzCc0yErM1xr4jLF1cFpJvieh0K2w9g1oG2RlE8D9pqp+S7cvkWi4ni/PIhXjQ70pu+fsuH5o70pgq2QcGgJazcrqxKdevWbQSPi99bglWFRZzhNiAAg93LPVp2Wykz6Lj3dsWNgemiLC9sGuaKlScLe38+Iqaj+3rRQ+FeVAoGun4NL3q1j/2xd+86LNIJEbyTVNmxY8foSpUq1RTy7tTdLlkBWmQwQO6OexnE7uWhQ4d6FKA5PaT3KYn+xAQuhHrVZNaMHqxuT1+9cs0ytwi0wr1WrVrNEhMT527atMlfyLsT9wIDwmYKPT0Bl1sOAUaUb1hY2MqpU6c2M+IBbSNOJUtISBmR/cEz+WKcI7+dsqfRQShu9lpNUKpWrfpozZo1v7qToNi7ikxkxwmD3Us2X+cct+a8BLI0AsDfgupvSsoxEXGUfOq8JTsI2Ewa6G0ZGQzGjI/z6GKavMZTTzemUeO6kbe3WiWpqanfnDx58umOHTveltdSp65du9YGJnQkrlYoLYeOewHXt0gvxLz0nbqGPEfdurxclrIt1u1HA7J67F7OfFPbowkI8KPoN/pTw0a1ZLwgYH5kZGTURx99tAQFmbJCHYnMzMwq2dnZuyBKJSX5pg0/0cI416sg/v6+dPu23bN9qn0jGhXV3S1Q8DilAcZcyPKSUh5O8/PiNh+gjIHMeVo0nFcgk2W0ezlo0KC2kKGJI+Ec5V+5ciUwJydnoxYY+/YcoyULvhCr+vqqrJmlLBgmLWbyQHqms91ybkncR3HvrdE0X5jg2zgyX+gc9wMMHqmaYHCDkJXDyJSUlPctAjj4UyBAwNBQ9zI8PPwByFUZV6AD+VTZ6Gil/Pz8VqGggbLwdPIFenv6J5Sba+2A4bUr0cKl46ljl+ZU7r4gKgVw+M7puEVjqEHDmhQxqkuBQGncuPEpzKMpuHIwf13FtRsjdS9kYRffZShbtuyQuXPnMnAyKyNU1MwUCpV3CJEKUCpK818cOJMuXUy3ZLGvz+6lEPafyKfxC6zKYUUsWzlBKLLcMaHmbt68OQEj5R08VJKs0EECCliEomHK4qtXMmjCuEWiLGHlg2nWnAjikeAqsDVhE7d5426R1Jn5EoncjBw5cmRn06ZNx6D6HiWLAo0QVHbbvUxPu6FsG7ba26dTp04DDh48uAhDPkxFoMgAGIyoCoxbt7Jocky8CEbAPf40MXaALjC4CXSyAo0UhViqZFZWNs2bs456doml+A++VpVXqVLl78isjUulT92AQBnsEanope7loT/s7iRLIXUvfXy8iRWnFcqXL98sKyvrd3hNKpMo0AOwnujJM4S0cGe3lZdATp6wOmul8PYXHdOPqtfghQL9wShQLl9Kp+iX36evNv1MDMz6tT+qhIDJLWvLrKMsVClYScBp7plQxloIraJ/uBEDbQ2vL8sjNlPZuUT7j1vdS6GMwRg3Yp5lYU/Ik959fX3ZRfzy0qVL76AtX2kZTGULOBQrtNrnCXz3Tvvb9rARnVQenZSXs3hhQfn912QaP3oBHTuaIjbTsXNzMS5E0Pmu2eKqEWI3+AK15A7F+KBnLkbWUEm2GOWl7ckT4yHAWTHPVYQn1sEvtKeuPR6xmAoteswnhwAQC81oh0AO3mpVybr28x9o2eLNIos+/Z+g5wc/KabdjaA5zTll4ND2lBC/TXMpP2nfcVo0fyPlcG9EYIswYMhT9Fzvx1Ri2OaQ/6KAidlBEYPqIcUSRNAzF0APEdI8Ic4ezdRJK+nC+T+FLM07T6rsWq5f/SPduHFLpOH3knETnqPQUGH0ikW6Ij//dISm/edDuKhWp6FVm/o0Ibq3Q5B1MZUQ8VI9v8HzMr0QlO8tQj6byZwcKxCcx8/82r/7Ur361QUS8c6dKzY2dvK7777Li203ca0VCxHRdtJRgJHxGOrGafVM9vVjJ64QV1O58/bo1ZpqhFckXkPKys6h0HsD6fEnG0KwftSkWR1q80QDOnrkLLGN5XD+3FXavvUXqlY9jCpVvteSp/cP72fExqwQe2PdB6vh5bMfsWKMCvxMTZs/QJcvZ4jzk+BOK9tg8ITAeyxT3xpKjuYw7LMkDh8+fKuNPhX3P4S6fHc4QjA6PoFQvaXEHN+wdictXbRZ7JmlS/vRy//qRc1b/kNJqkrzA61K2EEff7id8m0PwQ/eqWsLGvpSB8t7gqqSIuPihTR6ZexCsTPwrt+suREUFKRaPVHUdC/Jyh4bOY9OJ1uXYXgpn1eP62GB8hDWyKYn5NH5q1beVaqF0XtxkeTnJ5sCxYYPHDiwrW3btksxhwgIbkHhJZEAEdUkLSnktRhZYHvNk6hgJlgZM+cM1wUGM2K72m9AW5ry5hDLCOI8ttcb1+2kV6MWU2rKFc5yGG5i14/NJG/FcigbeA/FThtcZGBwG7y2lZnJlsUanC3ls3xaYMAhyV2/fv3/WrVq9b4EjKPgKAODWyhlbUbzr8qObP7C/uJU78Hq9C+YCXd6ZoOG4TRnwUiaM2u1ZYLk1o8fS6GokfMoYnRX7HnXVu2DN4Q3l3L2krhgyM7BaxP7UqX7y8mEZ79/9affiW/rskIHCe4obHIHvtBOk0LvUr7WuxY6b/706dOnzZw50+4KEp1AQ/u0GnNmslJgTmQLd/yw6zA5t233MA2L7KTLxGg1KuTx6ODJfvkHieJ8wGX+/n5Y9NN+Z+FyNnNsJh97XLV6Qj06T5LxYno9gQFevTFWk1S6GsE7jrzJJQR278cvtDoW94UF09L4V4Qiy/3mzZvpeM+KtGUy4X5cPDo0gzOT9Z2yBvegzzZMohFjuhYaDObNin32uUdp5nvDZRO7MzC4Xs/erTXB4DLB7eR4QYKzevyVihB4znD0rtW0Ob+AywOcI8Es8byxHZdDMLimQ5MFZc1DD+6Nu707cI0iCLwIOHv+SIoatYBS/rDKr5w8+aXzus2U34Ct1hO2t/J3SfbE96558SdD327/hfjDCJ7AhfU5KXN2dfsPfFKaZYkfPXr0N1smN3RRRaDIcDhCbJsp8xX0RZZkby1LYqaUk+fkIXZRtfbBi0wwMGbnJfqN5ykoWHuhksGYEN2HAoPukYmBDp2fkJCw05Zp9URkFOqE/SnVZcSbKXB/lzJjjWLDswozeRoujIJhw0bhNG/xGIdL+fUfqqGoQZScnLw3Pj5eeM+4oCLQyHBospgW1oonoX9is/9iixYtojXqG5rFC5XCUj4vVEonT+lCJffI4gg8Anj/hC9XAe5tZlRU1AoJ3RlJ3GHU6QgRagEMmbcl5Bt9L8zkabQsheWH7e7L2MwSfPKz4KfYxdduwekIkVRpLYlbop8mfEPr1vxAebn6rZm3D7yq7o9Sr35tlOws6cJMnpoMizEzNDS0akxMzBvdunVLxBc2vbARp0saXSMEU0gVJTde/uAv/67D9dF7MT3XcxTcnTwd8fOEfHy43X7JkiVz9MqiCxDMJarFmWwsILoTXNVzZ/J0R447WQfO0ZC4uLhhaNPlK4Rek+VU/vVTXOPaNcb6NuuUka2wIJOnHn6eQNOyZcsXIAcvl6j20aXyGQJI2QCXwEvbvGviRq6LVa5cmb+w4Q23M7gcviC67tp3jfqMF3TN598XaJGSJeAtBq6nDKVLlw605TEoDoMJiEPVGLsuhi9sBF2r9tGlIhhisqQMS2q84XTXjlLS62P1PH5pZ0QCas5ozDJjNeB0wjUBMVbZheZmAlJoFRrLwATEWH0WmpsJSKFVaCwDExBj9Vlobh7h9i5fmkhrPvte/LxIz1OxW9+9Zysa/GJ7PeR3DY1HjBDLMr7tk1C9muNvw7heSQseAYizLz6cKdzdes54FneZR5gsqRJ6v+36W4BVrxbPFq5UzqKKe8QIKaqHuxv5moB4GGomICYgHqYBDxPHHCEmIB6mAQ8TxxwhJiAepgEPE8ccISYgHqYBDxPHHCEmIB6mAQ8TxxwhJiAepgEPE8ccISYgHqYBDxPHHCEmIB6mAQ8TxxwhJiAepgEPE8fpCME5HW343CwPk/muFSciIqKmK+E1AcF/3Zbi83Fx34F/+FQdYuaKqVmurYEZM2ZM2bZt2yDo1eG/JGgCAjD4gEb+r1EzGKgBfG3p1aRJkw443D/OEVsVIGymMCo0D750xMTML5gG8OuikdOmTeuvVUsFCIbTSC1CM884DaDDe3Xo0IH1/LCSq8qWYRI/B3rZsdDu/HuwsqG/atrR8YH4RYW0ChUqjIBevsQlnrWrGiEotP1kll2FfFy2oyNS7VRmTEsDrDet48bxI5bC97Cy41y1ALmsZNy12yOWE0WV+WbatQZ4hLD+lOHWrVsZtjzZjxBomSz+fam+SgZm2lgNHD58+IdmzZrNA1c+c0R819MaIXMwses/c8lYOf8y3PBTT8LvWNySPrQKEPz06C4QLJASmXFjNbBv377E2bNnC6eTys49UQHCTeM4obF4H1lmrBgmN9YAg4EfsYmXaOO4JO78/Cag+GLr1q2H4gexHggICAiWnNch5WHGnWgA/3qXh8OU0/BjYIdWrFjxNX5/ShgZXIvj9p9fQEI1qTOVJHB5Y1xOT7CR0JtR/RpgMPj8LNl87QoQgT2fYMOg8D0Al956IDWDTQOseD4Kmk+KZjBUrxfIM4OpAVMDpgZMDZgaMDVgasDUgKmBv4IG/g+7FFWgg5nEzgAAAABJRU5ErkJggg==;" parent="1" vertex="1">
          <mxGeometry x="1276.5" y="-785" width="30" height="30" as="geometry" />
        </mxCell>
        <mxCell id="5hxXH1iy_aXLQU6aHfeA-17" style="edgeStyle=orthogonalEdgeStyle;rounded=0;orthogonalLoop=1;jettySize=auto;html=1;exitX=1;exitY=0.5;exitDx=0;exitDy=0;entryX=0;entryY=0.5;entryDx=0;entryDy=0;" parent="1" source="5hxXH1iy_aXLQU6aHfeA-12" target="5hxXH1iy_aXLQU6aHfeA-13" edge="1">
          <mxGeometry relative="1" as="geometry" />
        </mxCell>
        <mxCell id="5hxXH1iy_aXLQU6aHfeA-12" value="修改密码" style="rounded=1;whiteSpace=wrap;html=1;fontSize=15;fillColor=#d5e8d4;strokeColor=#82b366;" parent="1" vertex="1">
          <mxGeometry x="1250" y="-566" width="120" height="40" as="geometry" />
        </mxCell>
        <mxCell id="5hxXH1iy_aXLQU6aHfeA-13" value="阿里短信验证码修改密码" style="rounded=1;whiteSpace=wrap;html=1;fontSize=15;fillColor=#fff2cc;strokeColor=#d6b656;" parent="1" vertex="1">
          <mxGeometry x="1430" y="-566" width="120" height="40" as="geometry" />
        </mxCell>
        <mxCell id="5hxXH1iy_aXLQU6aHfeA-15" value="头像、个人信息等修改" style="rounded=1;whiteSpace=wrap;html=1;fontSize=15;fillColor=#fff2cc;strokeColor=#d6b656;" parent="1" vertex="1">
          <mxGeometry x="1430" y="-626" width="120" height="40" as="geometry" />
        </mxCell>
        <mxCell id="0q5TFqD0luozQJ7anaJN-1" value="" style="shape=image;verticalLabelPosition=bottom;labelBackgroundColor=default;verticalAlign=top;aspect=fixed;imageAspect=0;image=data:image/png,iVBORw0KGgoAAAANSUhEUgAAAGQAAABkCAYAAABw4pVUAAAACXBIWXMAAAsTAAALEwEAmpwYAAAJHklEQVR4nO2df2wT5xnHX+hQpaFq0rRMk6ZKQ1OrSdOGpqqT+CmnCqXdmqLB6JK0ZWshrUq3JC4JUGIaCri/s6ZJ+JUXB/I7sTPaQJxQSBM7jgG5SdqFIhgrbCyWjOeQ+D1XjI7Sm97u7uK+jztg3L13dt9Hev45CT/P9/s5/9DdfQNCokSJEiVKlChRokSJEiVKlChRokR9zSqRSGQTQjyEkAgh5JokSXImNyHkmqLVnUgkbMgqJcvyNwghe802SDIfUB31wmweSMCQNCjhcLjR9I8ps89MyWJdXV39NEJohilA6HeG2QZIFuuRkZHjCKF7zQISZReqebNTzllkl23zijK6cxbZ5R3VfwJAotFoHCGUjxD6LlcYkiRlsctcujT5tYBhS4JCNbM+zJ079ymE0ALeQBaxi4z9+azpJtk498mxvwIgdrt9C0LoV7yBFLKL9HQf0xZ9NP8VGbcFDe297UOyHLR/qekxo+dSbarOXu8xAMTlctUpH1u38wTyBrtI3a4ubdFn1u4w3Jj6tgAA4moPGD6XalN14t1dAEhfX98hBUgWTyDd7CIV5S5t0Q2OJsON2dfuB0DoMaPnUm2qzi3lLgBkbGxsVAHyQ55APmYXWb1q+q3srHzHcGMaOnwAyP4On+FzqTZV55pVrwIg4XD4ogLkZ1xgyLJ8OyHks+QlCCHyA9ml2qI19f2GG9Po7gdAGjsGDJ9Ltak6qWaqPdmLeDx+LSsraxVCaDEXIIlE4ifsWXHu43FtyfuzSw03BbcF5Wb3ewBIs9v4E4H20uwyTe/5c+PgXVJQULAeIfQQLyAr2QUGfR9oC65csY2LKa2eowBIq7uPy2yqUdU76BsFQCorK6sQQnkIodsMByJJ0mZ2gdamI9qCq9e8ycWUds8RAKTNc5TLbKpR1dvWfBQA6erqcivfI9/iAaSZXeD1l1u1Be2lLi6mdHjeBUA6PEe4zKYaVb2vv9wCgIRCoYAC5E4eQIbZBYrXvqUtWPGSh4spns7DAIjbc5jLbKpR1VvybDUAcv78+XMKkB8bCkOW5RmSJCXYBVbkOrQF/7iLjymdnT0ASGdnL5fZVKOq99cPbwZAJicn/zVz5swChNA8Q4Fcvnz5TniFc0LOnl/8xXL3LSyR61qMv3yBTe661qEvtFLNVHv0YgxAsdlszyKElhoKJB6PLwH3AIZPa2fLsl86TDcLc2qqVdU9OnIaAHE4HE6E0EqjgfwB/KJ4e1Bb7PHHXjPdKMypqVZV98F3AgBIU1PTPuV75JuGASGE1LKDd9Yc0Bb7ffFu043CnJpqVXXvqnkbAPH5fO8qQL5nJJA+dvCmsj3aYs9XtJhuFObUVKuqu3x9HQBy6tSpkwqQu40EEmYHr8rbri32StUh043CnJpqVXX/Nt8JgEQikUsKkHsMgRGLxe4ghHzOXEiTlyx+TltsZ4PxV1uxRXpng1/7dZmz2C5PTcW/BIR6NWfOnCcRQtmGAInH4/eyZ8GZ03/TYDy4ZIPpJmHOTTWr+v9y5u/gXVJYWFiOEFpmCBBCyOPswL4jIW2hvEecphuEOTfVrOp/7+j7AEhtbe0O5WNrlhFAtrMD97u82kJPPV1jukGYc1PNqv6G+h4AxOv1HlCAfNsIIJ3sQOeLDdpCpRv3m24Q5txUs6r/pa2NAMjo6OgJBcgPjADyETvwmTWV2kJbXz3A1QzfwVZwLYse47kD1azqX1tYCYBcuHDhHwqQn+oKQ5bl2wghV9iBuUs3agtV1fG5OYSVHjzYAoD4DzVz3YFqVvVTL1h/pqamrs6ePfsxhNBCXYEQQu5ih42PR7Rl6M8+esGNpxmB7iYAJHDI+Kddkptqzkn62R8evwig5ObmliCEfqE3kFx20PFjY9oiy5dVcDUCtwXlYHcDABLsbuS+B9Wu+nDi2EkAxOl0voYQ+o2uT8UTQsrYQZ6O6acvfvdEJXcjjnfvB0DoMd57UO2qD50d/QCI2+1uUb5H7tATCEhJVb3RoS1SZK/jbsQJbz0AcsK7j/seVLvqw1uVbgAkGAz2K0C+ryeQIXZQafH0I5WOre3cjQh5XQBIyFvPfQ+qXfWhrGQHAHL27NkzCpAf6QZEkqQJdlDe8i3TN/prvdyNGO7ZC4C87+XzgEVyU+2qD/krtgAgsVgsoQD5uaFZkPsW/PcWpm1+sby7eZC7ESM9GAChx3jvsac5MH0Le0GJPDFx6asyIzlcsiAPPbCJuwm4LSh/0LsHABnt4f9dRpt6cAOZkeUZkwXBKfrD3t0AyIe9e0zZhWtmxApZEJyix3p3ASD0mBm7cM2MWCELgi3eXDMjVsiCYIs3t8yIVbIg2OLNLTNilSwIToPmkhmxShYEp0FzyYxYJQuC06C5ZEaskgXBadBcMiNWyYLgNGjDMyNWyoLgNGjDMyMiCxK0VmZEZEGC1sqMiCxI0FqZEatnQSL928HFxUi/M3MzI1bPgkQHtgEg0f7tmZsZsXoWJDawFQD558C2zMyMpEMWZGLgRQCEHsvIzEg6ZEEmfRUACD2WkZmRdMiCxP0vACBTvhcyMzOSDlkQ4ncAIMS/OTMzI+mQBUn4ywEQye/IzMyI1bIgOEV/MrgJAPnEX276XrpnRqyYBcEp+vLg8wAIPWb2XrpnRqyYBcEp+kpgAwByZXCj6XvpnhmxYhYEp+h/B9YDIJ8G1pu+l+6ZEStmQXCKvjpUBoBcDVjjoQtdMyNWzILgFH1taB0A8llwnel76Z4ZsWIWBKfoz4eeA0DoMbP30j0zQgi5+L+yIKKLbsqDVJmRaDQ6dcOZkVQ/ee+3rRMg5v1/J+PS7HUAyOTk5KcKkOtnRggh4+wL0JstyVd6RRfdkAfUs1Q3qiKRSEwBcv3/Z4QQ0sa+gGhJVw+Gh4eDCpBHrgtEkqSF7L0Q0ZJuHlBvS0pKKhQgD18XyFfdTxct6eJB0n112vNv+HpWOBzeK94pkq7vDJ/Pd3jWrFkFSUBuLlFVVVW1OhQKDdF7wTTjIN4l0k1BoJ5FIpEJ+lxvUVGR+jGVfyt/i3GG8g+TX0g0umUP7rnVv32SpTyTukzJOAgo6KY8yFO8ox5+51ZAiBIlSpQoUaJEiRIlSpQolLn1H9UQvuFCeEjLAAAAAElFTkSuQmCC;" vertex="1" parent="1">
          <mxGeometry x="827" y="-830" width="60" height="60" as="geometry" />
        </mxCell>
        <mxCell id="0q5TFqD0luozQJ7anaJN-2" value="" style="shape=image;verticalLabelPosition=bottom;labelBackgroundColor=default;verticalAlign=top;aspect=fixed;imageAspect=0;image=data:image/gif,R0lGODlhZABkAPcAAB8hKyAiLCMmMSYqNCcsOSouOyguNywxOzAyN09NNlZTNyw1Qi03SS85SzE2QTg6QjQ9SzE/Uzo8UlM/TTFBSjtATjZAUzpDUjdHXTZLVTdJYDlLYz1SakFCS0JJV0lLVUFDW0ZNXVVWXkpMbUpTYlVXYVRcbEFYdENde09RdVBSdkJia1ZgcFpjdVNocF1neV9pe0t1fWdpb2FqfW9wd3d4f3h5f3R2fJuRRoqHaIuIaO2vevu5f9bGU93NVe/dWffkW/jlW1tdiEZigUtpi0hkhV9hjU5ukWRugWZxhGt2im14jGFjkWpsn3F9kmttoG9xpnN1rXV3sHd5s3l7tlOGjlWJkWWAiH+AiHWBlnmFmnyJn3WWnV6bo3+MomCepmKiqWistG23vnPCyXfK0XjM04SFi4CBh4qLkZWWm724hYGOpIeVrImXromYr5ydoY6dtZ+hpYOpsIy2vKeorKusr7W1udeHnvSXsOninvDpov72qpbDyZbEyp/P1KDR16nd4sfHys7O0dbW2Nzc3tLT1d7e4Ofn6Ozs7fLy8////wAAAAAAAAAAAAAAAAAAAAAAAAAAAAAAAAAAAAAAAAAAAAAAAAAAAAAAAAAAAAAAAAAAAAAAAAAAAAAAAAAAAAAAAAAAAAAAAAAAAAAAAAAAAAAAAAAAAAAAAAAAAAAAAAAAAAAAAAAAAAAAAAAAAAAAAAAAAAAAAAAAAAAAAAAAAAAAAAAAAAAAAAAAAAAAAAAAAAAAAAAAAAAAAAAAAAAAAAAAAAAAAAAAAAAAAAAAAAAAAAAAAAAAAAAAAAAAAAAAAAAAAAAAAAAAAAAAAAAAAAAAAAAAAAAAAAAAAAAAAAAAAAAAAAAAAAAAAAAAAAAAAAAAAAAAAAAAAAAAAAAAAAAAAAAAAAAAAAAAAAAAAAAAAAAAAAAAAAAAAAAAAAAAAAAAAAAAAAAAAAAAAAAAAAAAAAAAAAAAAAAAAAAAAAAAAAAAAAAAAAAAAAAAAAAAAAAAAAAAAAAAAAAAACH5BAwEAAAAIf8LTkVUU0NBUEUyLjADAQAAACwAAAAAZABkAAAI/gAVCRxIsKDBgwgTKlzIsKHDhxAjSpxIsaLFixgzatzIsaPHjyBDihxJsqTJkyhTqlzJsqXLlzBjypxJc+agNzQ+HADAs6fPn0CD8gwQAMEHGmkI1RR4KM0EokKjSo1KlGiFNIhkGrIhYCiDDSeGEBlLtqzZs2jLFjmxgUFXAAKUGHIpSEbVBSeIHNnLt+9evX77Ag5MeC+HBQCIyhCkMpCIADwboDgyOHDay2gL80XhAGqJQCfNJA4QYQhfIhIECJAgGPJUqQEEXwiwevCQCD3NlETDkwQAvxI+3LkzgfVfADuSK1/OvPkOAEKK7JUwYfgH43wDlEiMZuQgokjY/vzuG+AOHjx3Yh/nwb69+/fw8/wGXP78HQF+A8BBQnSQyBsBhACHeH4JYB56+K0H34IMjrdXfeiplx0ccIQQwA0iPRCAEwM6OF11xF1wGgAMlvieh9QNN4EF+VHoRAAPiEQUGx36RcQFAgSAHWVvvSaUhJRJQJSIfgFAYRs8yQgAjQRq5uSTUD5pJIU8JRLSjDVGqeWWUlIIR5VXLpmlZVyWCeWUXwJgJUhYiufjm7DByZOXYIKUGJMAjKHnnnzyCUAffvwh6KCEFmroHwCI0eeieqJZ50eQ4VnGpJOSQamllALwByCcdurpp6BymielZZCBaaWWOqrmlQFISuqp/qSWEcCmodYa6qix5lqGqmtC2mqHuuqqqa3EeoprsJnSuSqbv4qHbKzDFlvssc/yGtKdwD6bKa3S2krAGNpOqh+Vy/rqarjRdmtruKWOm2avHmHrLLvpqhsqu7IqC29HWCKJb732fsouGe4+6lGbAPzLbcAC06vvtc0mTO/CDHNaALjhFlzuwRErXPGnF7Or8b4cIezxx57iOzKr52oL8McqP2ynmPOiS3HFBsCqq6kr2xmxzsG+zDC1yPZsLoUBYOzyzQyHrO0YRnPcBoUCiDExyimHK4YAMvs6tRwXWHE11pyyWwUIXcf7KxwzUAB0rkIHbIDSyFIwgxxUBkDy/kZYUuhAFTaTDQjRuVZxgJdf6s2yl04IAMbSghNOKhgCZIF4YntrhK2XSRDwRbVMByz5pF0YkATiiWflM42IKyFADG/vGrq9kpMRwwBKoJ6m6h9tjvgWEFDwuc5x0073pGA0QMEWuieeeUa9NQ8HDAZk0IWplM4aOd1dZFDADNL7pvjMBXgwte5uvLDAATGE0e7s6o4aRgzrt3A+6m54QABRz2NEVBELWADzpOcEEgzgACsAwBykNTs+AOAECzAACTgkPS84YAFEgEz/LpIYvWBAAC2Qnpey4IILDIAAF3DBFbgghznwoVB+4MMc5MAFJZRwAANAgAkoKL02mEAA/hjYi8H4FQDAoGABBUCCCBHnhSW8gAQfqMABDFAVyARgAAuAQAZK8IIlrGGJXkICARZgGiFujF8AqAwHCFCAFnwRjHD0Et7iuAYTjJEDRTpjyYoYmBM0AAAXeIEX4khIEa5hBqmJwAkIg7lrpbEwROAABARwgBDMIAv3g8McC4m6LMwgBAUQQAM2UJkijQ9Sj3QSEVCggQYQAAAFgAAJTGAEJThBC2tYAxt26QY37NILWsiCEmBgAhJAoAAAIEADNICCUjLylPHyUJRWyYENWAAC6yPAAFwzGp4IYIwLiIAFMMCBZpYpMbw7WCrNxM52mnGDFiHKYEiAzANswJ34/jwCB3aCADzyZYglSyUHEKAGPaihAP7MZ5kGWlA19POfetxIB/dSADXs4aJqOMBehtAZMiq0L0NYQFGkc4QDWBSjBoAoPCsiTyHq4aJ70IN6EKCDPOjAAR/liwNqqoMFPOilF9WDgwAq0VQS4KR7cKgQ87AH+eT0QUzNAx9NClOlvjNMgGGoQR96hJ3aFAFP7SpPNapPgm51BCpl1WA4YAAAHCChAASAA8qY0yJ05gAk1Wdb3zoYompunX8JK5ScWRi/ZqSlgk3sEQzrPz5+lLBPZexFoOKTqshpNJS9rJxWShGieGGXoN1lG0IL2jasAQA+8EEPEpCAHqiWta5d/m1rXzvb1S6pDaNlQ251G9rceoEoIulAAJbASfEE4QcKUMAPghAEHCj3uMldbnOfi1wFTGmTYFxCADogEjMEoALFBUB1pRsEIJh3vMxNL3SViyZCViAAugnJIQYAABMUUjzRhS4OmIte5O53vcttLxxNcMVDjKQOPJGAF+GI3x8AYbwPjm6ElTvh5QJBwNJbwxKEFIA6lKQO27QiN+Ok2cTAyTUD8LBJDmEG4VqWKpkt8Y96UpUOmMHAK0mEjnV8BglE4ccOiAMidkzkIhv5yDqOgwN+HAUJYKHINCHEAJpABSqo4AMe+UAKqvyEAShlKYoQwQiqDIUBFMIjhRjAaxOqPIISgNkOB5BClUFgA5AsAQRVlkIB7FCTRDxACFVmQgHSyZFEIIAJVRbCAzhrEjNIoMpUcAAdREKHA0yhyhKIr0wOsGYqMAHLI/mAEarchAKA+dSoTrWqV83qVrv61bCOtaxnTetaayQgACH5BAwEAAAALAAAAABkAGQAhx8hKyAiLCQnMSUqNCkqMicsOS0vOS4yPDM1Pjk7PEJBM01LNVpWOGxmPG9pPS01Qi87RS45SjI1QjM6RDQ8Szg/TTI/Uzs9UkY4RTpBTjdATDNAVT1EUj5JVTpGWzZGXDpTXDtMYjxRaj9WcEFDTElLVkNHVkdTXlFTW2JHVnd1XkpMbUxUZFVdbldZYUFXckJad0Ncek9RdVRbckJia0VgfkRncFhhc1dtdWJjam5vdmFqfXd4f56UR6GXSLuuTp2Zc6qmesS2UN+mdPu5f+vZWPXjWvjlW1tdiEdigkhkhEpniExqjF9hjU16g05ukWRugWdxhGlzhmx3im55jXp8gmRmlnN+k2ttoG9xpnd5s3l7tnV3sMF7kFOEjViOllWIkGiFjHWBlneDmHmGm3uInXaYn12YoH+MomCepmuzu3TDynfL0njM04SFi4iJjoqLkZman7WwgICNpIeVrImXr4ORp46dtYCmrIqyuIevtqeorKanrLq6vbS0uNGEmtyKoemRqfSXsMnDjNTOktnTlerjn+/oov72qo+6wJK+xL6/wpjFy6DR16TV2qnd4svMzsbHyd3d39LT1eTk5e7v7+/v8PPz9P///wAAAAAAAAAAAAAAAAAAAAAAAAAAAAAAAAAAAAAAAAAAAAAAAAAAAAAAAAAAAAAAAAAAAAAAAAAAAAAAAAAAAAAAAAAAAAAAAAAAAAAAAAAAAAAAAAAAAAAAAAAAAAAAAAAAAAAAAAAAAAAAAAAAAAAAAAAAAAAAAAAAAAAAAAAAAAAAAAAAAAAAAAAAAAAAAAAAAAAAAAAAAAAAAAAAAAAAAAAAAAAAAAAAAAAAAAAAAAAAAAAAAAAAAAAAAAAAAAAAAAAAAAAAAAAAAAAAAAAAAAAAAAAAAAAAAAAAAAAAAAAAAAAAAAAAAAAAAAAAAAAAAAAAAAAAAAAAAAAAAAAAAAAAAAAAAAAAAAAAAAAAAAAAAAAAAAAAAAAAAAAAAAAAAAAAAAAAAAAAAAAAAAAAAAAAAAj+ADEJHEiwoMGDCBMqXMiwocOHECNKnEixosWLGDNq3Mixo8ePIEOKHEmypMmTKFOqXMmypcuXMGPKnHnwkiVKOHPq3MmzJ85KNBdGguNCQoCjAJIqXcq0qVOlCVC8iRRUoCQ3BwAE0Lo1gICvYAUA+OrVqwCzaMme/bp0qwE3kmRCyqF0gAURSZg82cu3r9+/gPsySSLCwoCjAXJAcukHBeIIMAJLnky574sISQOg6KPSD4muG5LwXbLkL5IZSpTEUJKEdevUSmrAjk27tF8mevcqsXA2AAk/J3Ug/mD7yRIKYikUZ6KVgPPnzgUMGCAgenXoAfoeP6p89IeuOkr+VtHaAoBfCikCBUpxYXQAIvDjy59Pn0h2vujVp6DgF8AMsVWMBMlWU9BhXl8BACKIIIDc9wRzhdQnIX0OPpHggg32d8cUWy0WknAs3GGgXwL8seAfAowGwIQsxlchASYK8keFTwBwxx0sBBBeSEaNIeKBfHmAQRddYNDeXksAMMSSTDbp5JNDVCgkkRh4oOEdYgSAgEhH0fHjbR8cYICVfRHwlZlhoWnmmmc5F4Bzfn1ggAEf/GXjHXVsxWUAXo5Y2Z+A/pXblXckdUlIWvUJZKCMNsrXnYUCcChIXf4426WYZjrba6xpyqmmsEFqaEiVGjjdqacWMICq00k3HQH+qA7w3KuxvkoAANOpymqtA4gqKal8/tjGsMQSy0Ybx7YBQCOPNOvss9BG2ywAaxRrrbG+TvrRVopeayy2zEorrrTUemstG9kC26251i477rvOOlIuu8Oie2OkliAKwLr0DusuvPDO22+6ICXF78DhAjyuwPQSvO2+wvaL7L8KiztBtRI77JHBEWeccMXSSuzvvaNSGqyBIiv7McjQpqxxR6UC4PLKLDvrMsm/mnxwwzTX7MjNNyaVb8EnyywyxTU7KwDGA+OsrUcxz5w0tBQk23TQOW9btNRTPwt0pE93lGjHCHftbCNfC60u2Tyb3WwATDfs9NoGWt2223AfjfP+0Fp7WWjc7CI99QR2m7vGyxxxe+MAahzdc80iqzHA3ET73YEXjrv9yM8Sg2EC5X3fCAUEmeMN+LVsQLAD6BsHe+METnisOcPeOkHBvWCTCvGNZQhwRtlu014sG2cMUAbuJYd+LxUDfHG32cIT+8UAVOCeu87Wi1GADdUWrvLsp7exhg0FiGH99R+Nbf0cHTzwBRuFC540tfAX+8UBIKBxPr66c7D/HVJ4gAbAEDcAOMJt8lpD/dYABg08QAr7qwMHkrcxADyAAn47XxQ0MAAapOFYBkQg/dJAgwFoAAr/owMFHkBBmAVACRQogI/+V4YWQGAAIAgAHg44NUfoAQD+IBDAA1pwvP9d4QARYE7WWqcXEQiABRncHxpwwAIJAAABIMBBGMxghjzkQRGMYIQiEpEHPJghDDg4AQsRkAEc6O9/eGKBAESwF7VRCgC5UUIEBHADOFpvDFG4AQtOwIEJiGk6BniABC7QARbcIApjqIMfb1SHGwwgAkp41BJhhse+jGCPLCjiJEdJStyVQY4PiEF/NskRrQyKL0nYgBBbMMNS2jJ7M3iAAEIDGDtq7ZV+GYEsBcCBGUzhjbf83xyo0AIOSMcCI5hMC1vZScoQZgMP8MoBOMCCFjQhClQQAxrGgAY0zGGcZLgCFaCwgxawgAMSOMsD7iKaykxzI0n+AWZgBrWEEYjgAxvQQAQeUICChqWgD0ioBSwQAhGsxlH31MhRgKkEfTrqon2p6CrDlrhqPuEDBHhTCDBKUr6AgDoEGKkmOYrPAOQmBAkgBCIIkQA6juZBJQ3MEgYFU5kWIgEqrRErN7KV3BhgEIhI6iAMsJcYGCAABlBlTvviVKhK9ahJRcRSNck3qLl0LwE4RFYPcaADAAERQDjAVPtiVrSq1UJiTSpZuQos2xxADlkNwlsBYAhEGIJGOeUrIg6RHSYcIAhZlcNbhcpSiVZzBAQIQiGCQIBoPmECKiCECiawVr5gVrOcfcILIjvZyq4UWIMagQYMMIEX8AWGBKD+QCY7+wTYypYvI5gAa1172oJ5lLaAsqhkIpqRiQL3uH0hLka2IhvYNBdUSoBBDKYLA+lWt7ovqMF0sxuDGtTgBdm9LnQzlQTlXmQrYalOetfbG8S49ylt4cqbviIrsLSKvea1SEjncEsDHeEIRVhAA4wA4AU4gMABHnCBFRzgACTTDgAggEg+M4X+BmDBBD6CDw5cYA4foQccTrCDbzkFAJBAJHAIwAT6C4AEE9gIGcbwEWD8XwxDqpQUAAAcRFKJp57AlgYSMIIX0IP/urjARZYxAPBgyxNAFSgi6cNWJAAFMszhyljO8pXRAAAGCEEIP1CAl8Es5i+Hecxn/rLvEACg5TZfuQw7sGIAOEMSRiBgK/DNM3zx3BQ+95nPfEbAIk5iiTi4IAFzSvRTwxKAAijaAAR4tKQnnWivUOcskp4ACuLQ2JS44QJb2IIWJMAHjvBBAloI9QXcUJWBSIIAWBC1DErgkRLIINRWIEBcWu2CFYQ6CwKYhEcmIYAshHoFLmi1HwzAhVCbIEAfqQIGQs2FAwCHJpeQABJEbQUDdPoilniAFUKNBAl8WyWfDvUWJLAHkZxa3Rd4A00OEOstIIHWIynBtrfQ7VYL5BIAD7jAB07wghsc4P5OuMIXzvCGO/zhEI+4xCdO8Yr7OyAAIfkEDAQAAAAsAAAAAGQAZACHHyErICIsLC0vMDAvJCYxJikzKis1Jy06Ky46LzAwKzE8MzMxMDI7S0k1ZmE7c20+LTVFLjlLLjtFMzVCNDpGMzVKMjxLOD1KPzVCMj9TOz5UQDVCNUFMOUBNNUJTPUVUNUVaOUhaPFZfOkxjPFFrP15nS0xHQEFKXU1GWVlNUFFKSktUQ0tZQUNbRlNfSFFfVFVddHJcSkxtS1NiSFhiV1lgUltrWVtkQFdzQll2RV99T1F1UFJ2QWFqRGdwRmB/WmN0VmtzXWd4X2l7S3V9ZWduYWp9bG10d3h/jF1vkWBykolEnJJHqIBfrKFKtqpNlJFuoZ11qKR5+7l/0sJT3cxV+OVbW12IR2OCSWWFTGqMX2GNTm6RZG6BZ3aGZGaWcX2Ra22gb3Gmd3mzeXu2dXewvHiNaYWMZICHb46Vd4SZeoeceIWadZadf4CGfouhZaevZqmxaa62b7vDcsLJd8rReMzThYaMgIGHiYqQlJWZgY6kh5Wsg5Gnjp21hayyp6ispaaqrKywtbW5urq9w72I4o2l9Jew2tSW49yb6uOf9O2l/vaqmsnPoNHXqd3iysrN29vd0tPV4+Pl6+vs8vLz////AAAAAAAAAAAAAAAAAAAAAAAAAAAAAAAAAAAAAAAAAAAAAAAAAAAAAAAAAAAAAAAAAAAAAAAAAAAAAAAAAAAAAAAAAAAAAAAAAAAAAAAAAAAAAAAAAAAAAAAAAAAAAAAAAAAAAAAAAAAAAAAAAAAAAAAAAAAAAAAAAAAAAAAAAAAAAAAAAAAAAAAAAAAAAAAAAAAAAAAAAAAAAAAAAAAAAAAAAAAAAAAAAAAAAAAAAAAAAAAAAAAAAAAAAAAAAAAAAAAAAAAAAAAAAAAAAAAAAAAAAAAAAAAAAAAAAAAAAAAAAAAAAAAAAAAAAAAAAAAAAAAAAAAAAAAAAAAAAAAAAAAAAAAAAAAAAAAAAAAAAAAAAAAAAAAAAAAAAAAAAAAAAAAAAAAAAAAAAAAAAAAAAAAAAAAAAAAAAAAACP4ALQkcSLCgwYMIEypcyLChw4cQI0qcSLGixYsYM2rcyLGjx48gQ4ocSbKkyZMoU6pcybKly5cwY8qcaXASJEKCcurcybOnz5yEIE2iiTCSHhgGAAQIAKCp06dQo0qFagCGHklELQFawbRpgAMQIogdS7as2bNiIRyAuiJQzEp6KDANEIEEFi548+rdy0UL3798sZCIsBTABD2VWFK6k5TAgRF+AUuOLLlyXy0jDixFcIcSykpuCDQ9QMKvFi04cFDGi4OE69ckZsB+PYLFbBJ6T6emTEKBaAJ4EpOkxBUAARx6sRjAsMHAj7xaAKCYTh1FAwfVp2PPDiC5gQ3N7/7mJUFg6QrPI2sAQACmu94JSQ4dSjIBOoAp+PPr388fEYArkVUQ33z16QUAGAgEUMNIgwRAwBp8uJcXAIbIZ4h7p93H34YcSsgFhRYGsBcAfryR1CAi3RAAEH5EuJcBZshnhgHQCcAhIvnh2KFeMMpIo4F++AFEADeIlOAaLXrIBQkGKKGEAbj1RQQATVTZhBJVYqmEE1tiaaWVSkioBZNOQjlikG8EYIBIS/HRooh7keCBBshB58EFeOap5554nsBBnh7slQMHHdQJZJBNCfdRm0laZtlqf0UGqWUkIgqAoh4x6qKjnO41aad4VepHoiFpCsBtqKaq6msljFDCa/4grAqbqKSC1JSbEYqg66688kqACzQEK+ywxBYbbAC6jtDrsrReWmoAuAJgx7TUVlttAI48ou223HbrrbYBzGHtuNM2i2lHppJLLgDZfuvutwHQoa615j4b7bz0tvvuvtoCIC++5QY5qrMgpQtwufry+66/B9tRb8HQJtmwwwkr/C3DBz/8kVL3NsyuxfsGUYfHAte6ccQRTvwxyO+qXDLBJ+MagMoVs8yty5aey5GmM3tcs83a4jywzhtx3CIBNAPt7R9Cm5wptH/w0XPGP9uMMcAaP90x1Up3G0TTMGstsc9ddztxAC8TrZHBXJetLdMk51wqAFtjXTXL8cY9tP69Y7ft9tX4oi03xG6O+q/dbmsr8sF0CL53wXQHiUAcZCf+SMNxIJB2SLcG6QIRlbsNN8BEvLA54UGCccDh8678N+vk0nHAGafHLDALJfhddt74lsCCwI8vGnGQfCgAOr6ulw34uEQo0AfwTqM7PJoK+DCyusl3vTy1dfigQBvAB59p5MD3cQEHclyfr+Xb2yEHBxw8H370OwfwRvhBAkGAD+mvn/jyc/ABAViEvwiFrSNNUcAe8FeiGRyHctOqQ/aUhrE6xKEEBZjB/fDXBwXQr2gA8AAC1IC/P5TIBgKQgBbgIMG7WcwR/oKDFiRwABtsEH9qMIAHPri2AGBmgP4MDNIfvDADBBhAAWj4QyOU1og/nAEABjjADMAQxCAJgQAj+NABOaIUv+hAARUgYRX9sAYjzIACBCjABVwQBC+cIQ1tiGMb0nAGLwSBBh0wQAAo8AIgsGGMfgADBQ6gg1BtcSNMkdQICPABMQLSD3sAQxeCYIMZuIAFmGQBsGwAhC6AYYGP9IMaPoBFAx1SI01ZjRZAUAAKGKFwoQSkCR/ZhyFMoAAggBQPM5JIvoyJMBcQApJiSUzgqUEIFggABKLEl11iZCmfwksWBlMAAnTABl1QAyyLKTA+sKELNrhAAQpggdJUxpkXSSWnBAMCtQCgABC4AAtmYAMhCKEL+P40Aj6FAIRKssADExDNASoQK/E4Cp0WUSeo8KIFLOTANSAAQQY8EAELVNSiGsgACEYwAhLkAAvRpNQpeelDveiABD8I6UJXmpcf2GVEI30mACR1gQSoAAEWUCVLd6oFChhABQnI6YRiehFo4sUDKVgEIxaRgg/kBQs4MOhOATNNg4YgqUttKkMRWhGFEgARjAgrIgqAF/KYoADMnGqcAHDWKH01rIwY61DVxsuZ4iUAioCrItxTgEIwohBkVStf+vrXwAIgr2FVBJy0SFeZRoYCUIArFChw10QwIhGLFeyELItZvEBWspQ1ZGOLalcu6KAAMZBCDArwHC54QAVRMP5BoDSrFw+YQAom4ABefmCA1K62kKJ9FmWw8AEOhECqIeAAZGi7lxEYNzkh6EAIskAZrlKkl8zNrmSsOxGjZhdSKl0pdyWilI7KajYZmGh6J+oBD2RALOx1b3vdG4H5egBVI5CBqpQyWoss5QMADrCABxxgAAxgAQlIAAASgOABqGkBCA5AAgYwgKQkeAACAACBAdyCDbPgA/wNiR5vGMoIWcEKVEjAEk5chQGsGMUuPnGKX0yFAZBolqHcg5pEAoMADKGYJp7xia3wBCbIWMVDLrKMXSyqWBohADAQSSACgIBtAjJCQrZCFaow5CxvucsxbvIjixcAt4jkBAC4gP78xrxgGifACUd2M5xRjGQriHmMfZDLCfp7kUgkiAAv0GcXBI3PQuNzCwBowAMe4IAAKJrRjl50ox896UU/IACGzrShjfCC8jAgEiWZRI+XUhilzGUqUemKV1St6lU7pdVP6QoMhnISSOThCEXIta4LUAENaCACBNC1sIdN7GLn+ga89nUFgj3sI+QBEjK5gwbIQIYxQMDMGglEBcZAbQ3cISsDiYQBvkAGM+hgBB5ZwQ6o/QUDgBrcMJABtcVgAGh3RBIGCAO1ZVCkrAxCAdwmQwu8ABIvtIDaZVAAimhSiQlcgd0IQI9HKsEAcpPhChPg80mkTe0xTAAQIgHEBESoTYYPfHsmCtA3GbbAgFKj2isvfzkCHk6GLyAA3ASphKISgymeW0I4PheIz4eO86Ib/ehIT7rSl870pjv96VCPutEDAgAh+QQMBAAAACwAAAAAZABkAIcfISsgIiwsLS4jJjEoJzImKTMpKzUpLjknLjwsMj02NjA8PDIyNDtHRTRXVDhjXzosNUMvPkcvOUoyNEEzOkU2Okk4PUsyP1I8PlFLO0k2QU02RFU6Q1I1RVo3SFg5SV86SlQ5TGQ8UGc9UWs/VnFCRExERUJXV05LTVZCS1lIT15BRFhGUV9ZWldtWEtjYlNDRWNKTG1JWWJHWGNUXG1YWWJCWndEXXtPUXVSVHpQUnZGYH9XYXFZYnNdZ3hLdX1bcnpAYGlmaG9panFzdXt3eH+adlqHWmyUYnSflEeonUm4q02NimqVkm6cmHLKvFH7uX/VxVT45VtbXYhHYoFKZ4dKZ4hLaotfYY1PfIRObpFkboFncYRpdIdrdopkZpZyfpJrbaBvcaZ3ebN5e7Z1d7C3dYpRgYlWjJRsipJ1gZZ5hptxkJdnhItfnKR/jKNgnaV+oqhorrVrs7pjpKxxvsVywch2yM93ytF4zNOEhYuVlpuZmZ6AjaODkKeHlayJl66enqOOnbWHr7aoqa2vsLSzs7q7vL/kjqb0l7DJw4ze15jf2Zno4Z748Kf+9qqiosy7u8SZx8yg0den2t+p3eLDw8bLzM7V1tjNztDv7/Dy8vP////n5+gAAAAAAAAAAAAAAAAAAAAAAAAAAAAAAAAAAAAAAAAAAAAAAAAAAAAAAAAAAAAAAAAAAAAAAAAAAAAAAAAAAAAAAAAAAAAAAAAAAAAAAAAAAAAAAAAAAAAAAAAAAAAAAAAAAAAAAAAAAAAAAAAAAAAAAAAAAAAAAAAAAAAAAAAAAAAAAAAAAAAAAAAAAAAAAAAAAAAAAAAAAAAAAAAAAAAAAAAAAAAAAAAAAAAAAAAAAAAAAAAAAAAAAAAAAAAAAAAAAAAAAAAAAAAAAAAAAAAAAAAAAAAAAAAAAAAAAAAAAAAAAAAAAAAAAAAAAAAAAAAAAAAAAAAAAAAAAAAAAAAAAAAAAAAAAAAAAAAAAAAAAAAAAAAAAAAAAAAAAAAAAAAAAAAAAAAI/gA5CRxIsKDBgwgTKlzIsKHDhxAjSpxIsaLFixgzatzIsaPHjyBDihxJsqTJkyhTqlzJsqXLlzBjypxJUJOlQHqKENnJs6fPn0B3FtHDx5ImmgU77UEBoKnTp1CjSp0KIIBVFHs60cwkJIBTCBI6hBhLtqzZs2jLdpCAoKpVIZdgHlJhNQCEEVa06N3Lt6/fv4D1XhkBwakKSSwJlWg6YAOVwIL/XoGsZTJlKh28AihBCGWmxQAGdMir18YGDlQs681QAYMGDLAxtOZggQNt2xw21La9oa8NDhdu7L3SYUDTEplKXioA4AAA1VpGEDhyhMCIvVYAGNnOvbv370YC/vCVTp1ADL5XABhQH1fkJgoBVvh5zveAmUSJzBAYHgDKIigABijggAMCwJcB9+VnQF8A/LFCAAxsItIeASQAyB/i8RUAIvghYmBl6f1H4IgjfqgXABwm4iGDgggyAQB7iIRCAFwI8oeJejGABH5ITCBYeiSKSGKAOE6wYyI9sihIFwGgIJJVftiIoxY3EJBBBgQ8poUVUwDgwpcuPPClmGCWaaYLON5gwJUGCMcXAC36YdWTAfwhpV+D4dXXCGn1adZ16I0wAnQntihIUxKCZJWdN1Lm6KOQvmkooiF5xeiUkWaqqRZwtkiponVK6cGopJLaAQYhdNDBaRds4Oqr/rDGKusGCZRqq62dHgpAoh8tKuUZwAYrLLBZnAFAG2kkq+yyzDabLADFDiutsZPuGlJVl+ah7bbcchvAJJWEK+645JYbLgB2dKuutrl+2muoN667LgDgmmuvuejK22271iraoJR46MstvfcWPG6+ArNbLa8e+RpvwuzWa3DBANQBcR78MtyRpVJenMcAEk9sL8IJZ1wpvAB4TLDI98ah8sInZ3vxyizb+7Kn/b4rM8Q011zuzbpqzBG2Hc8css/jAu1uw/8+zPPRSFcChNI5N4yyylAjTbLAJoNE9I0BPx01uS7PDDOoO5ecNdJUC70Rx06rPfa4W4Rd8tk6Fy32/tznpssz3h59nbLRfPcNMR5d5y1IABbvzXfZCduReOChAkKBG4QXXsnFcEQA+MahDkIDCZnzDYTd+s5Aw+dDhypIHwPIgfq8a9e89bpyDNAH62+7LkgPEfit77ea396tHRH0YGjQMS+fggfC01589NzeYYcHICzPPNrapxDBHPr2PLbx2s6hQQrab9/rv9rTUEAWd8yOce0sG39HFgXwkL76VnuR/iBqsAAE0HCHbn2LEoXb2h3QAAELgGEQ6QPD0jYWGv/trwsUSMAPwKct4iXQb3P4QQIq0IX9CcILmnGbRqpCggKszoRgYMEANPADOniQbwBwww80MAAWgMGE/oJwnw0myBGrXIEKCLDAG0w4iD90QQYJiA8Q2DAISSDQYJSQxCDSAAQQVEgGXgAEEN9gAQQ8hogbqUperrCBAdDATkAUhB+6QIMUTGAAFbIACFgggz7KgAUgsEACQhOBFPCgC1GK4x9o0BjLoFEjXlENFSTgxkTG0VB/WIMavMCFTnIBCFzwghrWAMdLxomREtDSiaoGOkLdoAID4EAXSmnKWsYREF3gwACC45dHZsSIf7ECYQBgARqAQYy2TCYgwEADCwAAAiGogmR8iRE1QkaYFziAXVJAAy6AYYnJbNEb1MCFOhYGARfQE2SoeZFIQuoKNgjBBSqAADwWAAEU/qiAbUrAgRXwkwMVgIABjDOAA0hgAyGwAWkexU6LNIVQmTriDWxAAkFZ1KIkuMENUrOpN7GyiAFQTRU+wIEPSLOjKOXLSEt60lWq8Jf00cIOBPACJ7ygADtIaUqpQFObFkCVDa1IVSxjASY84qhMsMBeRMCBEOhUMkwNgWUoYFSkKtWllYppABpx1Ec04kMgMEETTMCBp/ZlA2I1gQf0stWuNiJDnPpo7ywzgEV0dRED0MsAGPEIRuTVrHsJAF8ZkaEC2PWoi4BrUCliFdJwoAWOeIQjXqABvSriEYooAGD3UoDLZlYvHHhBZCfbG6z6yzJXoIACXsAAClhGBAU4/kEBRLBZvYjAALKlbWUowIAWtHahi50IMPdCAhHYoC87EEFOa6uX5C53LzYwLoPkusKYMve6lQmuRB7aUdVAFLtxfWk1AdCqVllgAxdIr3rLewENXAABBzhAAg5QgPkewAAFKEB8DyCA/dJXv/E1gHo34N70one9A27KUfzVAx802AcQjrCEHewDHgDgARhuQAAckOENd5jDDmgAADj8ABE/eMIohrAQetAUkTAgAGsI542kIIUkCOAJNF7CjWlsYxxLQcdR4LEAcmXLNQCAASIRAgBeaMsZ95jGUohCkGu8YxpLWchPILIpRQcAIYjEElVJQzJv9GQpKGEJUC7z/pnTPAAcAwCCtlQDHi0xkiEAoABYaDIAqqxmPgtgykkYwJQBgExTYoE5QyDJJmrQlAJwYAYqiLSkVQADSTNFAQtYgAICgGlNczrTm+50qDO9AABIGgaVjjSkJc0B5gCgBuLlSCBeTJWmWKXWmnFKrr2Sa1vfWiq3ZkAgVJKJQgTi2MfmgwFgkIMcwGAAe0C2tKdN7WoHYg/LbnYGIEDtQiRHJnrAABnGPYHObIQQExjDuC+gB6QQBBMGCMO4c5ACj6AgBuP+ggEw4W6B1ADfZBDDvj2CiQKIYdwxqEG/DXGAMow7A14AiRdWMO4yMMAQSNnEBKaQbwMYIhIgD7nIekdO8pKL3BAG+MK4pzCBWKck3OMewwQmUIGa2/zmsrk5BfJ5855XwAIWsPkBJjBuMnCg3TNJgLzJ8AUMQOLpUI+61KdO9apjgONMP0C/BbKJRHVdQmD/OifAPnauk/3sXS+7y7fO9ra7/e1wj7vc5073utv97nhnSUAAACH5BAwEAAAALAAAAABkAGQAhx8hKyAiLCQnMSUpNCkqMictOSwvOS4yPDIzPTg6O0JBM01LNVFONmFcOWZhOyw0Qy45SzI1QzI6RD0/RzU8TTg6SDs9Ukc4RjNCTDxASzpDVjREWTlFWjVHVztOZDdJYD5TbT1ZYj9WcUNIVkxNV0NMWkBEWF9FVEZWX3p4X0pMbUtSYk5ZaFJba1dYZkBXckJZdkRee09RdVhZcVNVel9oelhic112fkdud2Vnbnp4YGFsfnV2fJ2TR7uuTpiUcK6pfMGzT8W3UN+mdPu5f+vZWPPgWvjlW1pchkdigkhkhEtqjF9hjU5ukWNugWhzhm55jXJ0hnx9g3t8inB0jmRmlnF9kWttoG9xpnd5s3l7tnV3sMd+lFKCi1iOlm+OlXWBlneDmHqHnH6LomSmrn+kq2ersmiutW23vm+6wXPDynjM04WGjISFi5aXnLWwgICNpIeVrImXr4mYr4ORp5ydoY6dtY23vaanq6eorK2usrW1udKEm9qJoOaPp/SXsMbBis/Jj9nTleDamerjn+/oov72qvnxp5C7waKizJjFy5fEyp/P1KDR16TW26nd4tfX2dzc3tLT1eTk5erq6/Ly8////wAAAAAAAAAAAAAAAAAAAAAAAAAAAAAAAAAAAAAAAAAAAAAAAAAAAAAAAAAAAAAAAAAAAAAAAAAAAAAAAAAAAAAAAAAAAAAAAAAAAAAAAAAAAAAAAAAAAAAAAAAAAAAAAAAAAAAAAAAAAAAAAAAAAAAAAAAAAAAAAAAAAAAAAAAAAAAAAAAAAAAAAAAAAAAAAAAAAAAAAAAAAAAAAAAAAAAAAAAAAAAAAAAAAAAAAAAAAAAAAAAAAAAAAAAAAAAAAAAAAAAAAAAAAAAAAAAAAAAAAAAAAAAAAAAAAAAAAAAAAAAAAAAAAAAAAAAAAAAAAAAAAAAAAAAAAAAAAAAAAAAAAAAAAAAAAAAAAAAAAAAAAAAAAAAAAAAAAAAAAAAAAAAAAAAAAAAAAAAAAAAAAAAAAAAAAAAAAAAAAAj+AC0JHEiwoMGDCBMqXMiwocOHECNKnEixosWLGDNq3Mixo8ePIEOKHEmypMmTKFOqXMmypcuXMGPKnDmQkh4pLjIgMMCzp8+fQIMaOIAgg4s2eijRHFgpDwkAUANIlQoVwFSqUbFWDWB1a9WvAUjkqSSTEhsDXAE82AAiRgwlcOG+jUtXbt0kSvDSTRIDxIYCUw+wUdoyEg8BVgt4WNKksePHkCNLnvx4iYcCUAXwiKQSUg6qD15Qlsy4MRPIpUdLFvHAaoAckE66mQohxuO/BThUJsBbAG8CXAP8Fi6geG/fBCBzIJD7cQwImd2UnB1gRADIFi5w4XJBg+MlAIb+iB9Pvrz5IQBua+duATIAEwICSBcZiWuNOOkfD+Dz5w8fAd8BQMSABBZo4IFE5NeYAPz5B+BjANhRg1SchSRFdXbg514f/f0XIIIgIqhgEwFw+Ecf10Fohx0jACCFSBMEYEWGIzaBwQl++HFCe42BB6IgIRY4IgU46oiBeytaAcAEIlkVB42oUQBVBaktIdVvw/kmHJbIIZdijxVwRUFqjUVIIwBNBvCkhpEtQWaPetUlZ1xuxfVmE25KZqYdUJEFklRr1qjaoIQSumefIQEKZaGMNjrZoQD4+ZGi+A1g6aWXCoCpppgWgOmnlhbw26UBgBrqp5BK6hGlAKCRBhr+sMYqK6wAIKLIrbjiusiuufZ6KwBnzCosrSvyGWmiatK4xrLMNtssAI08Iu201FZrrbQAqOHstsumimyg3HIL7bXkkpttuM56C5KTyqL7bLTlxjstAGm4y6y6kyaLn733witvvOfyi69H7O7L7xrj/huvANoKXCyif+oLwMEI+6vwtY5QPHBHrGps8cXWUhzAw8dGDO7BCYN8rcYkq8qxxB6rTC7LK0I8KQAnC/yxzI9I0LC9G3PUMco7y0zAz+4GvdHQOvNcbcYot/xtu007TS3NxrosNMxEWz2tBFjbvCrOVANdtMoBAy21yTUjjW7KVqeNrhpKa6SoHQKg0bX+149AbS8aA6yd75N2YODF3nwf7AUGgq8agBwr1oAB4laDzS8GNTT+MuFyFHC42Xw/Ije3XhwAec0l30y4HVYQcAbofI/u7BkEzKi50GQXu0MBZCR9Nsj0oktGATcUi7rWSydrvBMDdPH27xfLvmwXAuxg/PFTXw/GAx2YIS70CstuRgcJgHE99n8CwML5K9owQAi9vxu63GSEQIANc7DfgtgcA1DACuyzAx1aUAAMdKFeawgA+P51rjTYaAA2oEMAUYCZ1BEMAEl4QAXgEEA7PIEDAsAADgCgCL4pAgA4wIAAOvCEDo4BAw9QAv+25qYNVK+DdpgDFFgggQAgYAX+N/hCGe6wiJ01YhF3KMMXbrCCHh6ABVA4XQB3IIANMGaGG7FKaWJQAAlAAYcrmkMYnNCCEsBwAFtBDFQG8AAMlKAFTghD/sAIBQkUAAaOwaLdAFClyzzACXME4/XiEAc60IGQgjyfHJzwAMW4x4IvuxMIHiCAEjxhdYnMpCI/KIAHgEBPkKThZJLAgdZIgAVPGIMmEzmGJ/BQLR9QAmX0mBGo3Ak1ItiABIojAQ6woAZPAIMYxoBJ48VhDGKwwhNqwAIN7LKTFhDBLR+JPI3YslFKeIEHOkABCHhKjZkBJwA0dQAIUKADHniBLBtFS4xc01GTcdMS4CJPeM4ylMn+S80LdpkA0djzn495QQIGIAF/lgmfeywNCAgAhEEAwQAGBSg8RWAAIAgCCAQwKFeqmRGplOYAbzCESIFwgMYoQQIETYJEI3NSgq7zAEAQqSFImkeEdpSPjQlAIWRaiPxIQAeC0IEEVgoZCaQgqENtAgB2KtJDKKidF/FoYwgACJkCwgA5JYQhCCEoiQZAq1ydalVFCojkHJSjGOFKaTyQgEAYIhAJ8EBjDPCDQ/ygpER1zAHqetfGsNWtcJXrWUOiRcd4gAAAIIBgmxCDA/jPNnltTAwM8FjDAkexELJpWgPwpnVWZporzRNq7gRVi7wzsqiNTGkrclqigpaoq6X+yBqNUxxOaao4lqrtV7ailbTsdrecIgCoCoDb4loFrVEFwDDHAAc6MPe5zmUuHJgrBgAIQQhBYIACfIBd7XJXCN69bnjBC4DpjuG86I3ueeHAXjqIQSoiyYCMVomfIxihAQsowhGO0IP8GuG++d1vf/UL4D1l0goByIBIpACAEdAXAADW737/a1/8Sti+/42wgROpgQDwQCSTkIoNNIkfC9vXAT2YsImNgGIVB3hkmrSBVCYxkjpIhQPmEyR+AhzhCvN4xSY+woY7CAYOSKUO05nKOAlg2wH0hsmI3e1VXEOVKWtFuJY6Dm0RGxwkm8QwCJDyb8dM5jKTOS2+dc3+ATazkkpM4s1vjkQEaIAFLCDBAJCAs573zOc+TwISBkDCFbBAgwhEYs/ITQkbLKCFLGQhAnjgCB4ikAUtaMECbFgKQSIhgCpYWgYk8MgIZGDpKhCgQpp2gQosjQUCSMIjkiAAFj7tAk1bYg8HqLQWODCCKfj618AOtrCHDewRXMDSWzjAHpZSiQggodQEmIG0p03talv72tWWwQM8rQUkRCDRKFm0pR9NhUSY+9zoTre6161uKkRgC5bGNE0OcAVLM6ECUXhCFPbN7377+98A/3cFqlDpKhjA1gKphJ8UThaFW6LhD384xB2+cIpbHOEYz7jGN87xjnv84yAPucgGR05yhAcEACH5BAwEAAAALAAAAABkAGQAhx8hKyAiLCQmMSYqNSwtNicsOiouOiw0Pi4wNjMxNjg3MTEzPkRDM1lWOHhxPyw1RS44SSw5QjI1Qz4zQDQ7Rzs9RjU9Sjw/SzE+Ujs9UjZBTzlATDNBVD1JUzVEWjpGXDpJXTZJUjtMZD5bZD5Ubj9VcEBBQENFTkFEUkpMVUVMW0hKWEBGWE5QXFVWXmxNXH12QGtqV0pMbU5WZk5YZ1JaalVXYUFZdkRde0VVc1BSdk5hakVgflpkdV5oeV1meEpze2NkbGVrd3J0eqKXSKabSa6iS5yYcqikea2ofNKcb/u5f+bVV+/dWffkW/jlW1tdiEZigUllhUpniEtqjF9hjVh8hE5ukWVvgmdxhGlzhm55jWt2inp8gmFjkWpsn3F9kXl6mWttoG9xpnd5s3l7tnV3sLRziFKDi1iPl1qTm26NlHSAlXmGm3eEmX6LoXmbomqxuXG/xnLCyXbIz3jM03fJ0IWGjJCRloGOpYeVrIWTqY6dtYGmrIautIu0uqamq6eorKyssLq6vbW1uc2Bl92Lou6UrPSXsM7Ij8jCi9/Zmeninu7nof72qpubw4+6wKKizL2+wZrJz53N0qDR16nd4sbHydbW2NfX2ejo6vLy8////wAAAAAAAAAAAAAAAAAAAAAAAAAAAAAAAAAAAAAAAAAAAAAAAAAAAAAAAAAAAAAAAAAAAAAAAAAAAAAAAAAAAAAAAAAAAAAAAAAAAAAAAAAAAAAAAAAAAAAAAAAAAAAAAAAAAAAAAAAAAAAAAAAAAAAAAAAAAAAAAAAAAAAAAAAAAAAAAAAAAAAAAAAAAAAAAAAAAAAAAAAAAAAAAAAAAAAAAAAAAAAAAAAAAAAAAAAAAAAAAAAAAAAAAAAAAAAAAAAAAAAAAAAAAAAAAAAAAAAAAAAAAAAAAAAAAAAAAAAAAAAAAAAAAAAAAAAAAAAAAAAAAAAAAAAAAAAAAAAAAAAAAAAAAAAAAAAAAAAAAAAAAAAAAAAAAAAAAAAAAAAAAAAAAAAAAAAAAAj+ADkJHEiwoMGDCBMqXMiwocOHECNKnEixosWLGDNq3Mixo8ePIEOKHEmypMmTKFOqXMmypcuXMGMi3KQJk82bOHPq3IkpkyZNMhduGtQlhQAAAQAoXcq0qdOnTAmk6DJoU9CBmIYMSIo0gIABXweIHSu2wACzYc+qJTtWAFelAoZgkjnIxdICHkpEucK3r9+/gAP/pRLlhocCSgO4kOQy0IkAkDHgEEy5Ml8qlq/gwLAUhSCVgCokFeBBSl8ppv9KwcGjtevXrXHgiCK7sA4cqf1GyT3Fw1YAEgCdtJE0gAjMfKdIECBAwpS+VAIkmE69egIECKxXB+BXyvLmzy/+i+AaxOrIIUh7cPdr4cWhQy8sQAewpL79+/UT3V9kf9F6vu29F99fAAjh1hAjXQIZGHoE8FcAhiCCiCH/TREAfhhmeB8AUIQHoYSGOOgXAHyAAdklIgkRwAx86PEfXwIUImEhAkB3oYY41scfd8jFOGONI/LBRw0BCCHSAgG00eKLV3wwwRlnTPCBjUpUaeWVWGapxItOQikBCAQK2QYACYgEmR5LAibCARGI8JcBCBCAAJxwYkfAnXjemUAAeC7wlwgLLOBmmEsCYGYAe7QoYmaMAgYFco32RaKQSpn30ZlpRqrppoTyUWlImLoI22uysTbqqbCxRptsrd2A6qj+k3oKgKUehQrAAbiymWsEETwQAa4CHCDBAQtEsICwuSKr7LASPIBrAMnymiyuv8aaFK0d2VrHttx22y0AlVgi7rjklmuuuAHM4e2628b6KUihBsAuu+Cea6+9AKg777dCyootR0mh2eC+3tZ778Hj5kswt+7OCiqiii7McLgII6ywxA3/u5G2EtdhcMX3XrywtQ7DG4DAAHTsMcUg29sBHR1nHBJSKKv8ccvn2tzvux/RvKTNLONsrs6UlnwpADXHHLTQ5KocwM5Ge+Szi0AzbS4lRPv7cNIYL221yATLbDLXI3vN9MsxQ62xRhx3bfXQHT9d9NoZtV322+RO4rT+2lv/rDTe4wYAs8Ryaw3S1Cn/DbglYM9rh9g9n0zp4HcvjvbCcxTOc62S8zFAHIoDXknHcQzA99hCdoBG6HiPLjEaHZx+aedaRED5vje/LfjCdjzAheycoymkBUDwnrvV6S4MhAX9Gj678Hy8MUAaCwdgttCNe5vGAHk0v3m2nQvJxgCr72v94ozr6y3MaAzARvPOBw+/GwXsIMe8xwtdSfZ1zDGCAW6AX/zAlyj47UEFBUDD7bZ1vsUJQH3bogMaDKAC6HkvatkCAPOa5wchgYECD7DCHOzArQYCLnnbmoMVIkABMPChg83TgwW+xxGlPEACBRTgFjoQgBGoQV3+JsRbuuaghhEIIAQuFCAf9gBCGm5EKVPgwACSqMQ89GADAQhBAeAwCbxRAg4ACAEANNCDNyjRgwPAABWcyLYAYIYEAlBBDpW4hyzMwAJ86gANhLAGOPTBD3+ABCT+4Ic+wGENQ9hBB8BCgQ5koXtn5EMeVCAAEvDlWjMLQHimgAEB1MCCkcwDF3xQgxl0YAMWGJawKGCBDsxgBz7gghkj2a891EAAGMgNG+sGAEhpBgJxpCIthdSHYcJwmCWagQb3MiIMAsyNgJGCbwwwA2Ei85pKBMMMDDAADzCTQM58oiYpYxgDBIACM8iCkuBXTGz2Sw9vwAINIACAB+SlMrv+xAhkfCmYKZDAAxAYAAAGQAEV0KAHVdDCFsAAhjY4tA0M3UIWhNADGrDAAogZAAQ8kIPc4DOcGlEKPzNDBR6QQAQewIAFIOAsAxTgpQV4gAEeAAEMYMADIsgBDkaamXxeRKR+IQynhloZwvDTpxaBTHioAAIBIEAAHeApUTUlAqcKAASQQmpF9skXETBgEY5YxAYGdYWSTrWoPIAUCL4aVhOAiS9apQhSkFOARDjirokoAF9uIACz3OCsgLmBWv56BQTYFa8EkBRI6zbO6DTiro5ohIgQgARHIMEAgP0LZS2LALgyArKN+E9cJ5IU5CwgCZBNgp+uAIDHMoJJgA3+wGdfy5cDoPauSTiAYummT2hega9HSMQRBEBYCsRAETGgQGb9YlzkKve3AgjucAnL2sViZK59wcEGELAB6k5BA9yVKlG/ewANhOe3GzjABna624edd7mbEi9gRisRoMY3qNAJ6kjl+1HeXiQppnrNqqJAmwHjIAckQHCCScBgBOdgBAxOsIIhXIIFw4bAs5mNawJM34hAxgAgBjECChDiEocYMZBJsYpXrOKlqDjECDgAnUT80hAfAAEdhshRICmkY57RRU94AhMY4IAgDxkGRiZykmHgBCcMOVbY3AMABCCSFAQgC+5cIgCErOQnOKEITOayA5wQZDA3ecgOKBz+NrMQgBSIBA8BkECWXYTmIDehCU12MpHJfGcv63nMar6mBACAB5FsAscrAOUZ/eCiLg+ZCGfeM5eJ4OUjNznQw2QBABDgX4xcwi0L+IEbHkrqUrMBAA0wghGIoIBUr7rVqma1q2VthCIYIUmlznUb2PCDA0wZRSS5BJJSzJS3QOXYyH7KioudlAUA2ySACMIJKkDtaiMJxBLgE7UnUO1ue/vb3ibAAEBcgAAsoAIX6PYJgiCcmGxCAlAoQxm8YIBOO2QTBvACGcoAhQXYuyV3yIC8yRAcjgBCAvsuQwbucJWCZEIAYpC3DlbgkRXoYN9fGEAmGj4QG+hA3mMQAAqcVkDyFaSg5ChPucpXjgIBjEHeMrABxzlBiAMknAUrCIPOd87znvv85zxfAQvkbYYDEKLh7473vAvwiEg4/elQj7rUpw71RxDAC/KGggT+bZKAD1wCF2iB2MdO9rKb/exmvwDC5b3wqxwg4vO+wCDmTve62/3ueK87ISQxCEJkoAoYN8DMB0/4whv+8IhPvOIXz/jGO/7xkI+8RgICACH5BAwEAAAALAAAAABkAGQAhx8hKyEjLCwtLiMmMSYpMykrNSYsOSkvPDMtOSwxPTY2MDI0PTo8PUA6O1hUOC01RS05QzE1QzM5RDs8RTQ8SzI+UTs9UjNASjtCTjVDUztEUTVGXDlHWTdIXztLVjlMZD1SbD9WcU1OR0FDR1lZTkFJV0lLU0NMWkBCW09RWVJUW0pMbUxVZEtZZVxdZVNba1VXZ0BWcUJbd0Ncek9RdVRbcn9WZ1JmbkZgf0ZrdFtkdV1meEpzfGJjamNtf4R8QaFpfIqCQ5mPRqabSa+jS4WCZaCcdLGsfsSTavu5f9nJVOTTV/jlW1tdiEhkhEpniExqjEZigV9hjU16g05ukWRugWlzhmt2im15jGB6gnl6gGFjkWpsn3J+kmttoG9xpnd5s3l7tnV3sMR9klGBimqHjnqGnHyJnneDmHOTmm6Mk32LoX6iqXygpmittWy1vHPCyXbJ0HjM04WGjJOUmbizgoGOpYKCpIeVrIiWrYSTqZqboI6dtZ+gpI64vqeorKOkqbu7vrW1ueGMpPOXr/SXsNXPk+bfnO3loP72qpqawo+6wJC7waKizLy9wKDR16TW26nd4sjIy9vb3dTV1/Ly8////+fn6AAAAAAAAAAAAAAAAAAAAAAAAAAAAAAAAAAAAAAAAAAAAAAAAAAAAAAAAAAAAAAAAAAAAAAAAAAAAAAAAAAAAAAAAAAAAAAAAAAAAAAAAAAAAAAAAAAAAAAAAAAAAAAAAAAAAAAAAAAAAAAAAAAAAAAAAAAAAAAAAAAAAAAAAAAAAAAAAAAAAAAAAAAAAAAAAAAAAAAAAAAAAAAAAAAAAAAAAAAAAAAAAAAAAAAAAAAAAAAAAAAAAAAAAAAAAAAAAAAAAAAAAAAAAAAAAAAAAAAAAAAAAAAAAAAAAAAAAAAAAAAAAAAAAAAAAAAAAAAAAAAAAAAAAAAAAAAAAAAAAAAAAAAAAAAAAAAAAAAAAAAAAAAAAAAAAAAAAAAAAAAAAAAAAAAAAAAAAAAAAAAAAAAAAAAAAAAAAAj+AC0JHEiwoMGDCBMqXMiwocOHECNKnEixosWLGDNq3Mixo8ePIEOKHEmypMmTKFOqXMmypcuXMGMerERJks2bNh/h3GnTEc+dlCrJVHgJUA8JAQAoXcq0qdOnTgNE6AHo0tCBgVwoHZCUwIEHBw4YeDB2LAIED9IaGEs2bdu1bcMSCEBXqYtAMv+MSArgwYcZUKgIHjw4MJTDVAInTvwksWLFjQVDmfHhQd0RgFpWorNg6wYnhEMvllxY9GjFpgc76TAAgFQ6QlHSmRvAwAfUMwCHlhFDBgjeMYLLCEE8RPDjyGeEnqxc8gcDSg/QMVlJRdIBIAhHOXAWAWjJABr+MGhAvnx5BuPNmwdAeAaAswe+JwbROkCK2CJ7ACBQhT3hBzYUUggQDxQGQBIIJqjgggwmEcB/QAhoQ4GEAWBFAQHcMFIgAAxgBh7+DQbAIIQQMggAiEERQIMsNhgiFSOWeGJoAPBxBl2O5AfAC3yAGBoBY5Q4RohQHNgigoa0+CKQJg5iAI188OFCAD2IdEAAZ/T4IhUfIAAEEAd8UFgASJRp5ploponEix8c8GWYUPKBBgAHiEQXHlqKBgIFF2RXWAQLBCqooGcB2t2ggUoQ2p4Q+FlhlHkoZWcAeuSZ2qWYZqqpiFHykRR+Ht1p6aalkWpqaAF0+mlIdFUK4nD+IcgwnAy5zRqrDDjcKmsOsvbq66+9/hZCbjP4mitx7nWqFKgd0ZWHlhRkcMG01F5AAZ/TGkAtBtxOgG21GEyLAZ/hTguABNWmSy0FNUa5LKsB4AmiHPTWa6+9ADwSyb788gtJvwD3GwAc9xZMb6ruAsAsR6LOa3DB+QYs8cT7AkDww/XGgTAf74LUMAAY3xsxxSTza3HI9GqsrMIhKSUvyCjTO3LJFENyMspxtMsxyyC5rGXMMutLM8k3o6xzxx8p9azDMc88tMQtxAH00TwnDcCzkQIth9NPB6w11Qtv5DPTRgvdtcRfrxy2Rh9/bfbZAKed8NoZjQ1z02/Dva/+H3LvTDdGrr3stt4AFx0y2PAKPnXeekc9tdqJ/7w44XE/PnfkZB/OONyM9I10qAAojjflJl9sNOQ9xyv56KRHYjjGiHusOsema956JC0ADUfsHyWFJx8GuDH57UC7cQDqVv9+whRSl337IkBPcQLyoP+ORQLN29766wXHkQAW1Dc7Ox8a5MA66dzfm4MHnfrdcuid2mEAGc5vX3vBZBiwRvufi/97lGY4AA+0h7772YsHBTBD+9wnu/9FaQ0R8MAbHsY1vaXvDR6AwP4W2D+GBcAOC+RDHl5AAB4YsIJwex0ceECAFzxrgSCqmkeUEoFKhdAMHhgADyZYLxSerWj+b8iBATSgwBDqIQKrkl0FErDBG6ZgABkgwwR92DWLvYEMGSAAC9AQwgcmoAId3EhSnsCaKnQRUlU4wQAgUAA1+OFfcIOEH9IAgAQM4ARVeGEXq0CADsBIhs0CQGNkYAALNPGMZdDBCa4UgRPcIAtlSEMb2JAHNrChDWkoQxbW15kFeKAFXDzjAy1ggBAIJoxsCwBkNnDHQ4oyD2iwwg5e0IITaOCWuDwBC16wAyugQY+i5MMaThCADaAGlXVDEWGcUIEBaMAKwYymNEVZBQ1AUT6nBKQHUTOYJ7RpACWwAginSc4Q2qEKJRiAX7gpIm2KMQCRMU0UPoBEA5xAB1j+GGc5u2iHKyjySn6JAqaQCThlXkoxlFkiXRJAAQ7AoAY6qIIVsHCFilbUClXQgQ5YcIILJGChFfgLO1ND0IvQZaSacsIMQvCBDWSgAhVICwRmCoG0UKACGdjAB3oTz1OV1CJJ4WYUZoDNUxn1UkMVaIXcyTZBSkYDBNgLBlB6VKNCIQMDwEBWj8nUjJxUMBwQASISgQgReKCbMuhpVU3jhLQOxgNiJatZ2/k3k6pSMAQwRCL2aggCCEYGA2AAAWKw1tTEgACCNSUV8rrXRPSVru8zTADGuldEPIgKBahDIupQgMKaRgCa5axgJttYRITopxX5KhUiYITGGiECoz3+RCIOcVnPEiYAsqWtYFjrWthms64WUQpCB1CEOhSBADIQzAVIcAQSUMC2oVlucy8gGBwQ17jIhazHDEqFKGhAAhrAQWE8QAENUHWtUPCABDwQTxxoYALhXSpwUwtP6NpXU6iliGvUOhpNndeqmSpSVzFCl94Ai1YHlsEHFszgBnOgAwzuAIQXLGEKfwAHtepVsRIsg/xOhC4RiAAEQjxiEYf4xAs4sWsGMAABrFgAXAkAjJMiY650aMZSAZRMT8zjHntYInPR5zRBxAQmKEEBPyjykZNsZCQr2clN1hk57SBjkaQgAD7YJ5GXXGQmECEIT2ayl8Hc5B9sjJxVsI/+SPYQgAQAM5og4jITlrCELsuZznZ28pmlmYeP7kEklZgAADBgQ2mCCMpHHkKYn6zoMhd5z8HUAwYAMIH5WoQSGGrhRNHQBSxwugugDjUWAOAAIQjhBwIo9akHoOogpNrUrla1EAKAhVDb+tZWIGEACkCJkkzCBEqhC1+gQuxiG9s1rqnLUmQMABP0+iSB8EEPTCACE1jbBBPIcQQMEAFro+Da4A63uMOdAAKcOAATELcLfIAXmUSgCWEIwxYOYGmGVOIAWwgDGJoQgXqvZA4WiDcYIvAHjvwhAmCItwXmcJWCTKIAXog3DeZybGILe9kAKAAN4u0FAkyi4QNRwQqQ4v0FAtxBEShPOR9SzvKWo3zlLlfEHQjwhXivAAYgt4QgDiCGeKMABo0IutCHTvSiG33oNEBBvMWQAEE0vBLvjvcWCFDxqj+FAPkOQxMW4G+SAFzgEdhDJcZO9rKb/exoP/seEK5whg8lARGXtwlIYgIp6JsLdcq53vfO9777/e+AD7zgB0/4whv+8IjPSEAAACH5BAwEAAAALAAAAABkAGQAhx8hKyEjLDAwLyQmMSYpNCopNSctOikvPSsxPi8xNz08MjM0PTkxPT45PFFONnhxPy80Qi85SzI1QjU8Rz0+RzU8STk7Szs9UjI/UjJASjpBTTNBVjpFUzZGXDdIXzpKXTtUXTdJYDpMZDxRaz9WcUdIREJETElLU0JLWUBDWExRXENRWmVkVEpMbUtTY0lZYlJba1laY0Jbd0Ree0hUdFRbcnVRYUZgf0hud15oelpjdVpxeWZob2tsc2JsfnFyeIF5QYyDQ5mPRqabSZKObKaieK+rfcSTavu5f+DPVurZWOHQVvfkW/jlW1tdiFpch0ZigUlmhktpi19hjU58hFB+h05ukWt2im96jmhzhmFjkWpsn3J+knZ3kWVvgmttoG9xpnd5s3l7tnV3sK5whMl/lVWKkmiFjHWBlnqHnHOTm3uepWmvt3C9xHPDynbJ0HjM04WGjJaXm7+6hoGOpYuMqoOQp4eVrImXromYr5ydoY6dtYKoroautKWmqq6vs6+wtLOzud+Lo/GVrvSXsMbBitHLkObfnOjhnu3mof72qqKizLu7xJbDyaDR16nd4qfb4MjIy8TEx9fX2erq6/Ly8/////f3+AAAAAAAAAAAAAAAAAAAAAAAAAAAAAAAAAAAAAAAAAAAAAAAAAAAAAAAAAAAAAAAAAAAAAAAAAAAAAAAAAAAAAAAAAAAAAAAAAAAAAAAAAAAAAAAAAAAAAAAAAAAAAAAAAAAAAAAAAAAAAAAAAAAAAAAAAAAAAAAAAAAAAAAAAAAAAAAAAAAAAAAAAAAAAAAAAAAAAAAAAAAAAAAAAAAAAAAAAAAAAAAAAAAAAAAAAAAAAAAAAAAAAAAAAAAAAAAAAAAAAAAAAAAAAAAAAAAAAAAAAAAAAAAAAAAAAAAAAAAAAAAAAAAAAAAAAAAAAAAAAAAAAAAAAAAAAAAAAAAAAAAAAAAAAAAAAAAAAAAAAAAAAAAAAAAAAAAAAAAAAAAAAAAAAAAAAAAAAAAAAAAAAAAAAAAAAAAAAj+AC0JHEiwoMGDCBMqXMiwocOHECNKnEixosWLGDNq3Mixo8ePIEOKHEmypMmTKFOqXMmypcuXCy8dlGmQJsyNlCZF2ukokiSfO4H+5Bk06NChkyjZvImQ0p8fJgIAmEq1qtWrAaRazUp1gIkffygxJSipx4CqAwgYgABh7YG3bNvKbWugbly6EA7UJXC2aw9JTAOd4Hqgg4woUqwoXsw4sWPGi6Ukhrw4iowOELieCNTykh8KUwdggEK5tGnFk0+XhoJBagALfpaW1LMgdIjUUEhDviGjt+/fv2nMAC7jBuXckUMQyLpAj8lLMUKLSB1FQoECEKJEBtCgu/fvDCT+fB/fAADjKAuuL9COWoTrGLI/9gBAIId5xhFsDBpko8J2JAAGKCCAhgwo4H2K5befDRJABoAXBgDQw0iSABAAGncgqBgAghBCiCAIShGAgSSWiISGAQiyH4gO7sHFWYyIxAMAMOyRoYMdElLGAJGNaOKPAGo4QBkrEtDiHjAAwINICQCQho0aWhHCAmSQwUAIPR6h5ZZcdunlERqKwECVC3xwZBoBLCCShXdASZkIEkjQQmMSLGDnnXYqwEACDDCA558NMgYnBCNQBsAee+BhYXwbsemmaampJumkph2K6FSVhJRVmzdSGlmkVoBKmaiSWroHpiFNxSkAwJEw3G/+JNzg6m838Ebcrb6RACussg5nKqogbQplBsQWa6yxA2hArLIaMDvBBMou22y0FBALwLHYZlBBBr8CkGmwAKwKx7jkllsuAI448si67K6rbrvwPqJuAG6Ya++43X77kaMZ3nsvuvEGLPC69Pprbr6ahgulwQe/O/DDBNfLML6InuqtpgGIO/G4AzgMscCOFLwxwsFmvPDGcAD88cMASDwxyfua3C/KKq8s8Apv0FwxsB8Je0cAKKfssc3xBg2zR/wCTfPQRLdr9M4Xg5R0ziMz3fS6T18adc8yA0D1y1Y33UjWFuuLtMI/Gx020S3rrLXZHfmsdNVXx7sC2Tx7JJX+xnTXDS/eW+vdtdp+tzs2ygFADTdHe5/cd+GPeO12Hnl3xC8AhEPuSNsjK45xm6e6zHDNhd+9sRsA8PF2qibvQQAbS0POLspsEOC51K2jYEbssh8+sRkc3N6zwntkYcDXBpPudwDI3/sGAlcIj3Tre2iAw+OFc24wDhpUXPbnFdNBwO6jr22z9veaQQAd3lfOkaMVo0EAFXC80Ty+5q+MvrlUEICG998rGegqlgYIgEB058ofxDaHwHG1AU5pUF37Ame5ANgBgDZygQHMcD/l1W0ACHRDFQzgAjxgUFEUZBwAKmBCDHJhAgjAQRsSKLvIuawNVDDABriAQRtZwH3+G5FKBCDAvh5y4QMBAIEZ6uXBq7XMDWYAwQBQwMMe2kECEQCiRqYShQ4QIHo9tFEOOHAtA6ihEZDwWyPUcK1k5eCCYbwCATZgBS1mRCqJkQEBUgDHMN7hCjDgAF8m8IIdnEENa+iDIhXJhzWo4Qw7eIEGAkAADqjgCi0MYxpQMAASbCiFjQoAe6KAgQG4oI9hRBQdsOCFGrgABSbQwLOeZQEOoMAFOvBBF4qYSkTZIUkbYE8dQamRrESKNQFIARb2kIdeOtN7EnwmFjg5GgcR844AEFUX6+KCLAzwmeA84RVcMAADhECYjLEjRixEKsXMIASZgYALcoChaIYTg3f+QEMOXBDPDsxANeq8CB4nJQUShKACyxlABTjgAhjkwAtZuAIX0MCFinLhClnwQg5goAIOSOAsBohAB0jQTmsuLojZ9BRjoECDEYRgAxiIwBAPAAEE2JQtMsXABkQwgsOU9DQBtchUIiWFGaBTpZ76KWqMatKEpYYDA1hAADjQGKRaFVQbiOoAOJCaoFbEmIr5QAkQoQhElMBMqLmBUq2a1tSIlaxmReswT7rFlFqBAIZQhF4NUQDFyGAACSCAJ9l6mr8mYAAyUEwB8rpXI32SrncMgGMAkAi9ljUAoTKAERRhBAQQ9jQJ2KwRErChyuoVEQjyKkXAagUJFMGyRVj+wIbgGqXPLgYAtFXMAl6r19je9prrlKxfCUCEQhCBAIm1QgZYMAcWZMC2pVlucyegGBIMoLjHTe5cEybMGWhgARr4J2o4sACuQndUHICAed353fCmE7gCFe5550sp1U6EtUhdK30bYyHIYkQquvKNrHDlGxGIAAQGFsEHEswBDyT4Awg2sAccnGAZxMrCM5iBqzQ8K9/MwL4SsRAEJDBiEseJxHGJEwIWAAEADODFA8jKi10D4wDMWCo3BsAC4sQWFJ+4xyVGQFb8e5Hl8HIP9uxhhprQhCUo4AFMXoIDWBDlJzM5CVZuApZNheQe9sF7dqCkSAbjhXvuwQ4AaHL+lpkwBCBUGcpMbvOVn5w4M2chACcQiRwCIIFmhvNnToazEpTAhDczedBM1rKV63xPqcpBJJWoDQcy6cyfZdnJQ2ACE7AMZyxnWs1w5rIz85CCNBEZI5FYjgF0YNFWu/qiAXCAEIQQBAHImta2nnWtb73rWQsBAGd49auxUIMD0CcSJZkEBbLC7Ks4+9nQjra0s2KCSZzkEn/ogQpOwO1uL/vEA5BACrpN7nKb+9yBLXEAKGBuFfTgD4xSSaSdIAYxaKEAgWCEvvfN7377u9+BKIAW6u0ECcSbKXG4QL3DwBYLONzhErBAnCAucYpXPOIVyDjEIRCGel8gDmMxyCShCvCFetfgAotIucpXzvKWuzzlF2hBvbdAAGuHfCAxkLkYwDCALtTh50APutCHTvSfd6EAYKh3C2Jwc4EEAgEdF0MKJHDuqlu96uKu9xgWwJmQX0IC9LZ3ARZ3cEuUnSCVOMDAxVDwU6Mk4fUWgwT8IBI/SCDuHw95ArZQby3kWSSXOIEWOv6FBDS9M4dPvOIXz/jGO/7xkI+85CdP+cpLPiAAIfkEDAQAAAAsAAAAAGQAZACHHyErICIsJCcxJSk0Kiw1Jy45LC86LTI8MjY+Njg6R0U0TUs1WFU4YVw5LDVDLjxFLzpLLDdIMzVDMzpENDxMOz5JMz5ROz1SSztJM0ROPERUNUVaOURYO05lO09oPlRtPVliP1ZxREZOSkxVQkpZQUVaW0NSR1BeSVBfSkxtTVNlTVtnUFFnUVRoU1xsWltjRF57Q1Z0UFJ2SG53RmF/RWlxW2R2XXZ+ZGVsf3xiYWt+a2xzc3V7d3h/npNHlpNvs65/7a96+7l/0sNT28tV69lY8+Ba+OVbW12IWlyHR2ODSGSFS2mLSmeIX2GNUH+HTm6RZW+CbHaLa3aKcHCOYWORamyfcX2RfX6Ra22gb3Gmd3mzeXu2dXewU4aOWI+XW5WdbYyTdoKXeYabe4idX5ykf4yifJ+mY6SrbLW8c8PKd8rReMzThYaMhYaLiouRj5CVkJGWuLOCgI2kh5WsiJatiZivjp21hayzjri+p6istbW5yoCW04Wcw72I2omg446m9JewysSM3daX5N2b6uOf7+ii9++m/vaqoqLMvL3AmMXLm8rPoNHXptnepdfcqd3iwsLFz8/R0tLU3d3f7O3t4+Pl8vLz9/f4////AAAAAAAAAAAAAAAAAAAAAAAAAAAAAAAAAAAAAAAAAAAAAAAAAAAAAAAAAAAAAAAAAAAAAAAAAAAAAAAAAAAAAAAAAAAAAAAAAAAAAAAAAAAAAAAAAAAAAAAAAAAAAAAAAAAAAAAAAAAAAAAAAAAAAAAAAAAAAAAAAAAAAAAAAAAAAAAAAAAAAAAAAAAAAAAAAAAAAAAAAAAAAAAAAAAAAAAAAAAAAAAAAAAAAAAAAAAAAAAAAAAAAAAAAAAAAAAAAAAAAAAAAAAAAAAAAAAAAAAAAAAAAAAAAAAAAAAAAAAAAAAAAAAAAAAAAAAAAAAAAAAAAAAAAAAAAAAAAAAAAAAAAAAAAAAAAAAAAAAAAAAAAAAAAAAAAAAAAAAAAAAAAAAAAAAAAAAAAAAAAAAAAAAACP4AMwkcSLCgwYMIEypcyLChw4cQI0qcSLGixYsYM2rcyLGjx48gQ4ocSbKkyZMoU6pcybKly5cwYybEdKmmzZs4c+qsiUlmQ0lwcGgIQBSA0aNIkypVSpRoBhxwJPkkaOkNAgBFm2INYLToUqRcvyqV8MaSzEk7wgqg8CFGEyZQ4EKJO7eu3btz5d5lwgSGBwgDmu6Y5DLSi6YRYujF2yRvY7x25fKFXJdJDAhdX0RSuWdEUwswKi+e2yQJkyalT/NdzXq1EtOj4+qlYaHpiD0neTTdsKRy7QAUHs/tKrY40bsXiF7Qu2QD1wA8SrrB2gLAXQsmAAEycaFuEwBChP4MCi+evHny48MPCmD3AgbtJizcBeCCa5uRk7hOoWPdboA/gQTyB3t5BXDegQiaB4BpcwkAoIAE1gXAHVIYRVhIup1wRx391SVAHwH2EeF36SVoYngdQhEAiIGION8dd6AAQHQhIRCAGHfwdxcHGPDBBwYceAdAEEQWaeSRSAYRIRQ8+gjki3dcAYAEInFVR44pxsXBAAQEmVcSxYXZFHIEDOClXRNuaFSVAdCR45KUxSnnnHSmeYdRl4RElJs67kXnn4BSZieeeraJZWusvaXaaooimihfqKkWqaOKKjooAHmCtCeWYoUFVphHNZUVcaBemulHm/LHxqqsttoqAP6NQCLrrLTWaqusAajh6q6rmloonwDwyiustxZbLAC6CvsqjHdiGhJWfAagrKvEGmvtrMhOy6qvmhqqqra9xnrttQGkAS4b3KIKALDnoivuuMZmC266Hhl15bfzvgvvrRIkqy29HVmpZrvV7lsswcwSqum6WBKsr8G1thtAws526yaHDkN88LkAcwTtwBw/rDEkjyAMo8KoGlqHtCGPXKsA/k7b8Uabrpyxy7NOsAbHFJ/qUc3BtozzrCY363PA3gad79CylnzuxCdXrC67Qg8NM89RH81Rqkr/K7LGuWJt9LMAXGlH2EszfcDO2qoRAB5Zk33lHQOYmzbT56YhQP7PepYNowZeVI2z09p6oQHfINkLYxQTCO7y1dOu8YAOiE/NrAOBe800JGgr68UEzI5tMbNjBFCG5kzLK2wZAuBY+c8MMzuFAGDI/LXBjqju6hpgCDBF6KJbHvoVBMwQ86u375v78auqMYMBVMAdOso/Gwq8GRo8UPuuBePcOatgOKCBGcDHnXgAJJS/+AEZfLEG2+5urvoaX2RwQBTq30EC9R0ZJb6bwMODHaIggQLUAA3v657GHLG8NaChBgWYAP7UVwcNOIB/HgPAEiBggDHk7w5iWIEBCrCCtzkCZ47IAwBAUIADrMB16hvDASDwHanBDi4dEIAL7PDBO5DBBv4kOIAAJrCCG4ThDHjIwyIWwQhGLDEPeDhDGG6wggoEoAAVsAEZelgHFwigA8OxIdLkogQHFMAGPWQWHcLgBBecQAQTOMAABEDHAQzAABXgwAlcoIMrADCNNiiAA5QgFwzSDACLiYEDBuAC8qWRWdJ75CPN4AJBxmA+YtxaAGIDAwsMUYuSDOUHfygBAYAGMobUiFFik5cPQEAAA9CADaTwR1Hmjw5SsAEHCiAACHyAlWHU2kawAky7KMEDFrjgEDnQAhtEQQpXGIMZ5jAHOtBhDmYwwxiuIIUo2GAFGpiAAADgAAt0IDR1yuQwERmouCghBh3YgAUg4IAD8HKOTf6hoyAjEIEMbMADMVhCMQWlTlWyMzLtTGigYpPKjBBFLx0gQAAI0IGBKjRQHRgAACjqn4I69KAeSIAgECGIBHjALsK5qJwmM5eQjrSkYJwLV4SpkYfOhQB+QIRO/UCAudDgAAA4ADpVihcYAPUANLhpTnUqiALkpaEYsSkTAHAInSLCEARCwA8O8QMEEBUyWuXqAWRqCKsWokNQvQgx53IAIFgVCGNVUVkJAaevqqgQiCgEgQ4gh7fGVUUejepBP0AAIBQCCARQDBQQkINB5EACdr0LYx07Ab7EoLCEQOwlZRrYi9h0Lh9AgAASEIK6KGECwFFCZO2yBHFOoDdzif5BAgKQgM0Gs1AWXe1q02oRoqRUt8CtDFZo6tAACBRSkJoUopSwhOY697nQje5zEdWo5LJmuH3DSqm2y5TncDcpogoAcTEyzlpG8pYAOMIRirCABhhhve19L3vdC1/3GoG9drrDeW9JFJGIIAC/EyWH6vveI/iAvvMt8IHl2978SnIKABCBSN4AgArYkj8JPoIRCkxg9XI4wQ5+ZAUA8AaRVIIAAFCBgAEQX/j6QMPsZQCDX9xhqIWSBQEYQCVGsgesSCAKZqhDHegg5CIP2ZpzAAADiECEIShgyU1+MpOdDGUqM5kI6yKyNYfM5SLPgYBEwQ1J9mAAr3z3zGhuiusBxFySSsBhBFdBs5y1axwCjAAOO4YJJiSQBC5woQoDYIGgB03oQhu60C1QwQCqwIUtJEECPZlKQdxwAT9vQQJUSISmN83pTnv601SQQBf8fIH7SHoglBCAFfwsAwpg4dWwjrWsZ03rV09ABn7OggAocWqBvCAFuS4ADnhA7GIb+9jITjaxcTCALPg5BS/oNZlHzQUMSAEkVCiBn7uwZknvGQl+roIB8uyRSxiA0Vx4dKRl0oZK+1kCehCJHhCwBVK7YSoGcDYXkDACkowA3FywAgF6TfCCG/zgCE+4whfO8IY7/OEQj7jENRIQACH5BAwEAAAALAAAAABkAGQAhx8hKyAjLCQmMSYqNCwuNycsOSouOysxPDMxNjg3MTAzPkRDM1lWOHhxPy0zQS84STI1Qz40QTQ6RTs9RjQ8Szk/TDI/Ujs9UjZATjtBTDxEUTdOVzVFWzpGXDdIXjpIWzhOVztWXztLYj1TbEBBQERGTkVIV0tRW2xMXHx1QGxrWEpMbUtUY05ZaFpcZ1NcbVVXYUBXc0JadkRee09RdVBSd1ZaekNlblhiakVgflpkdVdgcUx3f2Nka2FrfWprcnd4f3d4fqGXSKWaSa6iS52Zc6ejea2ofNKcb/u5f+bVV+3bWffkW/jlW1tdiEdigkllhUpniExqjF9hjU5ukU99hWRugWt2iW96jmdxhGlrnWFjkXF9kWttoG9xpnd5s3l7tnV3sLl2i1aMlFqTm2eDinWBlnmGm3yJnn6MoXmbomess2mvt2uzumKjqm+6wXPCyXbIz3jM04WGjISFiomKkJCRlpiZnoCNpIqLr4WFp4OQp4eVrIiXromYr4uMsI6dtYmxuKSlqaeorKyssLa3us2Bl92LouyTq/SXsMzHjtHLkN3Wl+ninu7nof72qo+6wL6/wpnHzZzM0qDR16LV2qnd4s7P0dbW2Nvc3dLT1eLi5Onp6vLy8////wAAAAAAAAAAAAAAAAAAAAAAAAAAAAAAAAAAAAAAAAAAAAAAAAAAAAAAAAAAAAAAAAAAAAAAAAAAAAAAAAAAAAAAAAAAAAAAAAAAAAAAAAAAAAAAAAAAAAAAAAAAAAAAAAAAAAAAAAAAAAAAAAAAAAAAAAAAAAAAAAAAAAAAAAAAAAAAAAAAAAAAAAAAAAAAAAAAAAAAAAAAAAAAAAAAAAAAAAAAAAAAAAAAAAAAAAAAAAAAAAAAAAAAAAAAAAAAAAAAAAAAAAAAAAAAAAAAAAAAAAAAAAAAAAAAAAAAAAAAAAAAAAAAAAAAAAAAAAAAAAAAAAAAAAAAAAAAAAAAAAAAAAAAAAAAAAAAAAAAAAAAAAAAAAAAAAAAAAAAAAAAAAAAAAj+AD0JHEiwoMGDCBMqXMiwocOHECNKnEixosWLGDNq3Mixo8ePIEOKHEmypMmTKFOqXMmypcuXMGPKnDmwUyQ7P06UmMCzp8+fQIPyLHHih51InWgSLORCAAAAAaIGgPq0qtWrWLNWldqj0MxOdyBULWBBRAwZOWbkWMu2rdu3b2fMkCHCQgGoASTcSdqS05wDTwdwgEKlsOHDiBMrXnz4CYcBTwnM4aRyU5CoAA6MYMw5sRQpnRePuBtAQJBNJwU5DeBgs2ERByCIOCzlAIHbtm/r1i0AAYLeBBDcVkCbhQMFsw3HcBB1gKCSgp5qAICYQwQxYiJ0MCwFAJLv4MP+ix+PhLphDgqwa6cdIMPU5yI3CQjwok8AxAMMJUpkSAB3AEkEKKCAjAxoYICLAOAEaFTkt58h5hkGACA2ACAAaiHR0R4gfURYGACH7HfIfVR8BuCBKKboIYgiekjFhIBMR4dIEwSABSB8uIgBCoggggIF3AWQ4pAGekgBjz5igBiMWAQwgUhR7YGji1GIBQAEUQTp25ZbHsDll1ySWFgUElj4QJaHwbjHU1AGwMeUikWB5mFQPDFCnU/E9cQMe/bpZ2JyKgYjIFPx9VFUb+YY2qKMNjroU4Z6NFWiLjZq6aUvAqIppCEhOuUBoB7gQKikgjpAqaimasCqBhxggAD+qab6KACRduRpjmuwscauvPa6KwCBQCLssMQWa6ywALjhK6+68jprrRxBRakc1FZrrbUAUGLJttx26+232wIAx7XkUvtspwBMWy652YLrrrvirnvtuSDdCoC882r77r7cBvAGvtXSeygAfUwJcMD68rtvvAcL7NFT6jacsMLwjtuwpoBwWi/BBh8sR7sUvzuJxx9jrPHAEQMMcsjukuywrW5yeK/HK7P8rcsm0xqStB1LbHPLNOcM7UaT9qzyxD9vq0EcQW+qc70x5+gy0kkLYLHKQu8c9cw+J93tyE1n/PShW0/ttbc4Oz20RkVLTTPVPy8d9smSlv322dwyjLX+2lq/mTHTXeMNAOD4xvEyR54CIkAbd+NtiSQevxFA1hv7jQEZjTvuMRkYUI6ypjpskPnZcgMMgg6ePxwzjgVgfrTjlui9LhkF+C322hklDsgVBTCOb81ey05uGwdcgfHtnQZQMMY6HOD7usAnLby1bByA+vF0d8Tz8ToM4Hq50dtcyfTU0n499mPXbTvGWBwQwvPYwm3z9G3AVsbxqWtPH/6a8tHCADdgQ75gJ7s23GAALVgfxmxQKHQN4AX801Qa/reBMVgMAJUg4LjgMIYQDIAFaYggIF7glPRpDwBPKIAGFIixPegAAwLYQBUAMAnHjY8HGwBABnTAwv5poAD+T8ge4gDwmQcUwHgixFEWTgCYDOygDGoIhCTkRwlJBEINZcBBBgQwgBNYQUpJ5B0FQNNAqDFoBAPQgBmS2EIs6IAFGoAAZABQgAE4wAEFuAsABiABELBAB1gAIxvNUIEBuKY7JowWEQ/DAQFYAIls5N8e0oCHM6ThkmqIZASvUAEBiIBBhSnjwEBZGCmIoI4swIIfNMlKTWKBBQMowCcTI8q6kfIwM+BAAQRQAR1woYetjGAazKADC8SSAzNgjBA38pRbJsZOFnBAZjDwRytggZLLE2EfLokFK7yRAndxgAVG8ITQLJNti2SUFGYwAg5Y4AF4nMoeubiqAQyghAL+KIADHoABD4wgB87kzDkz0kxMxekJCOUTQp9AGIMmZqAYiQooZUABBEhABg7NqGFkIIEDUACjEkok0dIZgwEUYRFFGABIS6nRRo2AACdNaQwMU8sTMkgBR3iETo9AHCpEAQMHwMCcWjomDBAAAzfN6U57+iKRopNBAHCETh/hCPNIQAWKUIEEiHoYDGBVBUp6kVR16ggxQfQiEi0MARQxVUUQ4EONeEQjKqXRAMR1roUZwCLa+tYPOTV3AUCTB0jAiEcwggQeKMwBjPAIIyCAq4YhAGON8FYphICwhkVsSHEX0QCAsgMB+M0GNkqAWK6Uqzmwp0oNs4EAECAAH0j+018xUlDuPOGWUrgtZGmjW9oAdEmzvUhtd0vc/wTXIlMBZUAttVyunhW5dMyjdKdL3QIQgDRSyS5mnrKa1TxlKlOR7nWrS13bPLciUzHDGdbL3va69wxmAAAR5suABAyBvvbFrxDwe18iMAAA7w0we9EQ3wDQKABcCCaOAtCEJjRgAUposBAg3AQmPDjCTZgwhh88qFZywUkiAQIATKBgPjD4wg1uwhKWwAQLU7jBK27whTvMShMAAAgiyURUfBBME6PYwUOosIsjbOEgy5jCNI6kD6CSiZHY4SkgZOWaXoziIVf4xz9OsgjRwIKn2KEkdajKqVblKjIbQAGswov+dtfM5uxmpswEYBUBXGWbOQKgDie5RA/AK083ZwUzfW6zmre73UHLEyoC6MElVrIJTDja0ZdQQA20oAUbFEAPf8h0HjbN6U5vWg+e9rQeDGADStdAAZd4tCYwgSGZzOECYADDFxxQAhfY+ta4zrWud20CB8QaDBeYg1IIkokBdCHWNagAIZbN7GY7+9nQXvYEahDrLhSgycP2BAxWUG0BaMIjlxiAF2K9AhhkuxAKCEOsTRAEkFzBBLEOgwG8QpNOQMAJsd4CAThrkU4gYAuxdgIE+J2SV/8aAvABiSAc8IVYX2BGMzHAscGwBROQxARTaHgXCJDtjnv84yAPucgQR07ykpv85ChPucpXrpGAAAAh+QQMBAAAACwAAAAAZABkAIcfISsgIiwsLS4jJjEoJzImKTMpKzUqLjknLjwsMj02NjA8PDIyNDtHRTRYVThjXzosNUMvOUouPUYyNEEzOkUzPUo4PkwyP1I7PVJLO0kxQUs2RFU6QlI1RVo3SFg5SV86SlQ5TGQ8UGc9UWs/VnFERUJCRExXV05LTFZDS1lIT15BRFhGUV9ZWldtWEtjYlNDRWNKTG1JWWJHWGNUXG1YWWJCWndEXXtPUXVSVHpQUnZGYH9XYXFZYnNdZ3hLdX1bcnpAYGlmaG9panFzdXt3eH+adlqHWmyUYnSflEeonUm4q02NimqVkm6cmHLKvFH7uX/VxVT45VtbXYhHYoFKZ4dKZ4hLaotfYY1PfIRObpFkboFncYRpdIdrdopkZpZyfpJrbaBvcaZ3ebN5e7Z1d7C2dYlRgYlWjJRsipJ1gZZ5hptxkJdnhItfnKR/jKNgnaV+oqhorrVrs7pjpKxxvsVywch2yM93ytF4zNOEhYuVlpuZmZ6AjaODkKeHlayJl66dnqOOnbWHr7aoqa2vsLS4ubzkjqb0l7DJw4ze15jf2Zno4Z748Kf+9qqZx8yg0den2t+p3eLDw8bLzM7S0tTd3d/k5OXn6Onv7/Dy8/P///8AAAAAAAAAAAAAAAAAAAAAAAAAAAAAAAAAAAAAAAAAAAAAAAAAAAAAAAAAAAAAAAAAAAAAAAAAAAAAAAAAAAAAAAAAAAAAAAAAAAAAAAAAAAAAAAAAAAAAAAAAAAAAAAAAAAAAAAAAAAAAAAAAAAAAAAAAAAAAAAAAAAAAAAAAAAAAAAAAAAAAAAAAAAAAAAAAAAAAAAAAAAAAAAAAAAAAAAAAAAAAAAAAAAAAAAAAAAAAAAAAAAAAAAAAAAAAAAAAAAAAAAAAAAAAAAAAAAAAAAAAAAAAAAAAAAAAAAAAAAAAAAAAAAAAAAAAAAAAAAAAAAAAAAAAAAAAAAAAAAAAAAAAAAAAAAAAAAAAAAAAAAAAAAAAAAAAAAAAAAAAAAAAAAAAAAAAAAAAAAAI/gA3CRxIsKDBgwgTKlzIsKHDhxAjSpxIsaLFixgzatzIsaPHjyBDihxJsqTJkyhTqlzJsqXLlzBjypxJMNOkQHqKENnJs6fPn0B3etHDZ1ImmgUxBUoBoKnTp1CjSp0KIIBVFHsu0aQkJIBTCBE6hBhLtqzZs2jLdoiAoKpVIZRgGmrxdcQVLXjz4r2rt6/fv36tjIDgtIYhloRMNB1wgQrgvHz7Tnm8lzJeKhe8BuBACGUlE1YDdLCS98YFDDf0XrGQwQIHDBwuWMAA+zUHDq5d4769oe+NDajzWukwoGmGSiUpFQhwIEBkLSMKHDkyIAZkAEaya9/OvbsRAHpH/hCYTmCEagAIAhCIK1LThAAr/AB4fsAMIkRmDlyHwr+///8AKgLAFHwZYB9+BvQFwB8gADCBJiLtEUACgPwBnl4BHHLfIRdqcQUAigAo4ojg8QWAhohwqKAggkwAwB4ioRAAF4JY2NcESNyHxAT7iRjiiP51qAWOOvKoFwAsdhEACiJ55YcggAipxQ0EZJABAanhZQUALnTppQsPfCmmmELeYICVBuywoiB+WNVkAH/UKKUWgtnV1whp5WmWeaqNYOeagjQFIUhWxWmjZYgmqmheSLIoaEheGTrnopRW2migAAz6UaFyeuDpp6CCesEGpJa6gQemproBB6kmEOqr/p5ucOmjIFUl6Rm45qorrllkAUAbaQQr7LDEFhtsAFnsqiyus2YKKZxy5iHttNRSOwAkkmSr7bbcdpstAHVUK660zWrqUaTRjisuANh66663ANihbrXlPivpvPS2++6+38qLL7ksYmpuR5xa+O+07PKrcLwH51EvodAa3HDCCu/L8MEPf2RruhjrW7G3cTTscMC0bhoxACJT/LG7KZPsLKELcvyvyit327KjL5t878Qe17ztzQLbKzO+NPucLRBAl+zRxhJ3bDS3F8/s8sAcFYwyz09vG/LEUwvd9Mw9P510zueenHLYPm+BB9c4U71RUzs7nXW/bAcNsaRryz13/tTz4pHx0tAKEkC4eme99b91zBrAUTDHKQgFbmA9d7YNwxFB1zA/OQgNJEg+NxB54zsDDZjrzGIfA8iBR+jjBoB2zXyPK8cAfZS+dMws9lCBv/O6PrkksVdrhwY+BGy36QGn4AHv4xZtdPDT2gECCMYfX7bjyUswx7zO+wx9HnNIkEL11hOMu/E0EJDFHa2/vnLwd2QxAA/kl191AF6QP4gaFUCABvvTwoPrIjE5vt0BDRCwABgGQT4wKI1gARhA/urXBQok4Afbk5bvCuivOfwgARSYIPm8UByydaQqJCAA6eonCDCwYAAa+AEdNrg3N/xAAwNgARhYKAgaGIAE/g+s2nyogAAL1I6FgOiCDBIQABMAgQ2DeETFIvGIQbABCCCY0Ay8AAgevsECCEhNEDdiFdJc4QIDoAH2WOgHL9AgBRMoTgIqAAIWyOCOdwRBBRgAgAFQAAQ86MKTeFgjGgygN3gZo0asEhkqRCCNR2QRA3n4hzWowQtc2IImNekFNaxhjYQURB/SFwHHMMqEHKnKc6aERg5wAZShjCUhk4iBAFwgS0dCJRmd8xcrhAACA6gADcDQRVkak0WAAAMNKgAACISANH9RZEa8Ak3ACAYD6ZnACmjQBTC84ZgBe4MatvBGCAQAARgYQTUBI02MMFJRV7CBCC7AluIU4AAT/qgAB1awAhDw8zX9O0BxBnCACGwgBDZYJWXaeZF3VgoyVLiBDUjgJxFY9KI2uMENqKBQSlWFcSarZhU+AIIPVOGhKP3LSDlgUgwFwG2L5KUWdmCAFzjhBWlSTUorRYUC2PQFBTClFqwC04yoEi8UYIIjlsoEDeQlBBsQQUd3egWohoAvFlAqUymwF4ZapIx4CQAjluoIRgQALxwoQRNKAIKd/mUDai0BIsVKVrOesqjunA9eCKAIsipiAGHt6yLO6ta+BGARjhjsXvu6VEUQIC9ewWtDZcqBFjTCEY14AQfwIoBEOCIRBShsXwrg2UQkSAsceMFlG9GCC0BWlzHl/ssVKMCAFzCAAtAUQQFOYAARiFYvuj0BAXzroQnU9raR8WpFqrJOEiC0LzsYgZp+q5foTjcv8sRlImFrVL1S97vR5C5GmjJVy5QXvLkEKeAuwF72bkADG2ivfN/LFgMg4AAHuCd+DyCAeyaAv/vN7z0NgF/3wle+CJZvU9R7wgD0wAcQjrCEJwxhADzgwg0IgAMwrGEMD2DDDmgAADb8ABE/mMIo9oEQetAUkfBxDeC0kBSkkAQBPGHGS7DxjGt8YynkOAo7FsCljLmGADBAJEIAwAqNKWMez1gKUQAyjXU84ygH+QlDjuXmAiAEkUyij2o4poWcLAUlLOHJZDYz/pp1DIBJylINAwjAJEYyhD5ugckAoDKZ9ywAKSdhAD0GQDFjuYXiDIEkmqhBUwwAAhU4+tGOhgELWKACFABAAQtYgAICgGlNczrTm+50qDO9AAA4etIwgDSkOXCAptRAshsJBB+b4hWpWIUqobG1ZmpN61vr2sh8UAklChGIYhebDweAQQ5yAAMCFODZ0I62tAtAAGdPG9oBUDazDWBsYxeCPTHRAwbGQIYxTCArl0i3utfN7na3mw8TIPcYMKAHpBDEEgQIAxnIoAMmdQQFONj3FwxgCXsLpAYx2LcYCoCcjlSCAGLYdwxqYHBDHKAM+15BEUBShBXsuwwHOAxNV9wzhXJ/4QAM3kgmDvCFfU/hQTQR977JMIHOhIQQ8d43B+o9kwPomwxY8HeMSj6GkxtcIJpIetIzofSmO/3pUIf60adO9apb/epYz7rWt871rnv960cPCAAh+QQMBAAAACwAAAAAZABkAIcfISsgIiwtLi4kJjEoJzImKTQpLDUnLTorLjouMT42NTA8OzI1NzpLSTVYVThjXzosNEMuOUstOUYxNEIxOUM0PEw5OkMxPlE6PFJPPkw/QEk1QlQ5QlI9SFM2RVs3SV87Vl85TGQ3SWA+W2Q9Umw/VnFBQ0FERk5KS1RBQ11FTV1CR1ZcXFBtWEtjY1RGSGdJUmFLWGVYWmFSW2tWWGFAV3NBWXVEXXtPUXVUW3JBYWpPYWpSZm5FZXVZY3RdZ3heaXpWbHRJcXpddn5naW9ub3Zha31zdXt3eH+adlqDWWqYZHern0q0qEy9sE6IhmeTkG2ZlXDKvFH7uX/UxFP45VtbXYhHYoFLaYtKZ4hfYY1feYBObpFveo5oeYh2fIlkZpZxfZFkbYBrbaBvcaZ3ebN5e7Z1d7C0c4hsipF2gpd5hpt8iZ5fnKR/jKJ6naRkpa18oKZrs7pxvsVzwsl3y9J4zNOEhYuIipGZmp+BjqWCkKaHlayIlq2enqOOnbWoqa2srLC2t7rkjqb0l7DMxo7f2Jjo4Z799aqQu8Gg0dem2d6p3eLGx8nMzdPS09Xc3N7r6+zl5ufy8vP////39/gAAAAAAAAAAAAAAAAAAAAAAAAAAAAAAAAAAAAAAAAAAAAAAAAAAAAAAAAAAAAAAAAAAAAAAAAAAAAAAAAAAAAAAAAAAAAAAAAAAAAAAAAAAAAAAAAAAAAAAAAAAAAAAAAAAAAAAAAAAAAAAAAAAAAAAAAAAAAAAAAAAAAAAAAAAAAAAAAAAAAAAAAAAAAAAAAAAAAAAAAAAAAAAAAAAAAAAAAAAAAAAAAAAAAAAAAAAAAAAAAAAAAAAAAAAAAAAAAAAAAAAAAAAAAAAAAAAAAAAAAAAAAAAAAAAAAAAAAAAAAAAAAAAAAAAAAAAAAAAAAAAAAAAAAAAAAAAAAAAAAAAAAAAAAAAAAAAAAAAAAAAAAAAAAAAAAAAAAAAAAAAAAAAAAAAAAAAAAAAAAAAAAAAAAAAAAAAAAAAAAAAAAI/gApCRxIsKDBgwgTKlzIsKHDhxAjSpxIsaLFixgzatzIsaPHjyBDihxJsqTJkyhTqlzJsqXLlzBjypxZcNIjQYH86NzJs6fPnzoDCXpUiebBRndOAFjKtKnTp1CjLj1xp5HRSXk0AAgQAEABCBEuiB1LtqzZs2IjQCiwlKuFPJNgSrqDgOuACzWwcNnLt6/fv4ADY6lxgS0AAncksYSEZABXBCT0Bp5MuTJfLCQgbA3wBRLKSEW4AoBQ4zIJEln8vkgRorXr17Bjk/CbJUSN1HtraF5aJFJJSSe4BrjR90aBDBkIXOGbBcCDFtCjS59OHUDxAcgJEOd7Y+mAE4pH/qIAkCBMAL8JlhAitGSCZCwApsifT7++/SnW+U5Qz56BXwBuIAAACiMFEoABevCRH18ADLLeIAvCZ8h9FNq3IBcNPnghhn/sYQAAgYgkQwA+/KGgXwigsR4aEFwWX4UwyndhiisS8N8ff/gQgAwiGRCAGyZeOBgBSigxwAvMAZDEkkw26eSTSURYA5FKEFBaXwDgqMeBInHFh4nn+XXDBh7Y4BcGGHCgpgZqtummmmlWsKYHYpK5HZY4/rFUUSBt9eWJlv0lmV+DDhroX1niuFRcfQbw54aHRiopnooCwOhHXgYZ26acdtrpBZ6+lqieloaUqYI6pKrqqqsOMAMP/rDGKuustMIKwAis5prqqIua6miQdgQr7LDDBqAII8gmq+yyzCILAB3ERhssr6WC1NWj0koLwLHNdtvss9kOWwe1l3p0KgDhErutt+wqC266doybZ6/W/qogvMKu226778JLrq/Y4muHvvt622+6/9YbML4EF9zsFnUInDCm9qIrMbcOdxsxw/NWS/HC/mKcMbMb+9txuR2dK/DAIo+s7MoTmwvAnwHA3LLLjMQB88kAg2kzzsseHG7MKVdcMsI3uwyxxDwrDOzFQC+7c6Uoc6Qy1FEj+8bUpFa9kZ9PM5z0yAFAyzHVIYF9L9ZZC50t0Vb/+kcAc7Ad9dLw0gH3/kbX4pgAHHZHfXS2cCDQNKYz4wiDEIHjrDO+QsRwuLlyq1HAHHVknu24Y2fsNrF0FKDG5EV/qfgIgxPLedbOmr05CDDk2XXPOPJBQQ8hs87I5/HW0QMDfchO78ey70HBCK4P3jDQvNMxAgV7yD6707Lz0YEEgGsu7OqsA1B3tHBI0EHw0g9P+RrS4wjEACPIcTT3bbserBwjDABE+n/oYX5HSx3ABv58iAH72rAx+EXtWZmrQxtAMIAYmE56bPiQxyjngQJ0AX8m4kECENADAi4PZ95rQw8SAAEePFB6lvvA/qwGAMy4CoM4SgMPKDAABAzhDYlYhLd0yKxEvGEI/luRwAxGB8MZDGA2K+RbAPRyBQgk4IIwzJ8XZqABASWgAzEIwhC8kIYudnEIQZgBBzSDAA7MQAzRi2IXSLgcDE2waIMiQQEqAMUo1m4NXTCCD3gwAxj4EQYxmIEPjOCFNZxQjRUoQGQY9EYWGgoLITgAAnygBzta8pKyc4MPEnCAEBjKjV7TCFc+mZsIDAACMwgDJlcpvS7kAAIDiEAJApNEUS5xMoPZwAEAMAEV/KALQGKl9NwQBiCoQDMJ4EAJSImlRiqRmYIqQQjUMgAAIGACHFgBDGaQAx4AwQdA+GYO+piCMe5yAAmIQAiWeahaZmSUk9oLFm5gAxK0xgMb/sjnBiqgTw98IAQkuEEPoGkZd2IEnvK8QQhsQNB4TgoL9TRTX7gSynfekgtYoAADXMAACjTUoYHCAgQ22tFBdaWiB23hXjjgAkS41AUc4E4IegBSyvQgoHxhqUsR4YIOyNOgF0FoAAyxU0MMAKMkMAALDBCCmgKGBARgAQGayoUBENWlhggTKE2lUi4E4BA7PUSYClAIRBTCAE79iwDKWoijehWsLhUrX07qK8lU4Ak7fYIG9gIAomY1rf/xa5g0gFeXPqECc3WmLSVzBQO4IAouMEAbN2ACKJiAToDlywY0AAUNYPYKBXhsZGnKV8VmZCuF+kAHPNmXEHBgNpm9/swIXlso17KWkSi9yFI+GlvAAtUiXeFtb+Xp0N9WpCuh2lQElrtcCTBXLcutwHOXCwGwMDe5sTEuRbqigu5697vg7e4KALCA8iogAAowL3rVm94FnLe9CgBAeOcLg+/uKSQ+CiYmFVSFKkhBAEzo738D7F8AC9gABP7vqDDpBi6FZEQ/YCV/B9zfKjihCQI2cH8vnGEmLPiSPwAAj0JioAKk8ZIKonAVqECFCqtYCi3ucBU+bEcPgUgklUBBACjwPxQDQMP/dYKMCyzkAhOYxjB0AwUCgAI+hUQSFuDKCnzwgypbucpZsLIPANCABzzAAQHo8pfD7GUwi9nMXn4A/gCuzOYr+2AFbgnPSCRBBNFI5c5M6UpT9IznPgOACL45CSTy8IUjGPrQBKjACzKAgQEU4dCQjrSkJ32EIgwAAylIQSIl/YU8eCYmd8CAGcxQhgkAgiOAmMCozYCBOxiFIJAwwBhGjQMCcSTHOBj1GArw6VfT4AWjJkMBHuGRRxCADKN+AQ1eTQlBIOAMo86AF0DyhQyM+gwIEIRRKjEBK4waDAjIbUUiAQEwjNoKDBA3SkK96gngwRHwjre8503vetMbD6oeNQfwQBMEzNoMWpiAwAd+zQlAYAIFR/gEEkDChSdg4QJ3IsQFnnBvmwHczBZIJTZOiY173OMd57jIHUMO8pJ/3MkZT7nKV87ylrv85TCPucxnTvOaGyUgACH5BAwEAAAALAAAAABkAGQAhx8hKyEjLDAwLyQmMSYpNCorNictOikvPSsyPi8yNz08MjI0PTkxPUA6O1FONnhxPy4zQi85SzE1QjU8RzM7Sz0/Rzw+UTI/UjRASjpCTTNBVjtEUzZGXDdIXzpKXTpUXTdJYDpMZDxSa0dIREJETElLU0JLWUNGVUxRXENSW2RjVEpMbUtTY0hYYVBRZ1Nba1dYZ0BWckJbd0Ree09RdVRbcnVRYUZgf0dtdl5oelpjdUx3f1lweWZob2ttc2JsfnR1fIF5QYyDQ5mPRqabSZKObKaieK+rfcSTavu5f+DPVurZWOHQVvfkW/jlW1tdiEZigUllhUtpi0pniF9hjU99hU5ukWt2im96jmhyhWRmlnJ+kmVvgmttoG9xpnd5s3l7tnV3sK5whMl/lVSHj1aMlGiFjHWBlnqHnHKTmnuepWmvt3C9xHPDynbJ0HjM04WGjIqLmIOFkZaXm7+6hoGOpYOQp4eVrImXromYr5ydoY6dtYGnroautKSlqq6vs6+wtLW1ud+Lo/GVrvSXsMbBitHLkObfnejhnu3mof72qqKizJfEypXCx6DR16nd4qfb4MjIy8PExtHS1Nra3Onq6vLy8/////f3+AAAAAAAAAAAAAAAAAAAAAAAAAAAAAAAAAAAAAAAAAAAAAAAAAAAAAAAAAAAAAAAAAAAAAAAAAAAAAAAAAAAAAAAAAAAAAAAAAAAAAAAAAAAAAAAAAAAAAAAAAAAAAAAAAAAAAAAAAAAAAAAAAAAAAAAAAAAAAAAAAAAAAAAAAAAAAAAAAAAAAAAAAAAAAAAAAAAAAAAAAAAAAAAAAAAAAAAAAAAAAAAAAAAAAAAAAAAAAAAAAAAAAAAAAAAAAAAAAAAAAAAAAAAAAAAAAAAAAAAAAAAAAAAAAAAAAAAAAAAAAAAAAAAAAAAAAAAAAAAAAAAAAAAAAAAAAAAAAAAAAAAAAAAAAAAAAAAAAAAAAAAAAAAAAAAAAAAAAAAAAAAAAAAAAAAAAAAAAAAAAAAAAAAAAAAAAj+AC8JHEiwoMGDCBMqXMiwocOHECNKnEixosWLGDNq3Mixo8ePIEOKHEmypMmTKFOqXMmypcuXMGNuxCSzI6ZKlCJFkqSzp8+fkRwB/UmpEs2aCCsBAkIigFMAUKNKnUq1qtQAJID8qYRUoCQfA6I6JXAAwoGzaNOmNWBWrVsCAaQS8CFJZqAScQFA4CBjipW/gAMLHkx48BQZHA44DVAi0FGVmPxUgDpAA5TCmDNrDgzlQtgAFfw8NqlnAVQCIPz+hXJZ8A0ZsGPLniFbxoraMwazBiwFBAGoC/SYxAQDaoAQUgBDgUCAwIIovAE0mE69+nQF1qsDCByFOQEJra3+SAkRFgCM0SB9ACCQY3tgCjYGDbJBIXqS+/jxG8rP/74hAFQkZwV88tkQgWAAcAGXDyNJAkAAZ9zhHmAACEIIIYJMKAUA/XXoYRITWlGhfBkiuMcZTtUVUg8AvLCHhIIRMMaFYxBg34c43hdihReWGBgAe+zxAgA9iJQAAGi8GKIVHjAghhgMeBAdElRWaeWVWCKhIQdOiiFBCCbugUYACYgU1x1KDiZCBBGAGZgEDCwg55x01plAnHNKINiaEIgwGJBKAoAeRw+iCeNmiBYmYKIUBrkHVJaE5JShSzJq6aUiOgqppABQWpsIM8wgQm2kvkZqbDeM+ilsM6QKqqj+tQH6KACRglSokhRgoOuuvO5KAAUZ6BrssMIGi0EGyB5bLAC9NrurrJuCNKmSb1Rr7bVuuFEtAI484q233X4r7rjiAtBGtdlea6220NIa0q0SqiuvtdySa++93po7r7zt1vrRmdTuq269+BYMrr4C06upu9IGQGnC1xJscMEIQ9wvpw9DvG24E+NbccIX2+pwwBpL3LG9H2hb8sL+ejTtHQFovPHJBcv8RsgfwRuzzCbTPK7NOLvcqZIqW8yxzz/zzLKkI8MM9NFIe9sI0EuLnHHJUEf9scBBdwRwvDxnjXQKVAcZbc5NA/B01OTaHEDV/w4NNtZsi8tI2bO27HX+2mvXne+5K5vN8L9pFw2y2D5vve/bguvN0bR7BAC40X57+4HMbTCeN9No7lHAGmFX7q3MaxAAt8sj7+FBFaFXfrfGVXhweke37nEFAobv23PUkkPsBgJXzP546ntsgAPdlfeeMA4bOLp5w52LSQAZlFeu+LVkEFCH82ejHv2JBbDONeI0A8CGwFUUcIbzzxP+vZgQfHD+vLsjfT0bISAQB/vtewTV9uy7QwvCl7ubke9kW2tDFQjQgjzwr397o8D7gnQGDCBgB/ObmfUmx4YqGGADW+AD//Iwge7tLQIUSNIDz+CBAHygDOcLwAE7Zj42lOEDATDBFh4oJjaZcHj+UtAAAYLHwzvkYAMBsGAaGME2RzBCDcwawAZ0MEFHXYEAGtjQ4PwHgOSIgAAnsAMPg3SHK7wgA7/JQAt4YIY0qIEPfYhjH/ighjSYgQcpyEAACrCBFFwBD2PcQx1MYAA/iWiLXuviX6TAAQK4QIVj7IMgscCFGrDABBvIwAQ2OQELZMAELNDBD7Ygxj1Icox1YMEALrCoH27kQYuyQmcGcAIiBvKWuHwgFk6wyvD8xZUagUos/zIFEBiAACy4QhVzycwysoAABkgNYYCZEVhiZgYcgIBeWDBKQDJzjHfYQg5YoM295AYz1MSIMDcjhRiAgAIFAMAAJLABFLxAB1z+yMIVtsDPM/DzCln4gQ5e4AILSGAAe7wACESgGs2k8yLrvBQUZCACD3DgAmyCAAQQwFEEaBSFF+DAQmXgS0Y91CJxiaUUZiCFYWLqpbxhKYIQCUTAbGAACwjABmDK00UiMac7pRBNX6lIJo0AEYpAxAiktMgbuLSnTV2UB0ZwCEUcYqlCddxGnJIcKRDAEIoIqyFsZAUZDCABBIgBVAVj1gQMQAZ/+WpYFWGIAmSVaQIKQCLmmgj3JOAIijgCAtYaGAMA9ggJ+OVew9rXu9qqqBIwwlyNsIBfIhURleopAC6ryMhOVk+/HKpGUvoXGRCgCIUoAgHgOiAV0EEFGSD+LGAw4FrYlva0qV2tYwm3KBlkYAEYcOoiNZCADTyVp1PYwAI20FDfLsAC5wytVkdbVNlaVzBanG41AdBQSx0Xu9Y9aUWccqryxiYE6EWvB9IbAg944APohW9618ve2IjAVOaFjXgpAhUISOC/EojAAgAM4AgkwMBHIsAAEBqABTO4wQ92sFMWHJcEEPjCGP4vVAa1EbgAkH8i5J+EnOAEJijgASQ28QOaUOITs1jFJFaCAoAUYvadkn12CAABRIIXLnxTSS1GMYmJEIQXu5jFRE7xiWXFzCwAoAQimUMAJODNXEoIxk5YwhJYHGQWa5nLMGZyLiUQgDmIxBKmOcH+NyV0YiUTIcZHNjERjCxkMQcSDycIwAI4zJFIwMUAOsACPwdN6EFjAQAOGMIQgiCARA9BCI1WNKQdPWlFDwEAhc40P7HwAgPoOBIlmURT8mKVUj+l1KimyqmN8yASgHo4gPABCkpA61oH4AD/PQAYa83rXvv617QOgH8lUAAC+BoFPgAEn1MCBwuAAQxfkIAfOOIHCXwB2haAQ1cIQokBaEEMYKABlDtyAho8uwsEoMS2BQKDFYBhDV4owCQ8MgkCeOHZK4DBtjGxiANcGwy1BMkVTvDsMBwgEF2xRASe8GwtEEAOcYi4xCdO8YpbfOJyKAAVnv0ECSx7Jc1+drRST+CCkpv85ChnAcpXznKD/jvbSDlAF55NBQss4uY4z7nOd87znltg42DQwgHWLRBMGP3oSE+60pfOdKMT/elQj7rUp071qlv96ljPuta3TvSAAAAh+QQMBAAAACwAAAAAZABkAIcfISsgIiwjJzElKjQqLDUnLTksLzotMjwyNj42ODpHRTRNSzVYVThhXDktNUMuO0UvOkssN0gzNUMzOUQ8PUc0PEw5PkszPlE7PVJLO0kyQ0w7RFQ1RVo5RFg8Vl87TmU7T2g+VG4+WmM/VnFERk5KTFVDSllARFlcRFJIUF5KTG1NVWVNW2dTVGNZWmdTW2xQV2hAV3NEXntGVnRQUnZIbndGYX9FaXFbZHZeaHpddX1jZGt/fGJibH5rbHN3eH5xcniek0eWk2+xrH7tr3r7uX/Sw1Pby1Xr2Vjz4Fr45VtbXYhHY4NIZIVLaYtKZ4hfYY1Qf4dObpFlb4JtbYpsd4pveo9ncYRxcY9we49kZpZyfpJrbaBvcaZ1d7B3ebN5e7ZTho5Yj5dblJxti5J5hpt2gpdfnKR/jKJ7nqVjpKtstbxzw8p2yM93y9J4zNOAgYeFhoyJio+Ki5GQkZa4s4KAjaSDkKeHlayIlq2JmK+OnbWFrLOOuL6nqKy1trm7vL/KgJbThZzDvYjaiaDjjqb0l7DKxIzd1pfi25rq45/v6KL376b+9qqiosyYxcuayc+g0dem2d6l19yp3eLCwsXOztHS0tTd3d/t7e7j4+Xy8vP///8AAAAAAAAAAAAAAAAAAAAAAAAAAAAAAAAAAAAAAAAAAAAAAAAAAAAAAAAAAAAAAAAAAAAAAAAAAAAAAAAAAAAAAAAAAAAAAAAAAAAAAAAAAAAAAAAAAAAAAAAAAAAAAAAAAAAAAAAAAAAAAAAAAAAAAAAAAAAAAAAAAAAAAAAAAAAAAAAAAAAAAAAAAAAAAAAAAAAAAAAAAAAAAAAAAAAAAAAAAAAAAAAAAAAAAAAAAAAAAAAAAAAAAAAAAAAAAAAAAAAAAAAAAAAAAAAAAAAAAAAAAAAAAAAAAAAAAAAAAAAAAAAAAAAAAAAAAAAAAAAAAAAAAAAAAAAAAAAAAAAAAAAAAAAAAAAAAAAAAAAAAAAAAAAAAAAAAAAAAAAAAAAAAAAAAAAAAAAI/gA5CRxIsKDBgwgTKlzIsKHDhxAjSpxIsaLFixgzatzIsaPHjyBDihxJsqTJkyhTqlzJsqXLlzBjypyJcJPNmzhz6tyJk+ZCS3R2UAgQAIDRo0iTKl1KlCiFHXQs+RSoaY4EogCKFl3KtWtSrEYDIJijSeYlH1gFQAAhw4mUt3Djyp1LF64TJzJAQBjQ1Mcll5VcaI0Qo67hw4jtxoAQ1kUllYBKaL3AxC7du5gza777ZLNbuXfh2rgQtgSgkz+yBuBQ+e2TCkQrfJbiZKtXrwHiOoEd4MLsJxyO/igJx+iKALOlXEBRqBAKDHYBFJlOvbr160UAxMXA3Dn0uABe/hSFM/JS0Sp4cscNQMiQIUHqpTyRjr3+de1w2bsnFP8tgD1WFPVXSEAEkMIe6cklgCDuCSJAdPZFSB1+by3YYH9S/LdHCgEAIRICAZiBIIYdZBBIIBl0EB0RLLbo4oswEkGhFCWemKJcGpoRgAQiEYUHgjPS1gEBBHQwmxN8KWUbWEs9aFcHBRSZnBMa5lFUjwH8iEeQiXXp5WEa7lHUJiH5CCRoX9KmW5fJ1RXAHnCOWWaWQHpm5514atZZnne9GScAZIJk5pa3hVUobocmBeceRgX60aAAvCHppJRSGkAklGSq6aacdpopAGxUKqqkYTZaJgBaBjDqqABg6umr/p1KAuqqlZYK6JxaRkorpa3C6qumsoa66xtt2OqoR5AOO2mvv/4agLDDGosrkMqS6mqzsM6qrLQgGZVrtW8wi+2rB7RRLbcfeUvtudeO6ym46CJL55bwtusup/Auaqqg8+q6rb33apovnPs+2m+9AXc6ycCM3sovHnzo4W+0AAcsALS7xttRsuwmzOkE5m6rr8PpHlztpZJ4vCnDBcv77ckV37vwuSMfu7HJyl6qsqYX00wwyfLmsUceE++q886UPHsuHz/bzJGZEodMMdKUlKssGxo/TeceAqzRMdXVrkFAzXMKvccGYbCb8s6SVBvGBmQ/DGcPD7jxL9UCSE3r/gM9xG3wj3BOEMXdSGtLaxQSLNqw0xuZCWcZA5wxNduGj3rGACL6jSyqilcxwBgZxzxusLSOMUAVii8+reJWDFCD3ryKPq7SorZRwwBYpK56t1srjsYGD4AuqrgqV/6GG2NEsAEauu9uMNzNT3GABmLoTXzCpEvahhgaHDAF07qb0PLNB2wAuO45TGDADWqYe33Ak8yqxg0FTNB383ls4MD4Wj8BwQFlaB6ctvCCAxRABAHgw9qw1wcAeMAAB2BB5ppnBgNAgEpA2xgA7vIBAbxADwJ8XA5MYIAATIAFOiBDGvjQh0c8AhKQcGEf+JAGMuiABRMAgAE0gIMAhlAP/i8QwAf8k8GnbfAtTIjAAHIQQsXhYQs5eMEKNmCBAwxgAAIQwAAIcIAKbCAFL+iBGe7QxEXloAAOaE2Giti4I8JlBA4YwAuYV8bUga+OTUTDCwbggMKAh40aMUqbpCCDCwhgAj3EoyJDWAYcREAAF5ABXfi3EUHWxQkhqIAACtABHGSBjIts4h2sgAMoCaACIXiCYSgZSDcexgYfuEABADCACZwABjiYQhW2UAY02OGXd7ADGtBghi1UYQo4gIEJJkCAABTgAmzpEiszUpRBIqYJI/gABy4QAQc4oABazGIAsrhJb0JAAxz4QAyYYE0wAZKayAFNO9NEz7moEkfv/sQIUWbzgWYSYIj1DOhcOgiAf/6RcRqp5ls+kIBDNOIQCQDoW+YpULjcc6ENfWhE4TJNfcZTCgQYRCNGOggCvMUGJTSAJCs6FyYYAAAHWKkBHEpSkxIRoRnJymcCsIiRNmIR6jmAEBghBASwdC5CJeoB3hIARvh0ERTq6EUUKoUD1MGndTCqFHjaiERg6KgBUEQjFJEbJxxgCFjV6hpx6tHPhIAAQ0jEEAjgRwTwABE8mMBR5TIBHiQir2+JAVzlSleO5nOqH3VCDBIggASEAC5MmMAh1bhXKUR2shMNAQIaG4PZSNUiVK0sPSk6l89WxJITFa1qPXtY0AKgCXzS/kwTZjtbJjSBCU9ggm2b8ATa+ta2wN1TbO9iWorYJlFKQi5SmJSVoxzXuUdh60UEEABQKnJLSlACEhbQgCRol7ve3W53tauABmR3u2FS5B3GKRISBAB1i8SueL2rhCCMd77ZtW94uZtePFYhACQQiRwCYIFQbgm/SaDvd8er4O8yIAn9raMFAiAHkWRiliuILwDA+90gnHcBDPiwhxec3Qg38TgEyMRI/pCVCVyhDHnIAx5mTOMa2wEADDjCEYyggBzvuMc65rGPhazjI6CqxkimMRquMAGi/KEkfyhhU577XOUyRblEMcCTTZIJOpTgAE2xMpYTFYADlIAOKoZJ2xwwAAYwfEECfuCIHyTwhTZjIA5TGQgmBICFNtOgBB4pAQ3ajIUBYCLPnGiBCtrcBQEMiCOXGAAX2qwCGOT5Dw7wQptPYIEWePrToA61qEcNagtkoM1e0LJPNiGBJbRZCwSgAhZmPWtZ0/rWuM51rqmgBQdooc1LkIB0U7LmNoNBAlRwhLKXzexmO/vZzsaCBIx9Z5oYYNJggIIEXMDtbnub2y0Ad7fD/e1vk9sFLZiAq8GgBQMgWiA2C5RNDOIoeROk3vB+t773ze9++/vfAA+4wAdO8IIbXCUBAQAh+QQMBAAAACwAAAAAZABkAIcfISsgIiwkJjEmKjQpKzYnLDkrLjksMTswMjdPTTZWUzcsNUItN0kvOUsxNUE4OkI0PUsxP1M6PFJTP00xQUo7QE42QFM6Q1I3R102S1U3SWA5S2M9UmpBQktGR1NCSVdJS1VAQltGTV1VVl5KTG1LU2NVV2FUXGxBWHRDXXtPUXVQUnZCYmtWYHBaY3VTaHBdZ3lfaXtLdX1naW9han1vcHd4eX90dnybkUaKh2iLiGjtr3r7uX/WxlPdzVXv3Vn35Fv45VtbXYhGYoFLaYtIZIVfYY1ObpFkboFmcYRrdopteIxkZpZxfZJrbaBvcaZzda11d7B3ebN5e7ZTho5ViZFlgIh/gIh1gZZ8iZ95hZp1lp1em6N/jKJgnqZioqlorLRtt75zwsl3ytF4zNOEhYuAgYeKi5GVlpu9uIWBjqSHlayJl66JmK+cnaGOnbWSkrifoaWDqbCMtryrrK+1tbnXh570l7Dp4p7w6aL+9qqbm8OiosyWw8mfz9Sg0dep3eLHx8rOztHW1tjc3N7e3uDk5OXn5+js7O3y8vP///8AAAAAAAAAAAAAAAAAAAAAAAAAAAAAAAAAAAAAAAAAAAAAAAAAAAAAAAAAAAAAAAAAAAAAAAAAAAAAAAAAAAAAAAAAAAAAAAAAAAAAAAAAAAAAAAAAAAAAAAAAAAAAAAAAAAAAAAAAAAAAAAAAAAAAAAAAAAAAAAAAAAAAAAAAAAAAAAAAAAAAAAAAAAAAAAAAAAAAAAAAAAAAAAAAAAAAAAAAAAAAAAAAAAAAAAAAAAAAAAAAAAAAAAAAAAAAAAAAAAAAAAAAAAAAAAAAAAAAAAAAAAAAAAAAAAAAAAAAAAAAAAAAAAAAAAAAAAAAAAAAAAAAAAAAAAAAAAAAAAAAAAAAAAAAAAAAAAAAAAAAAAAAAAAAAAAAAAAAAAAAAAAAAAAAAAAAAAAAAAAAAAAAAAAAAAAAAAAAAAAAAAAAAAAAAAAAAAAAAAAAAAAAAAAAAAAAAAAAAAAAAAAAAAAI/gAVCRxIsKDBgwgTKlzIsKHDhxAjSpxIsaLFixgzatzIsaPHjyBDihxJsqTJkyhTqlzJsqXLlzBjypxJc+YgNzU+GAgAoKfPn0CDCg1A1ACIGmgG1RSICM0EADyFSp0qlahVohLQIJJZyIaAngEYbECRgojZs2jTql2LtggKDQ18DrBRyKWgGTwDLOBA5Ijfv4AD++07WPARwoYPk2Dgc4YglYFG5IWQIvHfs0WKnJUhg61ay35TxO1pItDJMlADRKg82IIAARUAE7l6FWjUoERlSwggwALiIRF8lil5pmcJAIElgLBjB0TswQF2SJ9Ovbr1HQCEFPErYQLzCRIC/gMwISDAmZGDeCJZgxywADt37tgJcDkAj/v48+vfjwc54QDwySeAeG8kQZRSId0QgAhvsBfYe/HNV99+FFbIA31/QSigeHK8IUIAN4j0AABYNNjeX90xB0J4fhVhH4V3WJgfhtx519wFBL7RRAAPiETUGg3S2Fp5EyBGxFdUJSkkERYQ5ZtsALwRJAAi9QSkg6BlqeWWhkUpJU+JhPRjkFyWaaZlAUj5Rk9hggTVlQEgJtuZdMoZWJpSsilmAFcm6eefYBEFqJdrAtDmR2+aKMaijDbaKAB9+PHHpJRWammlfmQKQBiOdroooXqCNCZ7ZJRa6himjoFqqQD8Acir/rDGKuusrwIghqlkrJoqq2qG+hFPfeKaq7CmtkrrscfaSiyxY4Bq6J7BLkusschWC6uy0uJKKJhiAhBttsW6aq212IJLhrOHepQoGwCYG+641hZwq7vohpQoqe6eKy68yOZ7bq/Puumtif5Sy++x/uJZaLodrdtuvgYfPGvBADPM0boBFLyvxLJSnGfAv/IpB770bszxqwXoCm69og5MsrkRnwyIAfOC22zF0BIMsckyJ4yzqHy+wa7GMnecr8K+qhv0yyvzzHHK7t78scUbjcmuytnGfHK54CINskdEsSF0ADU3XTSs8kbtNdUahd2hAGHsfDas+YYhwM+IBtAG/hxvXFCF3HMDkm8VF+ANdtBv0EAB1stq/TTjwo5BAQ2GNzywlAtQUXLgXC9LxQJiT52zlFgI8AXMTkvcubBfDFBi5RyNqWYSBXhh9tl/rG4qFwUkoaboAgP5uxICyAC5voGTzewYMgygxO/AI3r571lAQMHp06Z+sPLCekEBBVlAH726AJQgvpQwEJABFyo7LjH3pXKRAQGUn3/c15Yb8EHo0LMBwwELkAEYWKU9eOXuVmCQwQIOAIPzCe0DBUhawwJQhAUsIHwOXEIJCLAAFgBgDnPrQ/kWUAARNMGBb+iCBYkgwdjF6QgYEIALUNihJpzgAwIgwAVeYIUtyGEO/pGyVB/mIIctWOEFHSBAARbwgtf9jm9qOoEAMOCXFlYNAIRJwQIMgAQU/k4NSnDBDSngAALcBioFOAAFRHACFyyhC17s0BuQYIAFsOYIVtQIVOTEgQIYwAVq8KIgHShHL6rhBEvkgHjwd7EXBkY0AZAADQJZyEFaUnxqoIEEBBABFHSJkVVzpGCIwAEIAAABIjACFvh3Sei1QU1rwAINRHAAATRgA3YCTB4zwpNcBoYIKcAABCJ4AAmwkQZKaIIW1KAGNqzhmdDsghawoAQjvKAEFjAAAArAAA2URUu7xEhPfGkZYHJAAxaIwAILUJ6fRGUAB4hnAyygAQ5800zh/rwIUchJp37iE5Rtw+JfOHCAABhAkf5MqF84oM2D6hKgvHQkBxCQhjykAQGeVGg/J1rRiyIUjxDFSC8PY4A06OGkaTBAaArqgCFoNDBDcAAAWuqXA5gUpQf4Sz4tsse+BCAPJ9VDHjCEAB3gQQcLeClgHGBUHeQUj0A9aR5OtNOKjPQIJQ1qSv0SADzooT9K1alX8YAhm2oVAToN6UX2uFCKWhQBCC3qUZ8aVqYeFa1H4OhbP1pViuxzoAgAwAE+WgQHBICmYT1CTGe6Hb+QoKEfBSnbeClQLfEzsaBhoVot8lfMejatkxVnZT/r2b5ORFCDSs1UooLa1P4ptBcp/k8XoPlMZ9KWtmxQAwB84IMeJCABPejtb4PrW+AK17i+9dZt12BbaNq2DV0AwABE0oEAPO98lYRlAILwAwUo4AdACAIOvstd7/4gCOIlb3cV4KXsonAJAKiASMoQyVaaaL3nRS8Qwotf9Pq3vN8l1CUrEIDhhOQQ5TlBK9lj3vLiAL397e6DAXxeAQ/yBLw5xEjoAJUKLEF4XmQwePELBBJHuMFBsLAD17AEAgeADiWhQ3nO6Noap5Y3MDbJIcpQXbDY+MfuvA1ROlAGDa8kEUhGshkkAIUmG4AOSY6ylKdM5STHAQFNhoIEmiBlmhBCAE6YwhRUAAKPgEAFYnaCtADqshRFmIAEYobCawhA5zrnsM54zrOe8yyAJ4iZBCZocx0OAAUxh8AEcEi0ohfN6EY7etEkCIEUphAFA9ShJol4gBDEzIQDwIEPoA61qEdN6lKLeg8EYIKYhfAA2KakDBIQ8xTKSAADGKDWtr51rnGd6133+tcIQACdHTDpKVzAwDIxQJinYAQPGOLZ0I62tKdN7Wp7YNNTYIIB2sztbnv72+AOt7jHTe5ym/vc6E63ujUSEAAh+QQMBAAAACwAAAAAZABkAIcfISsgIiwkJzEmKTQpLDUnLjktLzgtMjwyNj42ODpHRTRNSzVYVThhXDktNUMuO0UvOkssN0gyNUMzOkQ0PEw7PkkzPlE7PVJLO0kyQ0w7RFQ1RVo5RFg8Vl87TmU7T2g+VG4+WmM/VnFERk5KTFVDSllARFpcRFJIUF5KTG1NVWVNW2dTVWRTW2xXWmVEXntDVnRQUnZIbndGYX9FaXFbZHZfaXtddX1jZGt/fGJibH5rbHN3eH5xcniek0eWk2+yrX/tr3r7uX/Sw1Pby1Xr2Vjz4Fr45VtbXYhHY4NIZIVLaYtKZ4hfYY1Qf4dObpFlb4Jsd4pveo9ncYRwe49kZpZyfpJrbaBvcaZ3ebN5e7Z1d7BTho5Yj5dblZ1ti5J5hpt2gpdfnKR/jKJ8n6ZjpKtstbxzw8p2yM93y9J4zNOBgoeFhoyJio+Ki5GQkZaRkZm4s4KAjaSIiayHlayIlq2JmK+DkaeOnbWYmLyFrLOOub+Nt72nqKy1trm7vL/KgJbThZzDvYjaiaDjjqb0l7DKxIzd1pfk3Zvq45/v6KL376b+9qqiosyYxcuayc+g0dem2d6l19yp3eLCwsXOztHS0tTd3d/a2uDt7e7j4+Xy8vP39/j///8AAAAAAAAAAAAAAAAAAAAAAAAAAAAAAAAAAAAAAAAAAAAAAAAAAAAAAAAAAAAAAAAAAAAAAAAAAAAAAAAAAAAAAAAAAAAAAAAAAAAAAAAAAAAAAAAAAAAAAAAAAAAAAAAAAAAAAAAAAAAAAAAAAAAAAAAAAAAAAAAAAAAAAAAAAAAAAAAAAAAAAAAAAAAAAAAAAAAAAAAAAAAAAAAAAAAAAAAAAAAAAAAAAAAAAAAAAAAAAAAAAAAAAAAAAAAAAAAAAAAAAAAAAAAAAAAAAAAAAAAAAAAAAAAAAAAAAAAAAAAAAAAAAAAAAAAAAAAAAAAAAAAAAAAAAAAAAAAAAAAAAAAAAAAAAAAAAAAAAAAAAAAAAAAAAAAAAAAAAAAAAAAAAAAAAAAI/gA7CRxIsKDBgwgTKlzIsKHDhxAjSpxIsaLFixgzatzIsaPHjyBDihxJsqTJkyhTqlzJsqXLlzBjypyJkNOmmzhz6tzJ8yYnmgsrvcFRIUAAAEiTKl3KtKlRoxVwvKkEVKCmNhKaat3KFalRpQnaXJJpaYcApAIggICx5Inbt3Djyp37dsmSFx8gnAUgYIcll5RcJI0ggq7hw3URi4iQ1AUllX9IfLWQJLFcu3aZYNaMeXNnzJfhJrEAwCiJRid5lA6wQUldCkgvtHW75GjppLa7roa7hHQACrOfMNEQgAAAHiXXlFYRIPiTCycIETpxoS4AIYeEaN/OvTv3QwCa/jBxC1069bgAWhxdM9LS0Sh0AsQNMKhQoUACrAsJ4r1/fwBwAVBfIYPIFyAeUSD1V0g9BIACHvHFJUAg9gVioHDX+achdwC+NWGF+R2IBwoB9CASAgGEAeGF5GEACCAYaEBbEgAEYeONOOaoYxAdtvgiBhyghwceYQQggUhG0bFiXEtwQMAAQcJ1Vm5eKWXbV7fxxZuTUDq3BABDxgcAkgEoSUePiKWp5ppPgDnkUZuElCSEaLJp551uBTAkHkjFCdKcZ36W2RKcdVYoE4US6hmiiR4qqKK17dmnnGXSqduluWX6lG5UusknAH5+BCgAapRq6qmnAgDJJKy26uqr/q5G0ioAZ6Bqa6meTgpSaWaSequtqsIq7LCTRELrr6jmCiqlvSKb7KrERsuqsbU6i6uky/5Z6ZnWmhqstNIe262yoXo0are4QgsuseJaSy6zdKKrxrfrDotAte5iW25H56JLb73Cyvuuts36qy7AsAqsL7zcGozwsAoPqauo2/o67sEPsypJxJ/uy1G/F2f8qgBo+LvwrhULjHHGEpRsbRoDU1xwyCK7mobJEmcrc7wO16wxxxObm3LPPpOMc8cMA3AzzT63iyzMeuTs8UZGzSExvs7+K/IBLjuLRsxC1zGkAGYQ7TO6ZgxwMsVi66EBF2aLvHG3XGiwttBK4qHD/gNpLI2s1hkb7WwaD+hwN78A5I3HBFx0/SvgDzt9qxMT7Ik0wXuCIYAY7q4cOdaopiGGAGBYHjTiiiM4gBdZew6wJJKf6kUBUVh++c6WU1GADGj4narrAMeuBhoyFCCF7bfjjfwYGjzAuu/zAl9v7F48oMEYyCfPbwB2Zw/FARl04XgA0q8rbhpodJHBAVBkb4cJp38cwAEapG753gXQUEbJ5PvMagBmSEMZaFCAB7Qve3TQgAPiR7UAKAECByhd9ojUAgMQIAQB0IPPIsEHAHSgAAdYgYomGIYDQKA2OvNIadrigQC0QGzZixoYalCCAgRgAiu4wRfIoAc+OMIR/o94xA/3oAcyfOEGK5jA/DJQAwlO0A4tEIAHnvClFG5vPE9IQgQKYIMJ2o4OUtBBC1SgAQocYAADEIAA0HgACmgABS3QgRXsN0EbDCAClcmTFeXnHBE4oAAtwJ4XB0lIQo4hig6AwXz2uJEVyuUFeplAEwtJSULOUIkWeMFcGKgRR85lCSDQywA0UAMp0LGSyLuDFGrAgTRaAATOQQ8jOwmAWM5lBh6wwAIFIAETrKAGUIiCFcAwBjmMgQ53MOYYwmCFKEChBisowQQEEIACWMADeUQMJzNyFFsiRgki8MAGLAABBxygAGqkZgDSWQAHOAACFtiAB2CgBG8eZpsY/jFKLO2Jp35S8Z+ynJpG9PkWDxCgOFP0p0Ld0oEBAIAACdWjQLlZS7d4IAGGYIQhEhBRgC6ULs65aEY3GlF8XoSgTyBARhnBCEEYgIozMEAADKDJj8LlBQcAwAFmQEUDrLSlBHiLSS3iSQAkgqWMUESHEPCDRfwAATaFC1OdeoA8KQKpirjQUCvSTbccIA5IBUJV24QIRiSiTh81qlkNdAAgIDUOY23TLLnZHLeAgABASAQQDAACtyAgB4jIgQSi+pYJ5OAQOZiAXfGKCCAQQJFu2SpFULoEGCBAAAjoq1uSMM0JuIawWezsZyt7AMyyRahzzWddQWsnfl5GshNB/ilrZxvZ1J40AEkwFGcS1Rkl+Pa3wA1ucJMQ3Ed9BlGDghOlLsXcLFmpU1yB7leUi7kYIhAARzhCERbQACNol7ve3W53vzve7XqqkncwikhGEIDaofJM5PXuEXxQ3gUwQL70DS93wRS1SkYhACMQCRsCUAFU0km83jWCfON7hAXHV0+VzAMeitIGkWTCOCx4LwDA+10fZBfBHf4weI0A4Uqq4KGZGIkfSjOBKRyTDjCOsYzpIAcAMIAIRBiCAm6c4x3jWMc8BjKOiRCAOcz4yHQYwxSUGAA/lMQPMsVSc6eMm+lyaqZONkkm3kCCA2zKuVSOLnS9kqkDkOANKYYJ0xsuoAUtZEECcMCEnOdM5zrbmc6XkDMcJJCFNl+ADVUZyCUEUIUxaCEGBXgSGtOo6EU7+tFqbDQBFB2DNleBAJgIdCdYkII2Y0EAc2iEqEdN6lKb+tSinsMArtDmFLAg0H5wQJu1gIEY5OHWuM61rnfN61yzwARt3oIBsjwTTkgACZYmgAGWzWxlM/vZ0I52s51tgAFUoc1IkMBPZrLmPr+5DyLpA5/9XOGZGOAKfW4CCUhCAmRnoQoG0LS8503vetv73vjOt773ze9++/vfAFdIQAAAIfkEDAQAAAAsAAAAAGQAZACHHyErISMsMDAvJCYxJio0Kig0Jy06KS89KzE+LzE3PTwyMzQ9OTE9Pjk8UU42eHE/LzRCLzlLMjVCNzlEND1KOzxNPT9HOz1SMj9SMkBKO0FNM0FWOkVTNkZcN0hfOkpdOlRdN0lgOkxkPFFrP1ZxR0hEQkRMSktUQktZSEldQENYTFFcQ1JbZGNUSkxtS1NjSFhhU1tsWVpjQlt3RF57SFR0VFtydVFhRmB/R212Xmh6WmN1THd/WXF5ZWduZmhva21zYmx+cXJ4gXlBjINDmY9GpptJko5spqJ4r6t9xJNq+7l/4M9W6tlY4dBW9+Rb+OVbW12IRmKBSWWFS2mLSmeIX2GNT32FUH6HTm6Ram6Da3aKb3qOaHOGZGaWcn6Sa22gb3Gmd3mzeXu2dXewrnCEyX+VVYqSaIWMdYGWeoecc5Obe56laa+3cL3Ec8PKdsnQeMzThYaMgIGZlpebv7qGgY6lg5Cnh5WsiZeuiZivnJ2hjp21gaeuhq60paaqrq+zr7C0tbW534uj8ZWu9JewxsGK0cuQ5t+d6OGe7eah/vaqoqLMl8TKlcLHoNHXqd3ip9vgyMjLxMTH19fZ6urr8vLz////9/f4AAAAAAAAAAAAAAAAAAAAAAAAAAAAAAAAAAAAAAAAAAAAAAAAAAAAAAAAAAAAAAAAAAAAAAAAAAAAAAAAAAAAAAAAAAAAAAAAAAAAAAAAAAAAAAAAAAAAAAAAAAAAAAAAAAAAAAAAAAAAAAAAAAAAAAAAAAAAAAAAAAAAAAAAAAAAAAAAAAAAAAAAAAAAAAAAAAAAAAAAAAAAAAAAAAAAAAAAAAAAAAAAAAAAAAAAAAAAAAAAAAAAAAAAAAAAAAAAAAAAAAAAAAAAAAAAAAAAAAAAAAAAAAAAAAAAAAAAAAAAAAAAAAAAAAAAAAAAAAAAAAAAAAAAAAAAAAAAAAAAAAAAAAAAAAAAAAAAAAAAAAAAAAAAAAAAAAAAAAAAAAAAAAAAAAAAAAAAAAAAAAAAAAAAAAAACP4ALwkcSLCgwYMIEypcyLChw4cQI0qcSLGixYsYM2rcyLGjx48gQ4ocSbKkyZMoU6pcybKly5cwY4rEJNMipkqUJOmUNEnnpJ4+d/oEqvNRUEmUKtGsidASICEmAkgFQLWq1atYs1oNYEJIIEtMBUr6MWArgQNoD0BAa2DtgbZwDcCFIHdu2wMEAmwFIkmmoBN6AUDoMINKlsOIEytezHhxlRkdIFANcELQUpWY/liQOgCDFMSGG4s+HHq0YikY9Aao8OeyyT0IqA4IUVrKZ8U0ZujezXsGidwzatTojWOxbcRVQpQFIGGPSUwy9A4QUXoKhAEFGFQBDaCB9+/gvf5P+M4gfIDEUiAUKADh9uERgWWAHQkEwIAgAEpnoXCDUKEbE3C3xCFLFGjggAcmaGAApU3QHyE3RKAYAFrkBcRIkwAQQBp4nJcYAIMUUsggHmZBBQAKpqjiEiVmMUCIhJA4IR9flDWJSD4AEAMfeACg2ABmiGjGAAKuaGSBLRYQZCFmFDAjHzEE4INIBwSgBo8+JhYCA2WUwYAIpE0BgBJklmnmmWgq0eIHXHoZwpNqAHCASFLhgeViI0ggwQiKScDAAoAqAOifgBZqqKEBJjYCBXsuBgAffORBlWsd6WVnj6Zlapp+mh72KKRUzfdRnXd2auqpjX3KR6ghaXgpAP697UZCrLTWauusJOBAwqy1qsoqSK7yGAAFGRRr7LHFUjAABRRoYKwG0GYArbPFOhutBsQOi+y2GVDgKwCiemSpsHGUa+655wLwCCTsRsIuJOuu++688L4LwBvlwoEuut+G21GwPeq7777q0mvwwfTeO/C+AUC6KrghkRrwwvzKi/DF7z6iMMX59htxAJcGwHG6FmOM8cYjewwsyFiObG7BJpuMMscqfwRwAAKnXHLMB4OAr8s1i8tyhy6XCzPPFxcdR9D/Dg2A0kcjfTDUDv86qtM507yz1PNSDSrEwAIQMtRbcw1JI14/7C9HEotcdNRmsxvAzylXDfaoYmOZNf7FcMfNwt4LM83RzWTHbXDaVoub98RAl8012m/bvfZGbRdu+LtzR/715BpJDADgA/dtduZA+7F5qyzzQbrOl7/LQtFvCE553nwQ0MbbjnMNOrptECA56nbygQIWuLfOLuQjX4HC7yCRyscWCNC9MByic706xQhswbzNtPOhQQ6NGw/JzAPnoIHDan8cPB92EHDGyAHkjjT55sLxxhkE2IF+4pWmDmkaBriC1oynMemhC39X2t/dFLc+SKkBASNww8LiJ77r5csNIECA/tCXvpVtEH14eAEBrrA3OFDQeBaEwxUMsAI9cJAPeuAf2wBAgQY6LA0aQAAPJGiuE7aOdP7244EBNJCGPrwQD95aYKUAEAEJfNBhRvwCCgIAgjNI0IeGK2AbzgCCAHwgDS+ElB0kkETOZURDVNjAALQXRh7pgAMByAAC1uAIw0XCEWyI4wA4oIM7tPF5ncmCDGdnmBkQQAVPPCIXYqABAgwgAzDoARrWwIY++OGSfmADG9aAhh7AoAIDIIAGUrAFF/7xDiogAAk8pcTB5Yc0GBjACxL5QiOq4QtaiMELUMABbDWLAhzgAApesAMtcMGPf3TYHV4wgA2UZpCdYxB6UvMBLiTzmm004jW58IEBRGAKE2rlRtDoGA8YgAAv6IINsclOEHaBmQbwwHYcJc7OvbIxkP6RjAReEIQv5KGdycRDGnTwAslAwAM0GA00MyIVTjGGCjXoQAQMAIACSIADL7CBDoKwhS184aMg3UIXtKCDGKyAAxIgAAAMEIEO1MChjFkoRsiJqinMYAQh2AAGKAABCSDgpz9VSwQigIENeGAEM5gCTE0j04voRT9UoMFSUUVV5OBgnohpqkUaihg4LiAAHJhqVTtFBQ4MIAF7/FA9z3jPD5QgEYtIRAk+YFWsjvWhhUGMW+EqV7qy0owY4WoWCHCIRRj2EAQ4zAzOSoAZ3JUxhlzAABybhQIU9rCJ/evHQgMARRh2EYrIkgGSsIgkGOCxixltaRNwmADA1bChzf7qWmd6zwUg4bNIkEBr+Zol1GaVt4aRwG0Nm1vZAtap91zsEQxxhMYehgItqEMLMuDbxGQgutNVLAGW21zKCnK2TpXmYWiggQVowLtV4MACOGBX36Z3vaXBQQbMWxzjtuqe1UWVWBVzIvBahCrtza+A7Ru24cwgNzjQTYJ1lWDeiEAEH3jwg0Mgghd44AMgeHCEQ0DhD3hAwiJQcG9oAJxY6eW4/xVMT/WEAAi4GAE+bTGLJTOAGnNGKje2cY0FIJ0BTMWnLtaTkF3c0yBLQDL+rUhekPlC0x0RAFCAghMU8IAoM4HKVsaylLU85Udpk513CAABRHICCgFUWFC4cv6Vo2yEIWR5zVBoc5Sn/ICGnbkLlBEJHQRjSnb2SM1RbkITopxmLQua0HR+gqrYqQcJBIAOM1kAAEzwTz8DgMsKMMKbs1yEOVP5CVAAwJeviQcVBGABKL6IJPJigB1wAaSw/gIXZi1rADigCEUgggBunetd41rXvAY2rosAgFgb+6OLNICY+0ISSUQlMFqJtrSzAm1oV2Uq19aQCZhdEkwEAggrOIG4xx2AAww1NhGYwAImwO52u/vdPWW3BN4dgBUbYADjHvcKvEIplsihAmMYAxmI6oIUGPzgCE+4wV0gAoOfIOEVgIAYAn4BOYSFIJQgABgCboMLMOLjIA+5yLdHTvKPY6AGAfcCAShxcYHIwAUBD8MAtFCGOdh8DmX4QhnUoIY0fIHnOV/Dz3dehjWoIQw3x7mLwhBwF8ig5YI4ABkCrgIL+MAHP7i6D3qwgx/8YAc70LoPdBB2sZtd7BdQQcDJgABBhAUTEohCyg+wtn5PxBIH8ELAo4BqpsjhAgEfgwT+IJI/SGDiY6g4Uxag9zFY4QQkOYHcx+CFObX88pjPvOY3z/nOe/7zoA+96EdP+tJnJCAAIfkEDAQAAAAsAAAAAGQAZACHHyErICIsLS4uJCYxKCcyJio0KSw1Jy06Ky46LDE8NjUwPDsyNTc6S0k1WFU4Y186LDRDLjlLLThGMTVCMTlDNDxMOz1OOTpDMT5ROjxSTz5MP0BJNEJUOUJSPUhTNkVbN0lfO1ZfN0lgOUxkPltkPVJsP1ZxQUNBREZOSktUQUNdRU1dQUdVXFxQbVhLY2NURkhnSVJhS1hlWFphUltrVlhhQFdzQVl1RF17T1F1VFtyQWFqT2FqUmZuRWV1WWN0XWd4Xml6VWtzSXF6XXZ+Z2lvYmNxYWt9bm92c3V7d3h/mnZag1lqmGR3q59KtKhMvbBOiIZnk5BtmZVwyrxR+7l/1MRT+OVbW12IR2KBS2mLSmeIX2GNX3mATm6RbnmNaHiId3mGZGaWcX2RZG2Aa22gb3Gmd3mzeXu2dXewtHOIa4iPbIqSdoKXeoacfImeX5ykfoyiep2kZKWtarK5cb7Fc8LJd8vSeMzThIWLmZqfgY6lgpCmh5WsiJatnp6jjp21qquup6isrKywtre65I6m9JewzMaO39iY6OGe/fWqkLvBoqLMoNHXptneqd3ixsfJ3Nze0dLU6+vs5ebn8vLz9/f4////AAAAAAAAAAAAAAAAAAAAAAAAAAAAAAAAAAAAAAAAAAAAAAAAAAAAAAAAAAAAAAAAAAAAAAAAAAAAAAAAAAAAAAAAAAAAAAAAAAAAAAAAAAAAAAAAAAAAAAAAAAAAAAAAAAAAAAAAAAAAAAAAAAAAAAAAAAAAAAAAAAAAAAAAAAAAAAAAAAAAAAAAAAAAAAAAAAAAAAAAAAAAAAAAAAAAAAAAAAAAAAAAAAAAAAAAAAAAAAAAAAAAAAAAAAAAAAAAAAAAAAAAAAAAAAAAAAAAAAAAAAAAAAAAAAAAAAAAAAAAAAAAAAAAAAAAAAAAAAAAAAAAAAAAAAAAAAAAAAAAAAAAAAAAAAAAAAAAAAAAAAAAAAAAAAAAAAAAAAAAAAAAAAAAAAAAAAAAAAAAAAAAAAAAAAAAAAAACP4ALwkcSLCgwYMIEypcyLChw4cQI0qcSLGixYsYM2rcyLGjx48gQ4ocSbKkyZMoU6pcybKly5cwY8qcWbCSJEKB/ujcybOnz586AxGSVInmQUh5UAAIAKCp06dQo0qVGgBFHkhGK+mxwJRpAQgRMIgdS7as2bNiI0Ao4DSABT1FX1LKgyBAgAEYTGjxwrev37+AAwvWYoMD2wAH8kxiGUnJALsISuwVTLmy5b5aShxoGkBJJJSTkNgFAMEG5hIltvwtMaK169ewY48o8XcLDMl9b0hwimQxSUoo7AbA4RcHAQ0aBhDnuwWAi+fQo0uf7gJA8ePJl/PF0RUFJZIpAv4kGBPgb4Imhgw1gYAZQJX38OPLn1/Fet8J6NVP+AvADQQAKYw0SAAF7OFHeX4FUEh6hdjnhRbu0SfhfA56AcCChjTIHyB8FBDAICLNEMAPgPRRoRcIqJGeGgi0N+GL8FVogIqGqGHAhoAAEcAMIhkQQBwlVkgYAUwwQQBtfEG4xJJMNunkk0s4OGSRBJjmFwCAABJHAAaIZFcfQQKGAwcfaMcXBxls0MGabLbppgVsWvDBX2OWOVlfWGbZlCUhfRnmZYA+iNlfdwKaJyBNxfWRnyYGOpijhVp2aKIhLQWmibJlqummsHHAqWuTAqCoR4wCsMOpqKaaagA9tOrqq/6wxuoqACSoauupoY7aUal49Orrr78C0MgjxBZr7LHIEguAHcD6eoezufYZwKUANGvtHcImq622y1oLLLZZIipqpdMG6W2z2W6rbrHdntsruHqOCxKv7vqa7rrqtltvtPMCQG299g6Lb77MAszvouWaCHCv9w6cLBHPGhwupSA19e/CDTuM7MJ4HExqwtViLLDGyXLs8a4gmzwyyceaPLG8i/prrsgsIyuHy/HqyhG9Bq9c8yMBFLzvyzpvxNTFPf9sbBcRD52ztEjv6/PPOItbtEY8S610sTdjTDS5Ububcc36iv31vCnTvPUjZZ978s7lIiq02FOzDDHAdry9kf6lWSYwh9prLzxHAmfHDCYgMQwBuNJd1ztEDIV7xDcgbRRQxx2Yu103yW03a0cBbUSO8uGIk9C0t2Oz3Pmvd4QAuehwk+4HBT6cju7mGq/uqw8M+BGu1VD/zgcFJMwNbOqcG+8sCRQA+TvFCJOeZR8eSPC3tcjnbjzmc0jgge+/A19xAG6En2UQBZBAx+1rs208HSQUEIT5gOwBPakAHPAG/X3IMEAIcGha9hymLziEIAA0kF643sAWmH3sAwMYA/1K9IMEJMAHcMgb7gbmCADUAQ4+OEACfqDAcK2hACC4X0eWkpkB0GCCWWoDDygwgAQQQQ6LcISxdKguRyxCDv5dAMAAJECD0E3QDzQYAG1UCLe9ZAECCfgCDLMUBzDQYAMIAEACPCADIRBhDWtgAxvA2AUhyMADCQAAAjZAAzI4D4ZfgAAEssAXJhotAHcqQQEsIMUphqsPbvjCEX5AAxrE4JAxkAENfkCGL7ihhBP8wgUOgKQ6OhBlhdLCCET4gzf68ZOgrJ8OEHCAEUTKjljDY2BMEIEBUIAGEgylLMPlhzHQAAJ4sRJgUJmRpkTKL1owAQc2I4EVBOELnpwlFccQhBhMYAAIyMsvr3RJjvgSUMEUgVoGkD8JbGAFMaCBDn4AhHIC4Qc6MOQKMhCBzQwALCKwwTQDw0uMXNNRmP7JgglYA4IPcOCfY/mnp2ZjAh/M8zL1vIhd7qSFG5TgBgfFp0ST5FCIJqiad5yMFijAgBcwAAKZnKhIN9pRBlDgTky5WkaYMpkOvEARMH3BBvqCgxKYSaSBqakP+sKBl8a0A3jCaConMwBEwFQRiBgAX0pggBYYYAQ4FcwImkoAqHqhqEdNalBVipGF8iUAiThqIuwzgEMo4hAFiGpgynpWAnw1rDBNBIIsJNReqtILFYjCUaMAVAsZVatq/UsA/oqgvO61AluV1mSyYIAXTOEFBtipFzhwAimcgAOB/YsHGiCFDXiAL4x1LGTpaEmuKhQAd9rCCDxgSr+MoAOVzP5sX14bWy2AoAOtTWy/Iipb2UKorl29a2+Hu0vgXqQpn4qNBCQQgeYy17kQYG4Fmtvc6S6XuhFILmxS2icArOC74A2veMELgAWYVwEBUMB5AaDeBaC3vQpg73rDOwLwxmC85AUAn0Dio2T60URXuAIVBOCEAA+4wAImsIEVnOBDhXJLXQqJiIAwSwBTwQAIFvATFpxhKCD4wA4GpY54FJJAEIgPsjTRgQNsBSsEOMEIbvGLVxxiP/LBR4IQiSVSQBr/TtBEDB7whmG84CGv+Ao1hmEcIFCV31zALiwgpzmnzAVz/gAADXjAAxwQgCxvucta5rKXxazlBwCgnEFI8/6Up/wDFtjlAt8hySSKMJqpRKXOT2FKW/S8lDvbOSpF8I1JIqGHMCTh0IgmQAVUoIIMDOACGbCApCdN6UpbutIByACjK1AARCM6DHr4TEzykAE0oCENE/gCI1bN6la7+tWwFgMEzmDqDOTBKASJRAHKYOocMMAIwA62sIdN7GIDewI5UAMaykAAUeO6BjAwtRkGkAegWPvaO8nDAdJgahjUANeXIAQCuI0GFSgBJF4QAa3TgABCGMUSE8CCqcVgANNWpBIIEIOpscCA/cqE1KZGwwRyHBJBTIDWaLA1TRDAazRwIUAjSYG80SAGBID74hjPuMY3zvGOe/zjIA+5yAdHTvKSayQgACH5BAwEAAAALAAAAABkAGQAhx8hKyAiLC0tLi8wLyMmMSknMyYqNCkrNSouOicuPCwxPTMzMDI0O1BONmNeOmVgO3NtPi00Qi8+Ry85SjI0QTM7RTk7RTQ8Szg+TDI/Ujs9Uks7STZBTTZDVDtEUz1JUzVFWjdIWDlJXzZJVDlMZDtPaD1QZzxRaz9WcURFQkFDS1dXTkFHVUtNVkJLWUFDW0ZRX1haVmBPRWBfUWRjVEpMbEVHZklZYkdYY1RcbVhZYkJadkNdek9RdVBSdkZgf1ZhcVlic0t0fVpyekBgaWVnbmdpb2prcmBqfHd4fodabJRidJ+UR6idSaiAX7irTY2KapWSbpyYcsq8Ufu5f9bGVPjlW1lbhEdigUpnh0pniEtqi19hjU99hU5ukWRugW1ui2dxhGt2iWlzhmRmlnJykHJ+kmttoG9xpnd5s3l7tnV3sLd1ilaMlFOFjXWBlnmGm3WWnXGQl2+Pll+cpH+Mo2CdpX6iqWiutWuzumOkrHG+xXLByHbIz3fK0XjM04SFi5SVmoCNo4KQpoeVrImXrpydoo6dtYevtYClq6eorKyssLW2ueSOpvSXsMnDjN7XmN/Zmejhnvjwp/72qpjGzKDR16fa36nd4sPDxsvLzc3O0NLS1NbW2N3d3+vr7PLy8////wAAAAAAAAAAAAAAAAAAAAAAAAAAAAAAAAAAAAAAAAAAAAAAAAAAAAAAAAAAAAAAAAAAAAAAAAAAAAAAAAAAAAAAAAAAAAAAAAAAAAAAAAAAAAAAAAAAAAAAAAAAAAAAAAAAAAAAAAAAAAAAAAAAAAAAAAAAAAAAAAAAAAAAAAAAAAAAAAAAAAAAAAAAAAAAAAAAAAAAAAAAAAAAAAAAAAAAAAAAAAAAAAAAAAAAAAAAAAAAAAAAAAAAAAAAAAAAAAAAAAAAAAAAAAAAAAAAAAAAAAAAAAAAAAAAAAAAAAAAAAAAAAAAAAAAAAAAAAAAAAAAAAAAAAAAAAAAAAAAAAAAAAAAAAAAAAAAAAAAAAAAAAAAAAAAAAAAAAj+AEMJHEiwoMGDCBMqXMiwocOHECNKnEixosWLGDNq3Mixo8ePIEOKHEmypMmTKFOqXMmypcuXMGPKnEnwUyZDgJIcKcKzp8+fQIMeSQLIUKZPNAt+CtQiQAAATwFInUq1qtWrVJ0GaBEI6UxNRbQGSDABBIkSJ9KqXYt2rdq2btOSADEhQdQARTTBZBRj6oQSWrwIHix4C+HDiBMn1nIiwtQWjFgqUiE1QAYsigcbRrw5s+fBWDIQIADAgyKUnFQ4JQCiMwoQIH509sIhxYULGCzoTsGAQ4PbwC0Ev9DhMA8QHngM1gKCNIANnEpqMgAAQYDZJwooUSLghGYBS5z+iB/vJPySJuHJkwdAOPv2At41A0gAwIBekaAolB50nTACNo44wgYCm2URABUIJqjgggxSwd5gBwAo4AGHBVAICwFQAIpIgQTAQCGEBHAYAI0E2MiDXmxxYIMsMoiiFySa+CKMhxzCAACBiNRUGIeEeBgFSwS4BAXysQhJiwq+CKSQRBIGQI1jbCWSU4P0KCJhPBiwwQYG/DBYFgDIIKYMK4xp5pljOrDCizwUsOUByjlZI38BTBkAIT3OmGJaW8y2Q1pwxeVWCXDVcNgWJ6Awm2BP1ijVhiA5hSchenq26GeYZtboIY+G9NSkABh2aaakljrYpp1GemeeHbQawqv+sMYaAgcdvNrqrbjm2oEGGcD2agKyBgsrqgBA+hFUoLah7LLMMgvAHHFEK+201FYbLQBuNKutssQa65Gkef7xhx/ilmuuuABYgsm67Lbr7rvrArDHufSiWyOnxXoKAKj11psuvAADDAAf/Z7braerUlqwweoG7DC7Ay9c7sGR7huuxOg2/LDDEWNM8UefXuyxxhsLTLDH96YKMgCFiCzxvyUHfAfG9jqaL0hS8UszzDEDTPMfH3+7aiEA/Mxzz+8anfLNICdc9M4kI92u0jZ721HICkMt9btDkIty1QjjSbTRUW/d8ctLW81Rzi4vfPTWmCRCNb5qbwRu1iPD7e7+3Cp7hGzbBb+99RB8My20znnrHe/JaIOt6qQBeP1y2VKfXbAfQV+96iEBzJu44jNjvEfmHIF7CAV2aK34ujTbIUHaCLecSA4oqK541xjjkAPsOG8uCAF4fK635fXiQYAgvDeNZ41BSMB4v4JX/jy9fEgQxL10h429CyNMz/DqmBBvLh8juIB99o+f74IEeQROOdLii5uHBOaf3/fVFp8PBAFd9OHv+z0TXx+6QAAgnM9xTRPDAQ8BBw5EoA2Syxj4LNeHNkTgAnBIxAHNcL/SAYAAClxgGCqgACG0T4KrG5j/8iAEBVQghAcUg3PqphGooKAAu1tgIswAAwJwQAj+eoge/OggBA4YAAZmWGCNgFAAFHTQbqHiQQIwgDwlFgIMOEAAATwwBDkgohIlu0QlECGHIXwgAArAgRhapsQ6YCABynmiRpwiqubkYHkHRMScxJADF1TAKQqwwAdwcINC3gAHH7CAAgJAgAq4IAdjqJISa0SIHLBmM3LMyFM6g4UJ4LCKk8QeIeDwBjGE4Quo/EIYxGCGOuAxlDUSRA4KMAHMnMpwHYHKonhwAQJoYAxshKUwh1mIMWiAABnYAWIyiRE6LoYEEQgABoBghmAO85qFMAMQMACACJAgMIlh5kU26RnGZMAuEWABEMLQymtiTxBv+EIfHZOADADmM+L+tIhURrWYHZCgAxPQIiMRQIELcIAFLPCABxKKgQtE4AAEYCRZOkACHvAznLhcW6hMdSgs8GAHKHjLWnbAAx5g4aKZymdFnCmYLIjAAyLIAkdnmhmXwlSmt6ShJjfqhR8cgAZSoEGXaErUwfzAAEClwQG8xKiMbkSXgrEAFChBVShYYDAk4IAJUDrTLfyTBJupwFSretWm6rSZPA2AJKhKCUlcaQQciEIDPFDUxIQgBVFIQQgEo1a2ujWn+tpMACLBVkgQgK+EjcRh63oYAhAWElcKACTYGokrwcipc+yPFzwQg0lQYhIzoKsXDPAISjxisYwdDAFK+wgDCMYDM/D+LGiLY9aQQAWcW6gAA2bAgApsxgQEWIEATJDa9hhgBQfAQWF0y1vfAlZVfjKBMgnzgxMwtbiD4UEJbDmYP033uSvjKnZTC5WzXgSq403viDCryQBM4L0XyEAHMkDf+tqXvgcwwAAMgAABGOAACICoAfg7YAQkgL8E4C8CAlzf+d73wa0qr76QkMovDKHCGLYwEgBAAwhAoAEBeICHQSziDwfAASMO8YgBcOEMuxiVQ5AwSBgQADi4M09WsAITBDCFHD+BxznecY+t8OMh73hT14QDABggEiMAIIfXpJSOgZzjKlQhyFS2gpWxPAUkDzMHACiCSDIBlTe4k1JCznH+E56Q4ykPec1tTrOXYfmGiGZiJEeozxeiDAAqp9nNWL4yoK0w50l+wQABMAJJQKEDqRxgoS5AqKQnndA+L2ABAgiAAC6d6U1jWtOcBvWlATDphVIaoR6wTgB0YN6NGOJGWMGKUypD66hAZSpPsTWtY60VBuQoJZpgxCKGPWxFIMAGV7hCDQgAhjI4+9nQjra0ow0GAtQg2TY4gCKIPWxG3CcmgNCAGtSQBgowQDfoTre6181uRVJg3GrQACCSQhBPFOAM4/YBCzrB7377+98ADzi/WdCDNKiBDAfwBL0FooMajBsNB4hORzhRADSMuwc6WDgjEGBwNbwgCSBJwgtP0kDyCESGJqCowBXGzQUEeMUjoEAAGcZ9BQ3RJNzjLvdpQqIICnRc3jRRAL4P3gKStGDlB0fAwpfO9KY7/elQj7rUp071qlv96ljPukYCAgAh+QQMBAAAACwAAAAAZABkAIcfISsgIiwkJzEmKjQrLTcnLDkqLjsrMTwzMTY4NzEwMz5EQzNZVjh4cT8vOEkqM0MyNUM+NEE0OkU7PUY0PEs4P00yP1I7PVI2QE47QU09RVE3TVY4Tlc1RVs6Rlw3SF86SFsyQFQ7Vl87S2I9U2xAQUBERk5FSFdLUVtsTFx8dUBtbFhKTG1LVGNOWWhTW2xVV2FAV3NCWnZEXntPUXVQUndWWnpDZW5eYGdRZG1FYH5aZHVXYHFMd39jZGtha31qa3J3eH94eX92d32hl0ilmkmuokudmXOnonitqHzSnG/7uX/m1Vft21n35Fv45VtbXYhHY4JJZYVMaoxfYY1ObpFPfYVkboFrdolveo5ncYRpa51hY5FxfZFrbaBvcaZ3ebN5e7Z1d7C5dotWjJRak5tng4p1gZZ5hpt8iZ5+i6J5m6JnrLNprrZrs7pio6pvusFzwsl2yM94zNOAgYeFhoyHiI2JipCQkZaYmZ6AjaSDkKeHlayIl66JmK+OnbWJsbikpaqnqKy2t7rNgZfdi6Lsk6v0l7DMx47Ry5Dd1pfp4p7u56H+9qqPusC9vsGZx82czNKg0dei1dqp3eLOz9HW1tjb3N3S09Xf3+Pi4uTp6ery8/P///8AAAAAAAAAAAAAAAAAAAAAAAAAAAAAAAAAAAAAAAAAAAAAAAAAAAAAAAAAAAAAAAAAAAAAAAAAAAAAAAAAAAAAAAAAAAAAAAAAAAAAAAAAAAAAAAAAAAAAAAAAAAAAAAAAAAAAAAAAAAAAAAAAAAAAAAAAAAAAAAAAAAAAAAAAAAAAAAAAAAAAAAAAAAAAAAAAAAAAAAAAAAAAAAAAAAAAAAAAAAAAAAAAAAAAAAAAAAAAAAAAAAAAAAAAAAAAAAAAAAAAAAAAAAAAAAAAAAAAAAAAAAAAAAAAAAAAAAAAAAAAAAAAAAAAAAAAAAAAAAAAAAAAAAAAAAAAAAAAAAAAAAAAAAAAAAAAAAAAAAAAAAAAAAAAAAAAAAAAAAAAAAAAAAAAAAAI/gA7CRxIsKDBgwgTKlzIsKHDhxAjSpxIsaLFixgzatzIsaPHjyBDihxJsqTJkyhTqlzJsqXLlzBjypw5kNMjPEBQmJjAs6fPn0CD8jSBAgieR5xoEhz0QkCApwEARI0KoKrVq1izapX61MegmZzyKLBawMIIGTJ0zNDBtq3bt3DjzpAxwkIBqBDyJG25yc6BqgM+RKlCuLDhw4gTKzYcxUOBqgXubFKpaQjVBySmLN58eAoVzomnkDAAdYimk4GcBsBseMQBBSykGCZAGwHt2wRs0xaAAIEA3AQUHHatYIThGA+kCghUMpDUDAEOf4gwZowCD4WnBFDCvbv37+CV/kQv7IH6mAjYDQPQEJW5SE1OX/QBcHgAoUOHCAkoLCXAEkVLBCjgfwMWKCB9hQlwX377qfcHDwAIcFpIdASQwR/zHQZAIfgVMl4V2hko4ohLfFjFhh0iWBgAf/yhAQBjiDRBAFlgqCJhGKRgiCEpTJAdACQGeaBhFOjIIwYatmgGACHs9dFTe/zBx41VSAFBhBDIBmIUAPTmpZcHfCnmlx9OMYUEUT2gmYN/rFGVSE/xIaWJ/GlpmBRRxPVWFDPwOUOffQ52mBR2svlHVU56FKeUVILm6KObsdgioiEtOiWkmGaKmKSHApBoR1LJOeUBpD5A6qkQGHBqAQaouuqp/rAWQKqrsAZQKqy4HpBci51+ypGlALAh7LDEEgsAIIA4ouyyzDbrrCMAvFHstMJK6gelIIXK6BzcduuttwBMQsm45JZr7rnjAhDHt+xyyym2TwIgKgDtthsuuvjiq269377raaUBzMtvv+LmazC5+w7sLq/wKirvtgq7K8nBFCessL++bqTtlBFLTPHBFg+MMcB9QBwxABN/nG8kHc8xcrYPc9wxyiob3PLL8Qo8c8o1o3szw/+CBOzNPPds7s+TBv1kwCZfXLTR42ogx8xAZ6zR0DtDbW7I/OLs0cb0Zq01uSxTnbTVGWF98tNaI91rSGATPTa5Upv9ttBMy7z2/tzprnty1QDLeejUe/MNAOEDy+E1qEz/IYAbYs8NScdwLP7rw39gUEbkc3dcBgaAC435DhtwrnXdCnOwQ+hLC85HAZs7zTclXLNbRgElnw035n9gUQDkIrNtdO3eulEAFrze3XryOxwAfL00G+53u20csHryDXe0aPI8wN618D0TP8ft12OvtKIB5J58FgeI8Dy44NdcuxsiHFBj8i1GhTZGVb2Af4t8cIEAbvA+l8VPZSFzww0E4ALB4c8G+gOYAPz3vz+oQYAcIIPfoje3fcWhDBwQQAvUUME/CDB7l4uCATQQpQryYQfQ2YAVABAJvk0CAD3YgAAwsAMH4o8P/hooAJfOpz0AmMkuyCuhlLSAggMEAAM5MMMaAAEJ8EkCEoBYgxlygIEADAAFV2hhCX1HATNFEG9aIkEBQnAGJfJqD13YQQs4IAHVEGAAB5DAAAZQFQFIQAMt2EEWxKjEM1CgACQozBmXtiYQfUAAFEiiG/+3Bz2oIQ1oUIMa1DfJ5GGhAgL4QCNPRESOSGWUIBqBAUR4v066cpJZaAGrRoBKUu7vIlGpJWFm0IEC7HAHXfDhK93IhzhSQAAG6MAMFoPCjTylUImJAgks8JcCYCCQWuhCGjbpxj7sIQ1Z0IIcMfAYA1iABIKKVCmdGQBdKmYKMyDBByzggAfwsY8C/hiArAYgAAFYZQAPcEAIRkACHWSqmVdrp6YQYyZC5UkHUcATKtfkTmauM6GNlMEEDpABGSz0o4fR6AEwIINGIjRtRiRMDAZwhEQcYQAxAClIScBSlw7Ao4RZ5NdSWoUDJKERQE3CAQgjBQyMFJoyBZFRMbAmBfw0qMIB0UkxksucMgKojVgEgiawAkSsQAJJPYwEuroCJJ3oqkBlxIemikuFVoEAiMBqIghAGAAsIquNkmkA7qpVwgwgrkBFRAEUedG0BUBLIyiBIhqhiBJwgDAHQEIjkICAsM5GskigaxU4oFjGOpawt7TIUxrpgQAQIAAgKMwM9nhTyxZGBnds/i1hQBAABATgA+opLP94SpgpRGGUmvmtaw3jW4YKN7ehrcgzh8vczrBVtG4FaUWZ+1zlBqAA2M2udvWpXQI8hitQCW94pVIVqkwFANjlbnbVq13s6lR7AegCGuaLBkzO1770ne8ZAGCE/jIgAUXwL4AFHGAj/LfADABAfvGLX/qmIQ1deIqMANCFYc7pCU9owAKY8AQnEGHDGNYwh5/w4RFrmFOvPEMAJiASIQDgBBbmQwAyDOION6EJTqDxiJ9w4xBvGMWuPEEAhiCSSzzlB8OUsYg73IAiOOHJS85wETCs4ycAeZI/kMolRoKHqozQlTKusYihLOYyj/jKJVRD/gukgoeS3IEsBJjVAVo151a1Srx4znOeAVBnO9v5AARQlT+rcoeTVMIHVLHKVMx7Xq6Ql7znjTSkFQ3pp4BXOT6oxEo0YYlOd7oSCqiBF7Zgg98A59S4GQCqU22DLWyhBgqohKcxYYkJyaQOFwhDGMAAAUFwRBAQAIOuL1AHpRDkEgPwgq5rcAKPnIAGuvYCAbZs7E7AgAW6/oIAMOERTAzgC7pmAQyqPQgFiEHXJyDyR4JwAl2LwQBfoQknIAAFXXOBAMmdCCcMwAVdQwEC+TaJHXIdBjFAwD0gCUSwhU1smhhA2WGgwgkyQfGKW/ziGM+4xk8ABWFLu9oC4YTIIEdO8pKb/OQoFznIV87ylrv85TCPucxnTvOa2/zmIA8IACH5BAwEAAAALAAAAABkAGQAhx8hKyAiLCMmMSUpNCosNScuOSwuOi0yPDM2PUdFNE1LNVhVOGFcOSw1RC48RS86SzM1QzM6RDQ8TDs+STM+UTs9Uks7STNETjtEUzVFWjlEWDtOZTtPaD5UbT1ZYj9WcUNFTUpMVUNKWUhJXUFFWltDUkdQXklQX0pMbUxTY09XaE1bZ1NcbFZZY0BXc0Ree0ZWdFBSdkhud0Zgf0VpcVtkdl12fmRlbH98YmtsdWFrfnd4f3FyeJ6TR5aTb7Ouf+2vevu5f9LDU9vLVevZWPPgWvjlW1tdiFpch0djg0hkhUtpi0pniF9hjVB/h05ukWVvgmx3im96j2dxhGFjkWpsn3F9kWttoG9xpnd5s3l7tnV3sFSGjliPl1uVnW2Mk3aCl3mGm3uInV+cpH+MonyfpmOkq2y1vHPDynfK0XjM04SFi4aHjIqLkY+QlZCRlrizgoCNpIeVrIiWrYmYr5qapo6dtYWss465v423vaeorLW1ucuAltOFnMO9iNqJoOOOpvSXsMrEjN3Wl+Tdm+rjn+/oovfvpv72qry9wJjFy5vKz6DR16bZ3qXX3Knd4sLCxc/P0dLS1N3d3+zt7ePj5fLy8/f3+P///wAAAAAAAAAAAAAAAAAAAAAAAAAAAAAAAAAAAAAAAAAAAAAAAAAAAAAAAAAAAAAAAAAAAAAAAAAAAAAAAAAAAAAAAAAAAAAAAAAAAAAAAAAAAAAAAAAAAAAAAAAAAAAAAAAAAAAAAAAAAAAAAAAAAAAAAAAAAAAAAAAAAAAAAAAAAAAAAAAAAAAAAAAAAAAAAAAAAAAAAAAAAAAAAAAAAAAAAAAAAAAAAAAAAAAAAAAAAAAAAAAAAAAAAAAAAAAAAAAAAAAAAAAAAAAAAAAAAAAAAAAAAAAAAAAAAAAAAAAAAAAAAAAAAAAAAAAAAAAAAAAAAAAAAAAAAAAAAAAAAAAAAAAAAAAAAAAAAAAAAAAAAAAAAAAAAAAAAAAAAAAAAAAAAAAAAAAAAAAAAAAAAAAAAAAAAAj+ADEJHEiwoMGDCBMqXMiwocOHECNKnEixosWLGDNq3Mixo8ePIEOKHEmypMmTKFOqXMmypcuXMGMmvGSpps2bOHPqrHlJZsNIbm5gCEAUgNGjAAIgXcoUKVGiGG64ieSTYKU2EJ4qTbr0adOvYI0GQNCmkkxJObYKoMABBpMlT+LGhQtXrt27eOUuYfKCwwMBT3NIcgmpxdMGLvIq1pu3bt3FTz40ONoCkso9IZ5SeKH3sV4mb/cu2ZtktOnTS5DMGI2XNdwkFJ6GSHRyx9MMSvRKIFqBiV6vYreGDW6XSQXej5VUEJB0R8k1SVUEuEuhBCBAJSroBRAEyKAg4MP+ixf/Pfx0udWvZ78LgIXSNSMlKY0iJ4BnAX0CBepz/smSAN2NJ+CA4NknVwB/6PdHf3EBYEcUSQ0WEg8BmGBHfXfhp18fA2w3nncEDsighvt1aJeDdpgQAA8iIRAAGHbMYaBcFVjABx8WYCAXEwAA4eOPQAYpJBAMamAjjhqwZ8cdYAAAgUhEzREjg3FpMMAASf42XFgBmDiXlQRo4NkTKMphFJQByBEjAJC16eabiqFoh1KWhESUmmbCqeeejM1Fph2AGlUnSHdeCABqp4WGqKKmMbrXW4w6iqhpcgpqZ5qGbqkpV5s2VdRRgNphKaGYmqnGqaimmioAjDzi6qv+sMYqq6sAoKHqradWCsCgHxVqKq63sjrrsMPWCqyquvLqkVJ4AnAssq0SK+2rxj6ba6ij9orpHM5am2u00xLrSLXWJnuplNx6+22405L7rLmkNquuGsKySywEtnoL70dJyatuvfYOO+++HvVr6MDgBizrwNjuaicA/uqbsMKwMhyowyAZ/KvEFMvqiMWiYqwtngEg3HGsA+RbbsPKduRryf9O3HEEKr/L8qURlytzxyBnu2yp3XJ88quNzBvAzfEeHPPQr6b8L9IjKy000+4eS7DLmIpas9U7K9zA1riicTVHhdoxwBlLM+2qumcMAPWyEAOKARdpM120t1xg8Db+1mraAYUDdQ/ttLUOQLE32Vnb0QDdOqv9SABgq+pEA6GG3DJHBgMaRgBjNK521aqOMQCMh2/EbOVRDODFu13b2wjoqHoxQBSVW/5w36FKMYAMkdPbOruvR46GDANYUbvtSddOBgYOrB7s7+xCrmoaXjSAARnHI89vACJkb4cOB1zQRRppnJoGwEOTm0YXFxxgePYi+NyRUQdUgHvtOkRQAA1mkI8+xY0IXhrMQAMDREAH3pMDBiYjsoIBgAkPOEAYsncHO4BhBQcowAoCcIdGnCyAeQCABwrQABUYr4LHC4MBJLAE+ZHtUE/YgABYMAcUVg6FYajBCAwggAiswAb+XyjDHfCgCEUsYhFFxMMdyvAFG6wgAgEwwARqMEHvAYoFAthAgxqINd88IQkNIEAT6GDFUMnBClBggQkwIIEDXKlLAyDAASSAgROwQAdg6JsNs1cDEpZmi5cz3YziAoMGDIAF2CujIhfpPTKwYACIYQ8XETemJbxAAgJ4ABUZyUkr5hCTm8mLCwU5Jr10gAICKAAGaiCF+3Uye3KQQg0wUIBMdqCUchmlRojiRcj0hQIGAEAPNaCCGkAhClYIAxniEAc5MDMOZAiDFaIAhRqogAQQGAAAGkCBDXDGTbrMCFFwCZkkuGADGaDAAxpgSAEIYABEGYA7IdmAB1AgAxv+gME39xROjIzzLuTkk0ABipd+XuSfcdkAAQJAAC0O9KF2yQABAEAADpxokqSMCwcQIAhECAIBDvVPQCE6l8dstKMftWhc6PSwuhDAD4iIqR8MEJcZHAAAB9gnSeVi0wAcYAZxMQBMYyoIAuQSo7s0UAsPEVNEGGI6S0CADw7hgwPs9C4HmKoPELBSpsa0EP0xqEWSUpcD/KCpcOAqmQqBiEKw6aq5ZKtb42JWtFoVkC2NSwcI8INC/IAAHYgLAnAwCBxAAK5yiQBhcaDWvf6AEH9FwVEDmdTHdOAAAkBAYOOShAgMIAK5QewXI9DDJMjFBQgYwAE2i1dSjVS0VxX+a0WM8lqBOsZPrfEPnFoYAMpmxChKQA2kImUaJRj3uMhVAmhAk4QkLLe5THCupCaFmqT4FiOdcoqnkqKUrXRXONntClGuexFt3m+PsASAEYxABAUwoAjsdW8RitDe98bXvu2V05IWWZ8AiAQEAaBdJ810X/gaoQf4lS98EQzf+uqXkRACgUjYAIAJkJGTZqovfOe73gIbgcPr1fCDFzkBALBBJJSYaAoGDAD5xrcHDXZxe3sQYhePuIwpYCglRrIHo0xgCnGYgxzkIOQhE9nIcQDAAoYwBCEkYMlNfjKTnQxlKjN5CBAzcpGLjOQplDgAeyjJHgzwqfCaeTjgfYr6AcJsEkq4IQQu4tSZ53wU4fg0BG7YMUwuAQEkaEELVCAAeR9CCQM04c9IQMCgXbKGCvw5CxDQA0f0AIEs/LkC8KkKQSYxgCpoIQsxCIFHQhCDP19hAJPQ9EBagII/Y4EAEuKIJAZwhT+joAWqxsSYt/BnEkQBJFEgwZ+3cAA2+4TPR/gzFQygZ49YwgBU+PMRILDok7DB0X+GwA3qwO1ue/vb4A43uHOAgD9rAdNVMYCntTBtFIzg3fCOt7vfTQJ6zzve+JY3BJKthSoYINcD6QkmenIJgg+84AMXiMEPznCGExzhAI+4xCdO8Ypb/OIYz7jGN87xjuc6IAAh+QQMBAAAACwAAAAAZABkAIcfISshIywwMC8kJjEmKTQpKTQnLTopLz0rMT4vMTc9PDIzND05MT0+OTxRTjZ4cT8vNUIvOUoyNUM1PEc9Pkc0PUo4P0s8PlEyP1IxQEo6Qk0zQVY6RVM2Rlw3SF86SV47VF03SWA6TGQ8UWs/VnFHSERCRExJS1NCS1lDRlpJUlplZFRKTG1KU2JJWWJTXGxZWmNCW3dEXnxFVXRQUnZ1UWFGYH9IbndeaHlaZHVacXlmaG9rbHNgYXtibH5ra3xnZ3d0dXyBeUGMg0OZj0amm0mSjmynonivq33Ek2r7uX/gz1bq2Vjh0Fb35Fv45VtbXYhaXIdGYoFJZoZLaYtfYY1OfIRQfodObpFrdopveo5oc4ZhY5FqbJ9yfpJlb4JrbaBvcaZ3ebN5e7Z1d7CucITJf5VWipJohYx1gZZ6h5xzk5t7nqVpr7dwvcRzw8p2ydB4zNOFhoyWl5u/uoaBjqWDkKeHlayJl66JmK+cnaGOnbWCqK6GrrSkpaqur7OvsLS1tbnfi6Pxla70l7DGwYrRy5Dm35zn4J3t5qH+9qqiosyWw8mg0dep3eKn2+DIyMvExMfR0tTb293q6uv09PX////39/gAAAAAAAAAAAAAAAAAAAAAAAAAAAAAAAAAAAAAAAAAAAAAAAAAAAAAAAAAAAAAAAAAAAAAAAAAAAAAAAAAAAAAAAAAAAAAAAAAAAAAAAAAAAAAAAAAAAAAAAAAAAAAAAAAAAAAAAAAAAAAAAAAAAAAAAAAAAAAAAAAAAAAAAAAAAAAAAAAAAAAAAAAAAAAAAAAAAAAAAAAAAAAAAAAAAAAAAAAAAAAAAAAAAAAAAAAAAAAAAAAAAAAAAAAAAAAAAAAAAAAAAAAAAAAAAAAAAAAAAAAAAAAAAAAAAAAAAAAAAAAAAAAAAAAAAAAAAAAAAAAAAAAAAAAAAAAAAAAAAAAAAAAAAAAAAAAAAAAAAAAAAAAAAAAAAAAAAAAAAAAAAAAAAAAAAAAAAAAAAAAAAAAAAAAAAAAAAAI/gAtCRxIsKDBgwgTKlzIsKHDhxAjSpxIsaLFixgzatzIsaPHjyBDihxJsqTJkyhTqlzJsqXLlwsvwWxJaRKkm41uQoqkM5JPnTl7+uSpcxIlmTMVUvoTxASAp1CjSp0KIECAAVWpPjUR5A+lpAQj8cAa4GkAAgYgpFW7FoLbtgYOHDAAdy1dA2WhDuABKWmgE3khdJgxBYthw1QOJ15MJTEWx4oRHz48JUYHBFUDnAiEVOUlPxSsDsAgZbLpx6cRQ07N+rAMDFgBUPDT2aSeBU8HhChsWEpp0zJmxBhOfDgJ3yRICCc+Q7iM01KeIw4Re4Eek5dglB0gAvIUCQUK/jDg/RhAg/Po0zOQkL59gwCTpyAILwEyFRFkYdQGyQPAABwAmBZBDYMMUsMEigGgxIIMNrigIQ1CyCB8h1VAoIESmAbAFwMEwMNIkTyVxh0BTgaAIIQQIkiJ5Tno4osNAgBZAIIUKAiFhwWwhxpWRSLSDgC8sAeJphFgRopmFJCghDA2uSCLWBhJyCBJarjHHi8AsINICQSgxpBQYhECA2WUwUAIigWQxJpstunmm0ngiMUHZJaxgAhW7hjAASJVdQeYp40gwQQsTEbFAogi2kCiCzCQAAOQMspAohlOxoIEEoxwGgBX4mHVfhz5CShrq7Vm6qmmcnplWZWAqpGo/kSiKuuss6q6x1OVhPTUnyQWVxwJxdkAbAzCzXADc8Mt52txysYw7LIx2IprSFbxCkAFGWSr7bbaDjCBBhpk8G224YarbbnhTqAtAOpyy20FFUgLQK4gVQtmHPjmq6++ADTyiCMABwxwIwIXPLAjA7yx78L4ShvAV/UGYC3DDPdr8MUYAxyAwhTze+Wt81ILwMQd80twxigHvHHJ+cpL70ewAsByyyennHEjAHDMssvUSnzvzHFYbDPKOQPNc70j/zyz0ENjDAIcRn88LUgxAx10zU0b3IjVR39kL4lcY511wVxLHXLEf+Ihs9Fijx1w2VdODXPSYLPttsGMwA3y/ssefR1A2HcXPADUS5vNd0ew/m134AGrQPjOUj8sMslLt3233nJ7VPXijDuSd9RxS061z3VX3rnGOpfcdd+kr2366UUXHvfZXid9a+odM8244zO/sTriPu9BQBucM/4I0G0YEDnEc+NxJQpXFB/45yyfwYHhk1+ZBQK4V2z52LFTDAccCGSBPdJ/XqnBDY9TrHvg4VN8gwYf761r8HvUQcAZO3+fdfwLO4MB6lC/zHXEXh9LgwGsoDr/De0RAMwXHM5AgDTUz34Rc97H+KCGO7nBfQ60GQS7Fwc3gAABX7qgATlSFgJeEA8tMMAVuve+uwHwDVcwgArSVz8S0U5z/gGoAA/r5wUNHMAKH6TZ6RwRPjdY4QAY8MIFr3SHeP3wgACIAARcOEUvoCAAIDjDB2sIsH+l7BEjdMMZQDAAFEhxivlzywo3UpYpdIAA5oPjHuyAAw4MwIhrYIQZBTZIjDWCEWwAQAYCwAEc2EGPe8gCATaAhTm+KgCJIcEAUsDF+vGhU1p4wQUKMAALuEAHaFgDG/rASlbygQ1rQIMOXHCBARBAAyrIggb1qIYUDIAEhrFkRsriGCrApgWdhGQdvOCDF7QABRzQwASmOYELcAAFLcjBF7TwSEh+zA4vGMAGyPMU5rFuNVLAAAA+oAVvunOKn3znHrSAgtH85jDC/sRIVUqFhSmEwAAEaMEWdinPgvYwCy1Ay25Sk8+LELM1MugABAAAgRbgwAtDNOgL04CDFkAgAIKRDmvK2TPytIYKMwhBBQ5wFQlwoAUvwMEXtpAFLXjhpjfNwha+gANnckACHTJABDpAAn4y9IqhwiStDiOFGIwgBBvAQAS0CIEDQAABCHDLVDGAgRCMYAb3XGpDLfJQxcjAqEtN62moIAOTVhKpdJQRYvy4gAFwQK14TQ0HAICbD5gIrhqximM+UAJEKAIRJfArYmyA1rwuFjKENSwiHKDYtx4uVHKNkiEUwVlDEMAwMRhAAgYQA8emZgaiHcAMDFOAzXb2s8EE/uwwlYqFACSCs4elkAGQoAgkGMC0p9ltbwVgGNviNhEsImnEHCOBI+D2CAsIpmTDBFwATNcwC3AuZ6GLz3m5KiP7BO0AjFAII5D2MRlYAR1WoAHgmia9682AYTRJXiMQoLSxvWxcySMDDSxAAzZQDAcWwAG3ApcKHIAAByBjA/8C+K/6DSxt3UvhVMkWI4KtsIZHeuGLVAVaICZOCERAYhJ/oMQfOLGJQYDiEpM4xCAmwVgrYhUESAACmMJxjnWMqR5XZQBAFk2HrCIaIg/5Kh0CQI/d4pYd37jJcuywRQgAgG5eKZ6QVNsTntAEBTxgy13+Mpe9DGYyP2EJCrDV/h6wDEk7+EckgPmCRkl0ZjM7oQhCcMKYxfwEPJf5AWqW5xYAoAKRzIGveTAoidAsZiYwQc973rKjtxzpALDZnXmY6BxEUgkJMJKgeuRDHkhk5i4XwQlOYHSZi/DnLQMg0fK8Qwr4+t2NQILKB8iBTdOA017fNA1ZAIADiECEIQhg2MU+NrGNjWxmE5sIAOC1r3+NUy3k4AAAIEBfSCIJExA5L1oJt7jHTW6rmEASJ7nEH3igghO4+92h6bEBGJCCd9v73vjO9wII0OMAUCDfPPhDrVFyiQVEYQxj4EICzGkRShiACwiPggQGDhM5XADhYpCAHzjiBwmQAeEXkANYwgwyiQGAYQxioMEJPJICGiAcDAWYxMgJAgMWIDwMBUB3RyRRgDAgnAUwmLlAAnGAj48hBVkASRBSgHAyHCAQM7+EBKCAcC4UAAg/yLrWt871rnt960AoAMTHAIUFUDwlFse4BFDQg7a3PQdu7wHc4y53us+d7m5PgQTEAHKRgwUBJx9DFS6wiMIb/vCIT7ziF3+BKiC8C3wSukAuQfnKW57ylWiV5TV/+c5fXvKgD73oR0/60pv+9KhPvepXz/rWWyIgACH5BAwEAAAALAAAAABkAGQAhx8hKyEjLCwtLiMmMSYpMykrNSYsOSkvPDMtOSwxPTY2MDAyPDo8PVhUOC01RS05QzE1QzQ6RDg6QzQ8Sjs9TDI+UTs9UjNASjtCTjVDUztEUTVGXDlHWTdIXztLVjlMZD1SbD9WcUtCQU1OR0FDR1lZTkVHUUFJV0lLU0NMWkBCWk9RWVJUW0pMbUxVZEpbY0xXZlxdZVNba1VXYUBWcUJbd0Ncek9RdVRbcn9WZ1JmbkZgf0Zqc1tkdV1meEpzfGJjamNtf4R8QaFpfIqCQ5mPRqabSa+jS4WCZbaJZaCcdLGsfvu5f9nJVOTTV/jlW1tdiFpch0hkhEpniExqjEZigV9hjU16g05ukWRugWlzhmt2im15jGB6gnV1h2FjkWpsn3J+knx9nWttoG9xpnd5s3l7tnV3sMR9klGBimqHjnqGnHyJnneDmHOTmm6Mk32LoX6iqXygpmittWy1vHPCyXbJ0HjM04WGjJOUmbizgoGCpIGOpYeVrIiWrYSTqZqboI6dtY64vqeorKOkqbu7vrW1ueGMpPOXr/SXsNXPk+bfnO3loP72qo+6wJC7waKizLy9wKDR16TW26nd4sjIy9LT1dvb3dfX2efn6PLy8////wAAAAAAAAAAAAAAAAAAAAAAAAAAAAAAAAAAAAAAAAAAAAAAAAAAAAAAAAAAAAAAAAAAAAAAAAAAAAAAAAAAAAAAAAAAAAAAAAAAAAAAAAAAAAAAAAAAAAAAAAAAAAAAAAAAAAAAAAAAAAAAAAAAAAAAAAAAAAAAAAAAAAAAAAAAAAAAAAAAAAAAAAAAAAAAAAAAAAAAAAAAAAAAAAAAAAAAAAAAAAAAAAAAAAAAAAAAAAAAAAAAAAAAAAAAAAAAAAAAAAAAAAAAAAAAAAAAAAAAAAAAAAAAAAAAAAAAAAAAAAAAAAAAAAAAAAAAAAAAAAAAAAAAAAAAAAAAAAAAAAAAAAAAAAAAAAAAAAAAAAAAAAAAAAAAAAAAAAAAAAAAAAAAAAAAAAAAAAAAAAj+ADcJHEiwoMGDCBMqXMiwocOHECNKnEixosWLGDNq3Mixo8ePIEOKHEmypMmTKFOqXMmypcuXMGMe1ISpks2bOHPenKSzJyZNMhVmIgREQoAAAJIqXcq0qdOmEoAQyhR0YKEYSQcgJWDAQVcDYL1+deC1LNiuZsWSNUCAaYxCMgeRQArAwQcbVLDo3ct3L5W/WADzzSs4r14qNT44OBqABKGWmvIsyLpBSt/BUwJTyXy5s+e+VTYMSAohD1CUeQgcNfDBMBYbNi7baEGjdosQuEHg3s2bd42+VGD7/WAgaYE8JjWxODoABN8qBxBIt3wYgIjr2EU00L49u3cRAPj+7gCA4MCB2HtBjAaw4rRIIAAIZAnP10GORImGQNg7BQATJor8B6CA/yFC4IH06eXAEIggMoQBfQGgRXFAjFRIAAOs0UeCegFwSINoJDjFAAeWaCKBHAbwISKHcIgFAIGscVQk7wUgQyAb9kUAGiASwB8AAZ4opIAc7sjiIT7yBWMgMgRQYUgHBLAGji5+gMAQQxTQwo9JdDlEl2B+CeaYYwbA1wcHYHnABxEGEiMAB4h0VB9UXgbCBBc4x5cEEjDAgAgK8MmnAn4ycIGfggo6QV93OqCnkm76kZScAfxR52eYZnqYpp1RsWQgSLnn0ZyXcuoXp66ZCqmbSYna0VH+lm5YA241zFoDbDTUGkKtNuxaKw+1BivssMKCcGsIvcImrK8BuBlIqyEd5QeVE2RwwbXYXjABntcScEEGGGyLwQXjYlvuuOdiC0AE2babbbNuhhptAHRueMe9+OabLwCSUOLvv/9OAvDAAAdQh74I3/sptCCRam/CCPNL8MQU+wvAwRDv6yzDHzkMQMb6SlzxyP9eDDK+CwPgKkdJ1fvxyQr3S/LIk5h8sh0pr7wRAPRSCXPMM5Ns88k5z+vyz3eIHDTFL9jxc9ENA0CnpEgrvfTEVW+sstE+Py3z1Vg/rbXOGnlc9ddgD5w1q1uD1HLXMFudtr+OrP1s2x33/HD+3GjPTcnQIEP9Ec9Tv8y33wA3LTbbZGeE1NFeIw6w3Rx7RDjcRPc99yOU4z2q1JgHrnnagGcs+Kh6G5655BZjTPTY0YL+rOuis06J4ifXcXpHlwdywByR2/7zHAXA3nAA0waSwhVOr8563TBfkYLxg1fq5hYJNF8766UjbMcBW1D/OZ1uasCD9hDLPXf3+vLggbN3N44RqW7ycUAazkvOPr5pFGCp+LzrmbPWkIAfbE9/tNPXDwzABvjFj2vwg8MDPECH9I0ObOyjgwceAAcHPjBqfPCgH2QwgB8kMGkXvFrp6vADAsggefDbkOdeFQAI/M+Ba/AAAXhQQZSlcGn+JnMaHXhAAA9MyYN/gIC83AaACiSggx6MkQsIkIE0VFB9pKsDHdKQgQG44IgehEMCKlA5GlJBNFmIYqSCkIIBPKAAbxCEwNImCUG4AQAPGEAKskC+KGaBAB140QxZFoC80MAAFoCiGv0Qhh6cIAEBiEAKdBAENbghDpjEpBzcoIYu6GCDAUjACVwQBjU6Cw4WMEAIOjTIjRyFM2fUoyJNGQg/rEELPpDBC1KgAQ1goJcaSIELZOCDLbQBhrSEQxs34JoycgQpqapCFzUQPlpa85pq1IIGBpCBKkSolRrhWar0MoUPQPIEWZADNtcZRT5kQQUDWNM4WSm/i7zyM1L+UEwADpCCHnAhhOxUIx+40IMURMku3vyMM3cGgHleBjEfcOJREjABDsAABz4Igha4wIUteHQLWsiCD3DgghRMAJKhrMAHfsOphZatoariz6w+sIEMVGACZMlpTidQAQ5sAATG4kxMBVlPi4jzOTagzlCX+pkq1CChe3Gp4wAASw0QYC4YcChTM5UqKlzgqgPIalTB6bhC6oUDI2BEIxgxAg/IVKhb7cwUduAaD6R1rW0da1ErchTDEEARjQisIgqgFxoMgAEEoEFcO0ODAjBAAIrFwl8D2whFJImoIUkKYQKg1sAywkxUOIAeGqEHwi62LwVYQiOWYFrOUpYRCZL+6vzMigUIKIGySoiAXgKwiEYswkynVVJvf6uXCNw2sLnVa2Zh+poBIEEPSCAASy9QgiWUYFHB3Qt1rXsBvdSAAM+NLksxGzXXSFMCGoDqFDwwAQ1odatU8IAEOGDeDKB3B0oi62zhmt3+Xka29qStfwespADslSJHyRWxFhysDzjYwR148Ac4EOEHV/gDHpDwShnMYZ4deCI8ewAERgwBEZN4xCJeAIqPQgABMIYAMD6KALTCsxkzBkNIQbEDTnxiE5PYwyFpC0DX+YcAPOEJTVCAEI6c5CUjWclMhvKTP7VOPsRHJCsIQBAC+gcAPNnJTzgCEaIMZjGTmcrYzEL+AFYgEkCEEpnW7EMAmnxkJzjhyF+u853J/AQ0W9MPkEROSDRhFAzcMM4BkHKSjcDnJzP6yWPuMzv/gIEASIAklihAAFyohTB4+tOg9vQWAtCAIhSBCAIodRGEkGpTo1rVrzZ1EQAQ6lp7WgsyUA0BLFESTJjgxsCmy1OcEuxiI0XYSTk2sF1sAkygJBJBAAIKRoACE5gABRSo4YgJAIFqXxsF4K52uL0NbmuX+9rWTgC3RxwACozb2jEIAlxiookFQMEMZvjCAT68EE0c4Av4jsIC+K0SPFgA32WAwCA4MggI4NsMFsBDVQpyiQKMAd83QIFHUHADfI+hAJeY+ECrZtACfJNh1x6xBAHIgO8WzEDkmzBEAs6Abw4ggAI4z7nOd06BCfC85zr3OQUgoAJ8n2EBhpi4JiBw73wXQAx7iLrUp071qlt96mIgAMDNAIWBV8XgCIfAFiBB9rKb/exoTzvaveCAMpQB4hIPSgIunm8IWPvueDfBCU6Qd2uTIO8Y6DveIWCFt4MhTjAniHtEtfiHND7xkI+85CdP+cpb/vKYz7zmN8/5xAcEACH5BAwEAAAALAAAAABkAGQAhx8hKyAiLCQmMSYqNSwtNicsOiouOiw0Pi4wNjMxNjg3MTEzPkRDM1lWOHhxPyw1RS44SSw5QjI1Qz4zQDQ7Rzs9RjU9Sjk/TTE+Ujs9UjZBTzlATDNBVD1JUzVEWjpGXDpJXTZJUjtMZD5bZD5Ubj9VcEBBQEVHT0RJVUpMVUVNW0BEWUhQXlVWXmxNXH12QGtqV0pMbU5WZk5YZ1JaalVXZ0FZdkRde0VVc1BSdk5hakVgflpkdV5oeV1meEpze2NkbGVrd3J0eqKXSKabSa6iS5yYcqikea2ofNKcb/u5f+bVV+/dWffkW/jlW1tdiFpch0ZigUllhUpniEtqjF9hjVh8hE5ukWVvgmdxhGlzhm55jWt2inp8gmFjkWpsn3F9kWttoG9xpnd5s3l7tnV3sLRziFKDi1iPl1qTm26NlHSAlXmGm3eEmX6LoXmbomqxuXG/xnLCyXbIz3jM03fJ0IWGjJCRloGOpYeVrIWTqY6dtZOTuYGmrIautIu0uqamq6eorKyssLe3u82Bl92Lou6UrPSXsM7Ij8jCi9/Zmeninu7nof72qpqawo+6wKKizL2+wZrJz53N0qDR16nd4sbHydbW2NfX2ejo6vLy8////wAAAAAAAAAAAAAAAAAAAAAAAAAAAAAAAAAAAAAAAAAAAAAAAAAAAAAAAAAAAAAAAAAAAAAAAAAAAAAAAAAAAAAAAAAAAAAAAAAAAAAAAAAAAAAAAAAAAAAAAAAAAAAAAAAAAAAAAAAAAAAAAAAAAAAAAAAAAAAAAAAAAAAAAAAAAAAAAAAAAAAAAAAAAAAAAAAAAAAAAAAAAAAAAAAAAAAAAAAAAAAAAAAAAAAAAAAAAAAAAAAAAAAAAAAAAAAAAAAAAAAAAAAAAAAAAAAAAAAAAAAAAAAAAAAAAAAAAAAAAAAAAAAAAAAAAAAAAAAAAAAAAAAAAAAAAAAAAAAAAAAAAAAAAAAAAAAAAAAAAAAAAAAAAAAAAAAAAAAAAAAAAAAAAAAAAAAAAAAAAAj+ADcJHEiwoMGDCBMqXMiwocOHECNKnEixosWLGDNq3Mixo8ePIEOKHEmypMmTKFOqXMmypcuXMGMi1JTpks2bOHPq3GkzUyaZCzUN6pJCAIAAAJIqXcq0qdOlAlJ0GaQJ6MBLQgYoDRBAwACvA8KKDVtgrNiyZc2GFcAVKQABQi7JHNRCaQEOOKJc2cu3r9+/gP9GscFhQNsag1wKOtEWw43AkCNL7nsDQ9IAKASpBLSAqwAPUvhKCd2XipQcO1Kr3nFj9Y3Wq1OT7htl9hQPbAFIAHSyRlsRVPhOkSBAgIQpfKkASMC8ufMEBhA8dx6g7/DiEmZTEdEWSEkhb3n+BAjO14ILQ4ZcWEgOQIn79/DdI4oPv3r58+nX9wUQxKiQkZZwBUYe9vEVQCGHHFJIgVMEQN+DECoBQF8HJrigXwDsAUZSlogURAAy7JHHhH0JQEiChAjA3nwRtihhiScekiKGe/AhAwDehZRAAGyISCJfH0xghhkTfJBcAEkkqeSSTDaZxI9XBDnkAiBgyIcfbACwgEhc5eHjXyIccEAMfiFAAAELnJnmmWy2SQACZqrplwgLLCDCXxn6CACXAXhJIGRUkDfZoITuleceSVUF0lF+Fljoo5DydWiiIXXpI2yxZRqbFJhqekMUr0WR2g02aKrppAAo+pGlI0YQgZj+roop66sHCCDrArdGsICuB+za6wESAHuAqwAMK+ustA57KFKqesQqAHREK+200wJASSXYZqvtttxiG0Ac1IYbLarNdsSoj+KKa2237LIbgBzpUktupX2KGEC88l7b7r7ZAgAuvuPuITClICHVKMDSrssvv+8iTMe8Bdc7osMP67twuwDAi/CyqdLrJ7QOK3wxuyHMEbLAiHa8qMQgb2zxyN1SDPFHSX0s88swb0txACgTvCrLN+fMrsw9q/yzzSHjLHQlkxA9sNEenatHywCLvLS3Jm9cdLkcWTp10Fdn20HWVW/tsb1gh43tzmZHjLTLamMrCdtPc73RuRMnHXf+JQGQjS/PdZ+dN9xqU5LxyYG7PbDf8Vp9NQoOywF4ynZrZOkeA8Ch994OwzFA20cL3MEZm6vdNMJndAC6swHoIbAWEZQeNgCMhztHBFqs3tHle1zwA+FqH47vDxvs4UfiqwLgpcBuFIBG1UoLLXy6aAzQIx/Is768wGsIQHrj0ec8fbhnCLAGytnvXi/6bRwwwr/hOr70+NLKYYMBbPSBPuUhHeX6/nlQgQHOUDv5SU9j0prDGQyggv/tz2ess8D+ULaFDUTACgis2N6mJwcrRMACYJigwCzALHo9gAJ4mGAf+LAFFABgBGmAlwHFJwc5pGEEAwABF0S4Bz1I4AH+EFQfFQqzhf1diXk82EAAQlCAN0gibJJ4AwBCAAAL8MANPNQQATigHKjtDgDBIYEAGihCP2BPD1mQAQkH0AEaWEENb+iDH/7wiD/8wQ99eIMagqCDDhjmAijIwvZEqAcVCIAEeylhxMgjBQwIgAYpzCLK3LCFHtCABSjYAAWCJQEJWOACHWCBDnrAhUhKsoc0EAAGZhPEroGRMhAQgAxCeMoyYm9/x6ulhm5kAb3sx4scOYqgROOBARhgBkXUpTJFmAcwzMAAA+CALzEEzI1wZZiluYEHDhAACsggCz1apiTZgIUZWAAABfBACSLTSmu+ElBXmAIJPAABwwyAAir+mAEPeqCFLYABDGwIKBv+uYUsBIEHMwCBBbQiAAioEzmTaadGkoLNyVDhBjgQgQcwYAEIPOAABihAWQzwAANEAAIY4IAHRICDG1Q0otW03Dv3QoUovDRSOKXpNCUV04xck6YiEAABAtCBm+a0UCCwVQBAICiJ+vSdImCAIhqhiA3ciaY7MOpRqZBVvoBAqlRlwFWv4FSM/PQKBEBEI9aKCALs5QYDIIAAbHBUwNigAHJd5xUQoFa2FoCnlcsIRQ3FiLU2ghEkQsARGnGEA9T1L4plLAIIa1hGFKisF0EKeRaABMMiwbFkXUQjFgGlx4b2sCQ6QGfXioQFALZS77T+gQCMgAgjzHUvFIBBImCgH9PuBQK6hcEG9lKC2db2tobqqVnHwxcbbAABG6DrXqagAQRoQKuRoi4CQiCoGzx3Ay597cqw61vfYtYiZ33UMAVFXvIG5iiBXa4NogAqUZkKUyQgAQ7yq1/+7ne/I+gvfweMg0x16lTKzWwAQmoAAkQHpAaIsIQjDNKjtOXCl7mwhjFMALwWAMIGAPGEIwzfkLDFlHtYoSRH5AQnLIEBDmiCixnwgha/2AE2hnGOD6XMqQlAJCkIQBbESaAZ47jFRKixkWXshCEc+caTO2UusxCAFIjkDgGQgBFzycwA3LjFTGBCi40MZjHnGMdRluT+LSUQgDuIRBMIAIAKBrniAOh4xkNwQhNuLOMX55nMTuBxLVUAAATENyOWMMoBggBQgTra0RtqQBGKMAQFSJoIlZY0pS09aSJwetIAaMOjRz1QHwxVAB0iiSU6wxWmuOUpsI71Vl6tYVcHoAKpNgkggHCCCvj6150pgAQMIAADTODXyE62spf9lQgXIAALUPYJgBCIQ5tEExJ4AhnI4AUDWNshmjCAF7b9hAV8uyV2yMC2x7AbjgBCAtsmQwbsYJWCYIIAX9h2DlKgiX77+98AD7jA+52CHIyBDGEYACbqPZAaxGDbYjCKrCf+FAGIYdsxqAHDNzGIAxycDB+oASRoRk7ykpv85CgveQ5WsO0yGCAxVtHEArTNbQLwwRE4z7nOd87znuucDwQYNxmeIIFzmyTd65bAUSjOdKdI4OPztsoBwkBuK48kBU84eBgIsPGue/3rYA+72MdO9rKb/exoT7va166RgAAAIfkEDAQAAAAsAAAAAGQAZACHHyErICIsJCcxJSk0KSoyJy05LC85LjI8MjM9ODo7QkEzTUs1UU42YVw5ZmE7LDRDLjlLMjVDMjpEPT9HNTxNOz1SRzhGM0JMPEBLPkFUNERZOUVaNUdXO05kN0lgPlNtPVliP1ZxQENUQUhXTE1XQ0xaRUdcX0VURlZfVFZdenhfSkxtS1JiTlloV1lgUltrV1liQFdyQll2RF57T1F1U1V6X2h6WGJzXXZ+R253ZWduenhgYWx+c3R9d3h+nZNHu65OmJRwrql8wbNPxbdQ36Z0+7l/69lY8+Ba+OVbWlyGR2KCSGSES2qMX2GNTm6RY26BaHOGbnmNfH2DcHuPZGaWcX2Ra22gb3Gmd3mzeXu2dXewx36UUoKLWI6Wb46VdYGWd4OYeoecfouiZKauf6SrZ6uyaK61bbe+b7rBc8PKeMzThYaMhIWLlpectbCAhoaigI2kiImsh5WsiZeviZivg5GnnJ2hjp21jbe9p6isqaq1tbW50oSb2omg5o+n9JewxsGKz8mP2dOV4NqZ6uOf7+ii/vaq+fGnkLvBoqLMmMXLl8TKn8/UoNHXpNbbqd3i19fZ3Nze5OTl6urr8vLz////AAAAAAAAAAAAAAAAAAAAAAAAAAAAAAAAAAAAAAAAAAAAAAAAAAAAAAAAAAAAAAAAAAAAAAAAAAAAAAAAAAAAAAAAAAAAAAAAAAAAAAAAAAAAAAAAAAAAAAAAAAAAAAAAAAAAAAAAAAAAAAAAAAAAAAAAAAAAAAAAAAAAAAAAAAAAAAAAAAAAAAAAAAAAAAAAAAAAAAAAAAAAAAAAAAAAAAAAAAAAAAAAAAAAAAAAAAAAAAAAAAAAAAAAAAAAAAAAAAAAAAAAAAAAAAAAAAAAAAAAAAAAAAAAAAAAAAAAAAAAAAAAAAAAAAAAAAAAAAAAAAAAAAAAAAAAAAAAAAAAAAAAAAAAAAAAAAAAAAAAAAAAAAAAAAAAAAAAAAAAAAAAAAAAAAAAAAAAAAAAAAAAAAAAAAAAAAAAAAAACP4ALQkcSLCgwYMIEypcyLChw4cQI0qcSLGixYsYM2rcyLGjx48gQ4ocSbKkyZMoU6pcybKly5cwY8qcOZDSnjYpMCAwwLOnz59Agxo4gAADjDZ7KNEcWEkPCQBQA0iVChXA1KtXrVqlGmBr16pVA5DQU0kmJTYGvj7QEGPGDCZw4b6VGzfuXCZ3675dMuODhgJTDbBR2lKSDwFWC3Ro8qSx48eQI0ue/LhJhwJQBUyRpDKSDrUxKDtm3Jj0EyeiUz+O8WCrjkgn3UyFMOPx3wIbKhPYLWA3ga4BfAcfvjv47sobCOA2PQNCVTclZQcYAQByBQtcuFjIMBpAke/gw/6LH1+kuuMN2LXnfgzABFToIiV1tTEnAOQBfQAB6iOgu5H/AAYo4IBGmNeYAPnt1x97ePBgFWchTTEdHnMY2BgAfujnh32lAUDghwRaiKGGCzoGAB54UDeFSBMEYAWFFj5xwQl//HECBf4ROAiIAVpIAY02XgDZiXhYAcAEIkk1B4yQNUEBVBSY1gQAvflWXG/GWUlAlb9V9iQAUQ6JYoUAJAnAkhVK1oRpo9Xl5pt0xcVmaXNeiCIeUJUFkpJMqubnn38SiScAen7EZ5qAJqqomCjmGdKhAAwg6aSUUipApQVUqmkBBFQawKWaaiqoo3sGgCYAaKSBxqqstroqAP6JMLLIrLTOysitteY6KwBnuOrrq3eSaqipMK5h7LHIIguAI5A06+yz0EbbrABpJGutsaMS+iixFV577bLShhsuAGp4m2y2hXpk1anmnsusuPA6G0C17WIbrLYgrVtsvdi+Gy+8ANBbL7rbssvvGuD+C68AByN8b7odQdpwwgqH+8jEDz965r78UlyxtBg3iu+wBnfs78fRhjwoxBxJfLDHKD+rsrAedVXywCfH3KwE5Xaccak3twuzzgP0PPDPJHOMs87QXvwy0jVzC8DEOTM988jqSk01089KcDXLG7lsMtfOkvu0yGBrxCeeRgtddcwBtO2tGgQDjSK1L7+Nsv7T9aIhANQRE4vHBV7kTbazB3txAeAtC27DBYYf7jW/HNjAeNiCz3FA4Usfbna7XhywJNoF32nFAGd0TnbA7Z5BABV3rlz6nTYUQIbbh0Py+bVkFIBD7LLbHTsUA3Rh7tAx755sFwTwAHzwSQMPBgQcmPGt3h8rb6wZHEQAxvPQR80C+HjcIAAItyuLfcXKkwHCADeQ3wLNEQNQwPjg2/GCARd0QS/yKGMdGrpwAfjFgXwswAzWOgKVJTxAAgcEXx2isAEBXCAHAGDE4RoBgBxcIAAbiEIdyDcGCTyACfTjiFXWpIEBOI98eKiDFFogAQBEgAU4+EIZ8sCIqjmCEf55KMMXoICCGh6gBVIYIQydUIAKMCaFmCPNDAoQASnA8E51CAMUXoCCCxyAAFW5VFUGcIALlOAFUAiDEq8oBQkUIAQmWmDLACClDwzgAVC4IgznMIcx2IGPeiQfDw4wgA8MSY5ho2OTPvAAAYwgCqMLpCT3GIURCOABH6gTFNUWgDo1ZgkaaI0EkCiGSU5yDFGgYQAe4AEmUGaTGVlhapoQgu4JQAAR2EALbBAFMIhhDJEEXh/FAIYo2KAFG4jAltYSAk8eMm2xVCSgmCCDDnAAAhDIFGLCOACwXOoA2ORAB0LgykTBEiNQceai1tQEuLBzUa9EJCdNEwMEECABcP6Epz4fEwIEDEAC+byQPDPSFdLEgABCIIQQDBDQfS4qBAZIqBAIYEiBQhMjUiHNAd5wiI4K4QCNYYIECCCBJTg0MiIlaTk32tFDfDSOF71IQRsTAEO01BDmkYAKBqECCJwUMjodxA4kcCGbdhQRBjrnRdLZGAIEoqWBMMCFCnGIQsTopACgqlWb+tSORhWmGiNNBxIgiEMIIgEdaMwBgoCIIID0p45Za1vfOtaynjWtFt2WaToARgLg9QkzMAAAHtDQn84AjAeoTWOSAwC/mkapFskoZMrZJLiq6bLPDAlTLcvZyExpoBiVZmdHm9c9UemWqL0lpgZwqW2C5bWwpf4KbEM1KW1OqlOQrUhXfulHO/hxDMANbnDhIAYAEOG4C1AAEJCrXOYuFwgMaO4QGACAOAj3utiNQ3HLFBIMBAB2pqxQEpDQgAUcIQlJ+IF5x1ve86Z3veRdgKAmSQUAYEAkEhKBKWEUX/eiFwnsXe9/Adzf+UoyAwFYUUgmAcb4TbJC7WXvD/4bYSQ4YMIBPq+B9WiD4ExiJHewyga+F8gKwbfCKD6xgDdMPjBsoCvwGYl0urKlGrN2ALzZEliAMxWvRAU4XpHKLbfUWkn1pjdhiTFJJNEDBMA2LF95spSnTOXXdgUBPYBQSioxiS53WRIRqAEWsKAEA0TCy2hOs/Sa1zyJSBhACWOuQQQkkeaYpoQNFdCCFrKAgCjs4c+ADrSgB03oHkQgC3quABuWQhBJCOAKeq6BATIggkqLwAIbuHSmKZ2BToug052uQKW3Q+lLP4AGeq4CAbS8FBisQM9YIIAcFEHrWtv61rjONa3lIAAs6JkGMGC0JfhggC3o2QQmgIOyl83sZjv72cxmQZ61sIUD8GEplYiAElJNgBTAwNvghoG4YeCCcpv73Ogmt7nHXYAq6FkJEbAzSvCs5yxEQA8i0cOhE73omRwA0lpQAglIYoJta6EKBhC2whfO8IY7/OEQj7jEJ07xilv84hjXSEAAACH5BAwEAAAALAAAAABkAGQAhx8hKyAiLCwtLiMmMSgnMiYpMykrNSouOScuPCwyPTY2MDw8MjI0O0dFNFdUOGNfOiw1Qy8+Ry85SjI0QTM6RTM8TDk+TTI/Ujs9Uks7STZBTTZEVTpDUjVFWjdIWDlJXzpKVDlMZDxQZz1Raz9WcUJETERFQldXTktMVkJLWUpOXEBEWEpRXFlaV21YS2NiU0NFY0pMbUlZYkdYY1RcbVlaZUJad0Rde09RdVJUelBSdkZgf1dhcVlic11neEt1fVtyekBgaWZob2Bhe2trfGlqcXN1e3d4fpp2WodabJRidJ+UR6idSbirTY2KapWSbpyYcsq8Ufu5f9XFVPjlW1tdiEdigUpnh0pniEtqi19hjU98hE5ukWRugWdxhGl0h2t2imRmlnJ+kmttoG9xpnd5s3l7tnV3sLd1ilGBiVaMlGyKknWBlnmGm3GQl2eEi1+cpH+Mo2CdpX6iqGiutWuzumOkrHG+xXLByHbIz3fK0XjM04SFi5CRlpWWm5mZnoCNo4OQp4eVrImXrp2eo46dtYevtqipra+wtLi5vOSOpvSXsMnDjN7XmN/Zmejhnvjwp/72qqKizJnHzKDR16fa36nd4sPDxsvMztfX2c3O0O/v8PLy8////+fn6AAAAAAAAAAAAAAAAAAAAAAAAAAAAAAAAAAAAAAAAAAAAAAAAAAAAAAAAAAAAAAAAAAAAAAAAAAAAAAAAAAAAAAAAAAAAAAAAAAAAAAAAAAAAAAAAAAAAAAAAAAAAAAAAAAAAAAAAAAAAAAAAAAAAAAAAAAAAAAAAAAAAAAAAAAAAAAAAAAAAAAAAAAAAAAAAAAAAAAAAAAAAAAAAAAAAAAAAAAAAAAAAAAAAAAAAAAAAAAAAAAAAAAAAAAAAAAAAAAAAAAAAAAAAAAAAAAAAAAAAAAAAAAAAAAAAAAAAAAAAAAAAAAAAAAAAAAAAAAAAAAAAAAAAAAAAAAAAAAAAAAAAAAAAAAAAAAAAAAAAAAAAAAAAAAAAAAAAAAAAAAAAAAAAAj+ADsJHEiwoMGDCBMqXMiwocOHECNKnEixosWLGDNq3Mixo8ePIEOKHEmypMmTKFOqXMmypcuXMGPKnElw0yVCfI4Y2cmzp8+fQHce4UPo0iaaBT35QTEAgNOnUKNKnUoVQIAAKPx4oqlJyFWnCCR0CEG2rNmzaNOa7RDhgNWrQjDBTMTiK4QRWLjo3cslSxa+gAMLFoxlhISnLCSxPFTi6YUrg/f+jSyZ8mArF64GKHEIpabGAQZ4yKvXBoYOVibrzYCBgwUOGjRw2KDhNWwLGHBjyG3BwgbANjpgsCG5Q9PNmkpiKgDgQADVXEYQSJKEwAjJAJBo3869u3ckAfj+SqdunW+W5gEKyBXJaQKAFYEAQDeAZtEiNAawS2kkpb///f8F2F8jAFQxGX324QdYAII0RgEnIvkRwASDCBIeXwAoYp8iAOjlFwD8CSiiiB3uFYCGi3C4YCGFuOeHSCgE4IUhgpS41wRK2KfEBB6eN+KPAdrIBY468oghi15gJdJVgBRSI2A3EJBBBgRYoRcWVQDgwpYuPMBll1+GyeWFet1gwJQG3AAYACwGctWSAAjiJJmSjWCDX+KppedZMQCWxQgjQKcXmywGAACEIFkl55OWNeroo3sRWohTiH501aJCQqrppoOyOOmhISnqJAAelGqqqcKF0IEHGGzQwQb+sMa6gQeyymrBq7EicOquu0pKaUiXjprGFmkUa+yxxQLwxhrMNuvss9AyCwCxyFabhq+gJsrgqHt06+233wJAiSXklmvuueiSCwAe4LbbLbaVehRsje66K266+OK7br3gwgtsnKPqwW+44+ZrcLn7Dvyup7+CZCimCnt778EHJ6ywv9pCHPEeE1Ocr8UDY2wpwPRu3LHH6c6xMccMZzuyxhGfjDK6K4ss77Ylx1zwzOnW3HK8HYma88U783yuzyw2/DK3JhdtNLlAIP0p0BzNC0DNTj8NMr82B03y1U0/fa7KJv8MLM5g6yz20WUn7bJHQqdN9NrlRt321GfDPDf+3ZYAcMfdSsONNtZ8981uzGY7vG0hAfytNt9kK4xH1xyJOggFcIRd+MZyRJC4pdsaQgMJmtNtt8Iz0PD5zXIWEscAdDxO99bt0jFAk25TvZGoLPYQweFcZ2007d/ioYEPnuKteOssggAC8PYKzzPx3eLhAQjJKw868yymEEEdwRfud711aADCINlbdZTDAHtqSCE0GLCFwO3KrDX03eaxRQE8ZO/2+qADg/8KIQYLTEANeeiX9GYGsjyoAQIWEMP7sicGq+hOI4YagAAH+IUKJOAH4HvXAlGWsDr8IAEU+MIACwEGAgQuaAEgwQBUt0IxsGAAGviBHew3PDj8QAP+A2CBGFYIvwGQ4IVVk88NEGCBOKyQRl+YgXs4AAQ3GGISlagExSZhCDcAAQQBSMAMwIC+FcbBAgiwEhI3cpW/ZKEDBKAB9wYYCDDQIAUUGEAAGGA+Fsjgj38EQQUYAIABTCAFNABDIIjIIkHQYAAdmMwaMRgA0nDBChKY4SIZmTxBtIENYPBCF0bZBS+AQQxtmCMjA/FICagpUm+DoaBuUIEBYOALquSkLok4iC9wIAAXeCWGYlm15xBGBBAIgAVoIIYy7vKZhRiEGGhggQBAIASWXBMAACgv+VCmMBdAAAAOSQMviCEQznxmHNjghTsmEwEYwItlJpkRpwgqMln+sIEILiABBOhxAAeYQAU4sAIOELQEBrUABA7wz7BsIAQ2yOY8ibk7b3LKQzu4gQ1sAKiOdpQENrhBavpyUS7QEyNt3MsVPgCCD0CmpDDVy0o54NJhXjAjhprMDgzwAii8QABWiulFrcBTnxpgByaiqEasMhkKOCESUHVCBTwkAg6IQKiByUIIHroXp0I1Ek7QgCSVitNK6iUAj/jqIy5Emyc0gANY5csGTPAEE/yGC2hVK5lOepGc6mUAjfhqIwZwVkdEwhGEjWthI9GICwXAsFAdLCxvilKLcqAFkIgEJF4AVy4YgBGRYERiFfvZ0BJALxx4QWYh0YK7mpSsGGH+qocokIAXKIACkxFBAU5ggKsqlgsiMABvr9MXCjDgBQygwEtfS9m+GnMv+iQOX3YwAqT+Vi/Uta6HoqvN5lrEnua57m/PA9uLgLdRglLNPcU7qG2GCgAXiG98YXWBDdRXvvLdAAIOwN8DGIAB/DUAAQrg3wMQ2MAGPjB/56sB+84Xv/JtlVO42RFD9cAHGM7whTWcYR/wAAAPCHEDAuAAEROgxA8YMYpVLGIA9GDDG+6wjIfQA6eIhAEBaAM0R0UFKixBAFHocRMIEGQfA1nIAphCj38sqWe2YY8iEQIAaPjMGhm5yFSIQpF/jOUpKPnKTdal6AAgBJFcwipsgGb+jbjcYyZgmc1UYEITenxlKgBggrtkgx4vMZIiFLILVQbAketM6B9/Gc4ASCcju6DHIpCEEzVwigE4MAMVWBoGLGDBDGCgAhlYGgAKWMACFABqUSsgAKEedalHjWpRLwAAm7a0CjLNaRZgWgUccAsAauBdjRCCkFExVFWGPRVhQ+Urwv7KUzTDgD+oBBOIIIS0pf0HA8AgBzmAAQFQIGsUcNvbluZ2t1XwbXKb29sFuHYOQmCAaU8bEeuJCR8wYAYzlGECKhiCvvfN7377+98qmEAZ6o0BPiCFIJkwwBjqrQMLSOLhEI+4xCdO8YdbQAf1DoMBMnFwgdQgBvUmAwGAauAFIpj85ChPucpXTgQaEIAM9Y5BDTqeiAOcod4rUEEfds7znvv850DvOQtWUO8zHCARSGlPFewdhgNQeCObYEAY6l2FCfT6JPOutxkmQAiRHELg9eaAwWdygIWbIQwoIAkKll6Gpnf87XCPu9znTve62/3ueM+73vfO975rJCAAIfkEDAQAAAAsAAAAAGQAZACHHyErICIsLC0vMDAvJCcxJikzKis1Jy06Ky46LzAwKzE8MzMxMDI7S0k1ZmE7c20+LTVFLjlLLjtFMjRCNDpGMzVKMjxLOD1LPzVCMj9TOz5UQDVCNUFMOUBNNUJTPkNTNUVaOUhaPFZfOkxjPFFrP15nS0xHQEFKXU1GWVlNUFFKREZQSktUQ0tZQUNbRlNfSFFfVFVddHJcSkxtS1NiSFhiV1lgUltrWVtkQFdzQll2RV99T1F1UFJ2QWFqRGdwRmB/WmN0VmtzXWd4X2l7S3V9ZWduYWp9bG10d3h/jF1vkWBykolEnJJHqIBfrKFKtqpNlJFuoZ11qKR5+7l/0sJT3cxV+OVbW12IR2OCSWWFTGqMX2GNTm6RZG6BaHWHZGaWcX2RcHCOa22gb3Gmd3mzeXu2dXewvHiNaISLb46Vd4SZeoeceIWadZadf4CGfouhZaevZqmxaa62b7vDcsLJd8rReMzThYaMgIGHiYqQlJWZgY6kh5Wsg5Gnjp21hayypqerrKywtbW5urq9w72I4o2l9Jew2tSW49yb6uOf9O2l/vaqoqLMmsnPoNHXqd3iyMjL29vd4+Pl6+vs8vLz////AAAAAAAAAAAAAAAAAAAAAAAAAAAAAAAAAAAAAAAAAAAAAAAAAAAAAAAAAAAAAAAAAAAAAAAAAAAAAAAAAAAAAAAAAAAAAAAAAAAAAAAAAAAAAAAAAAAAAAAAAAAAAAAAAAAAAAAAAAAAAAAAAAAAAAAAAAAAAAAAAAAAAAAAAAAAAAAAAAAAAAAAAAAAAAAAAAAAAAAAAAAAAAAAAAAAAAAAAAAAAAAAAAAAAAAAAAAAAAAAAAAAAAAAAAAAAAAAAAAAAAAAAAAAAAAAAAAAAAAAAAAAAAAAAAAAAAAAAAAAAAAAAAAAAAAAAAAAAAAAAAAAAAAAAAAAAAAAAAAAAAAAAAAAAAAAAAAAAAAAAAAAAAAAAAAAAAAAAAAAAAAAAAAAAAAAAAAAAAAAAAAAAAAAAAAAAAAAAAAACP4ALQkcSLCgwYMIEypcyLChw4cQI0qcSLGixYsYM2rcyLGjx48gQ4ocSbKkyZMoU6pcybKly5cwY8qcaXBSpEaCcurcybOnz5yEIk2iiVDSnhgGAChdyrSp06dPAwSIsUcSUUuBWARgegBCBAkRwooV6zVC2bFox0I4sHUpi0AxK+2hIDVABBJZuujdy7ev37+As5CIsHTCnkosKeExIPXAiC2AI3eBLLny5BEHAAQwgIcSykpvCCg9QALyli05clDeS6K169ewY7cu0XcLCR18SSiQSiAPYpKUtAIgkINvFgMYNhzIq3cLABTQo0ufjsLBdAB8dxjYsMEAc705tv4GWOF5pA0ACMJg5ztByaFDSibsdU6lvv37+PMjAsCFMgT38MnHFwBh7IbDSIMEQAAbfay3FwCGvGeIg/TlZ+GF2FEGoYQO6gXAH3AUEMAgIuEQQBB/NNiXAWi8h4YB8wFw4Yz4dVhAi4e82NeHfwQRwIEhIRAAGyl22AUJBiyxhAEkxOjEk1BCuUSUVC7xxBIdzpDkkk0O+McfbASAgEhS9VGkXzlo4EGXe2lwwZtwxinnmydw0MGbHfSVpgXF7fjlH0r99lGZZ/q1mmXNAUbZoZbxCCgAgnpEqIqIVjpfc4wi6migIWlmZoOyhSqqqCWU8BoIo762KaQhTQqACP6wxiorrCWIQEANuOaq66685vrqrLLWCuuqkXbk6h3IJpusHczeYQcAj0Ai7bTUVmuttADUoayydjjbLbGdBvApANuWi+yz0V6r7rXZmlsuuCAd6y630K5rL7XtzpssvIOKW6S+ytZ77735AsyvpP42CPC+6Q68bsH6HmxswuQufIfADqsrRLcLS8yRvB03nPG1HAMcwJ+cguRpigFYfLHII1frsscbgWwwzDFPOzPKrKpM8cw45wzIzl+m3O+4QOdsLcTz0qyRzREHHbMQRD9a7Mc/W4yx0jprzfPVNQOAtNZSjzy010X3fPS/ZHONr7Ydf91q1iG7PS3T5j4LSP7aYD/tL6Bw32y3tFQvXIfTGSll5h8KyNH24JBYLMcBcscr9pcvFPG43WcDXMQLla/9RxgHBN502RnjvW0dB4QRukcrf9lCCSW7uzXXqitbQgt/Wj334ikqoHnUkOfubBEMAO97vH9/CYcCP9S+7e1K527HDwq40fvyg17eux8XcDCH9MhSn7Pqc3DAAR/bc48wHO33SMAPdNSObvGm30HHDwQIEX+DakMYAvwQPzjQgDiOO5f5YpYvO8jBBwR4Afza54fMBHBiGTjAGtq3Nzjc4AASKIIc7je4bMlhCxI4wA0m2L42GMADRkPYFkZAgCHE709foAECDICALwDCEf5KcwQgvrAZBNRADDf80hAIMIIuxLAjmoHMDg5AgQ3Gb29gOkINLkCAAlzgBUL4QhrU4IYyukENafiCEF7AARFRgAZBIFIS/7CGChxgBx664McAsCgafsCKc/wSH8LgBSHcgAYvaIEiW/ACGtwgCF4IA/sC+aU1fICJq3niHg+1BRAQgAJeUB4l54jFQPaBCBQoAAgYpcmNRNFQJIAAAC4wBDmO8pbba8MQLAAACJTmL63UiFIyNZ/BEIAAHbiBF9YgSlx+qQ9s8MINuFgAC/wyMsFMHB8RJRgQrAUABYDABVrgyCEMwQvoTKc5D9mCD0CgAAAAIaq+U5lsYmSYlv6aTxZ00BoQgCADHoiABcJiAQtk4KAjGMFtskDMRumxZgE41A5IAIR8WhRRQMDLjh76tG1O5gIJUAECLNDQi+ZzCxYIaQIosJqt9C0jW6GMB1KwCEYsIgUe2EtG6WnSvwjmOyGgqU1TAILm2PMiMdULARDBiKYiAkZHKoAJCsCmnvaFBAQwAQG6tNSmMgIRBHgQR2HKR8gEQBFeVUQA9GKAQjCiEFC1al8K4NZCFMBDaG2qWvfi0lZ5lAJR8GoUWNqFACSCEYlYq1x3dNjE6gWwgqWAWF+KEalQZgcFkMEUZFCAinbBAyaQgglyuli+gHYKJuCAXoCQ2c0aAI95pP7sRV6pFy2EgAMh0MJ8RmCBJpa2LyPALV9s24HcZnKs9/Tob0ta2qNaBJ9yXQ1zF+vcikglVbN5zUEB6oHudld9EfCueAMaXg8AFLux0YxsnxuAD7j3AytYwXvdG4L5euADAFjAAhIggAAMYAEDGAA49ZsA/wY4AeBMwH4BMF/6xne+9V2BC/AbgPVWhDGT5OD/AHCFK1QhAUzocBUGEGIPg1jEJzbxh0pJST4AwAAiiUEAbIjLBpm4xFeAQhNQjGMd89hRtzzCVEQSCDE1M4kN+nCJrWCFDt+4w0x2spKvAGRK9mE3cBHJBmZJwFE2KMUffgKPRTwAMT+Zyrj0g/4FAnACC1tEErshAA2OkM462/kIAGjAAx7ggAA0QAZ89vOe+6xnPucZ0DIIgJ0Xjc4j0EAqDLAKSSZhg7ZAxSlSUUqmLb2UtlhaNJq+dFMCYIOhnCQSekCCEVbN6gJUYAMjqEAANuACF2jAvRv4AK07oAE3aWAFJ/hAsE9A7A1coAO5JkAFel0BArCa1UjQQyRkggcNmMEMZZiAGBrB7W57+9vgDrcYKlCGa2sgD1cZiCQIMIZr94AB8Y23vOcd7xPQm94I4MG1wWAAU1/FBjO4NhkMEIhIGPzgCE+4whdu8EAQgAzXngGQiDIIBJzh2i74AkjEsIJyl0EBJKJJJUwmgIV9G8DNEqkEA8BwbSxMAOUlqfa1s51lkARiAtc2gwbwQBMFtNsMYGABSVhQcjOMAcbpTrrSl870pjv96VCPutSnTvWqW/3qGQkIACH5BAwEAAAALAAAAABkAGQAhx8hKyAiLCQnMSYqNCkqMicsOSwuOS4yPDM1Pjk7PEJBM01LNVpWOGxmPG9pPS00Qi87RS45SjI1QTM6RDQ8Szg/TTI/Uzs9UkY4RTpBTjdATDNAVT1EUj5JVTpGWzZGXDpTXDtMYjxRaj9WcEFDTElLVkNHVkdTXlFTW2JHVnd1XkpMbUxUZFVdbldZYUFXckJad0Ncek9RdVRbckJia0VgfkRncFhhc1dtdWJjam5vdmFqfXd4f56UR6GXSLuuTp2Zc6qmesS2UN+mdPu5f+vZWPXjWvjlW1tdiEdigkhkhEpniExqjF9hjU16g05ukWRugWdxhGlzhmx3im55jXp8gmRmlnN+k2ttoG9xpnd5s3l7tnV3sMF7kFOEjViOllWIkGiFjHWBlneDmHmGm3uInXaYn12YoH+MomCepmuzu3TDynfL0njM04SFi4iJjoqLkZman7WwgICNpIeVrImXr4ORp46dtYCmrIqyuIevtqeorLq6vbS0uNGEmtyKoemRqfSXsMnDjNTOktnTlerjn+/oov72qo+6wJK+xL6/wpjFy6DR16TV2qnd4svMzsbHyd3d39LT1eTk5e7v7+/v8PLy8////wAAAAAAAAAAAAAAAAAAAAAAAAAAAAAAAAAAAAAAAAAAAAAAAAAAAAAAAAAAAAAAAAAAAAAAAAAAAAAAAAAAAAAAAAAAAAAAAAAAAAAAAAAAAAAAAAAAAAAAAAAAAAAAAAAAAAAAAAAAAAAAAAAAAAAAAAAAAAAAAAAAAAAAAAAAAAAAAAAAAAAAAAAAAAAAAAAAAAAAAAAAAAAAAAAAAAAAAAAAAAAAAAAAAAAAAAAAAAAAAAAAAAAAAAAAAAAAAAAAAAAAAAAAAAAAAAAAAAAAAAAAAAAAAAAAAAAAAAAAAAAAAAAAAAAAAAAAAAAAAAAAAAAAAAAAAAAAAAAAAAAAAAAAAAAAAAAAAAAAAAAAAAAAAAAAAAAAAAAAAAAAAAAAAAAAAAAAAAAAAAAAAAAAAAAAAAAAAAj+AC8JHEiwoMGDCBMqXMiwocOHECNKnEixosWLGDNq3Mixo8ePIEOKHEmypMmTKFOqXMmypcuXMGPKnImQ0qSbOHPq3MnzJiWaCyHBcYEAgNGjSAMcVYq0qVOjARC4eAPJEtBLkdwcCMD0qICvAQSE5Qo2rFixAwKkFbD27FKlBtxEkvkoB9MBFkTEYPKkr9+/gAML/sskiQgLA6DmeOSyDwquACLAGEy5suW/MCIcRcFHZR8SSgNsSOJ3CV/ASlIrqaE6ierUrFWzZr0ksGm/SiyIDUCiz0kdXAN8qN13CQWuFU4/YRKAgHPnAqB/LRAd+nPnAf4uqcCVAvEnSz7+hNZRsgqAAC0AAM6QAhCgFBX8MidCv779+/iJBFBOof17CoABMIMAAFQx0iNKTUGHen8F4EcggfyRXXEB5GdhfhP2FcAfEEoY4B1UGMVYSMCxcMeCgAnwYCB+ZMgEABfGWF+GT6gIYYsf3sECAOSFJEEAY5zIoF8eYNBFFxh4gBsAQzTp5JNQRjkEjUUemWSOYwCAgEhc0SFkYB8YYICS8hkQ3VcEnInmV2xil2Z0hIEwgAEfBAbAHXgaxWUAXqJ4WWDK/SnoX3fmCYBVIJ3X55CDNuqoX4XeYRSiH3Up5GuvuYbpppx2KpunmEY6aUiWLjjAqacWUACqqL5JwKn+r8I6AAEGxNpqqwSoteoAu6rKFq+J4SnpoaTyKWQbyCarrLIAMOLIs9BC20i01EYbwBrIsqFtG2ws24aoxIJUKgDelvuts9Wmq64jAGCbbLfesgEupR4ptai53ja77r7Stovvu+D+lCgA9/6brL788uuvwd8KO+rABTOMcMLrLmzwvCEZVcexDJ9L8b4TuHuxw+F+ZFTEF6P7sbodN2wovR0pyrHEKq9cbcsYi2vsgjjXbHO0OJMMM0fj9vxztY0E/XKxKP878dHPCiCy00JnTPDMKUMdrQbwjry0zk3j+7TWXVP9daU7k9vx2EczovSwQ29U9No+H33t2lWDLWT+2WLX/bPFZsPNdJ5T9601tBPwXe4aOVd69R0DqEH34dB2rMYAeaPt5R0deDE55UkzDEYHmXsk8x1RQKB4vn7bfLfBGuxQekeW4jmBEzRTzm7h3joBgbCCi/v4HWUMcMbF01IO+LJsnDFAGcA/rDnwVAjwhdPJH768sl8MQAXwwZtsLPBiFGADttsy2/rK23NrQwFigB9+veMDj0YHD3yR/sGMZA/18mz4wgE6gAb5zS9mAOCAAe8whQdowAtlC4D//ucubYEBAg+QggHrwAHpmQ4AD6DA5uQXBQ0QgAZpwFYA1vcxAKhhDWmgwQA0EIUF0kEDD/Ag7QKwBAsYIH7+CyRDCx4gABAIAA8TXFkj9AAAIz6gBdBboBgMEIEXlaxeAKhNCAbAghEaEA04YMGPDnACHITBDGrIQx4SsYhFJCIRiDCDGcKAgxPk8AAcwEEBF3giFghABH3RIdH20xclRGAAN9gYH/FUhzFE4QYsKEEGEIAAA5zKAA+YwAU6wIIbRGEMilxkHW4wgAgoAVJXjBkh/ZIZLkZxkbCMpQHLwIJSToZQqSQaAALVlxhsQABPDJIsh7nAMQxRABuIgWAEKTceUmYEiBEAB1owhT0Sk49zmEILLiCAAlhgBJVhpkaUwkvBKCEEGyBiAB7AgRO0oAlSoIIYykAGNNjTnmP+uAIVorCDFrCAAw8IywPycsrLiDMj5HSUEmAggg9sQAMReICqqMOmiT4gAhSwQAhEAIOCNuqgGOHKd5bj0UeZVDBMuA0u4zbOVT4hBG8CwUln6hcQ5GoAIWhQLpt5mhAkYBCHGEQCctqXlC6HpigtKQt+eghCDBWVLEWoM59gAEEc4qqCMEAvDRAAAygTqX+JAVcNcEsCWBWrWg3kTlt6GgAY4qqHMASDDgCEQwDhAGD9C13titcnuBWucoVqsU5zADnAVQ4ICGQhDlEIRoEVAIsN7BMOEITD9tWva83IeU4zAgIEgRBBIAA4nyABFRBCBRPIq18eoIJBoLYvnf3+bGhHi9mohnSqTxjBBAwwAdoqgQIEoEBJwfrbAQiXlRMgwARuqVbbXsQoI1WtdFdarOhOd7ogvQhXQLUETLkmBjGAQXjBC14ZwAAGNQDveWtw3hegl7yg6lR2LaIUNqHJLPbNb3AgE5ylvIW/ocHvm/JLYAJl9rZ2uOaCjnCEIiygAUZo8IMj7GAIS9gBFF5AAK55Iq6IxAQBmIKCAyBhCx+hBxgucYSP4AMMG8HBDtjwNaUQABOIBA4BmICCAVDhCBthxS+e8BF+zGAVR2qYEwgAHERCCa6egJgLErKDe8DgHku4Bxl2MQDwQEwWdFVgIeGDUiQAhTKgYQ5oTrP+mudABgAwQAhC+IEC3gznBNBZzneeM5yFAIA1+xnNZdiBBM7TGZJAAgFdgcpTFs3oRTMl0f5VtFEQoIiTWCIOKEDAAcTEaa4MACyyatWvfsWqUpcaAKPuKqfFNAEUxMG5JnnDBbawBS3k8DySbjSjIfMALtD6Am64ykAiQQAs0FoGJfBICWSghS1YgQBzETYKVkDrLBRAEh6RxACycGwXCLsPBvD1FjBABZBUAQPN5sIBfEMTS0gACbS2ggHA3JFKPMAKtEaCBGCNEjfMmtYS2INI9vCAZm/hAm+gyQGMvQUkJHskJYC3FuQt7Ipb/OIYz7jGN87xjnv84yAPucgFR66RgAAAOw==;" vertex="1" parent="1">
          <mxGeometry x="770" y="-1115" width="70" height="70" as="geometry" />
        </mxCell>
      </root>
    </mxGraphModel>
  </diagram>
</mxfile>
